<?xml version="1.0" encoding="utf-8"?>
<!-- Generator: Adobe Illustrator 19.2.1, SVG Export Plug-In . SVG Version: 6.00 Build 0)  -->
<svg version="1.1" id="Capa_1" xmlns="http://www.w3.org/2000/svg" xmlns:xlink="http://www.w3.org/1999/xlink" x="0px" y="0px"
	 viewBox="0 0 181.8 109" style="enable-background:new 0 0 181.8 109;" xml:space="preserve">
<style type="text/css">
	.st0{clip-path:url(#SVGID_2_);}
	.st1{clip-path:url(#SVGID_4_);fill:#D3B038;}
	
		.st2{clip-path:url(#SVGID_4_);fill:none;stroke:#FFFFFF;stroke-width:0.2056;stroke-linecap:round;stroke-linejoin:round;stroke-miterlimit:10;}
</style>
<g>
	<defs>
		<polygon id="SVGID_1_" points="0.2,178.3 181.7,178.3 181.7,3.7 0.2,3.7 0.2,178.3 		"/>
	</defs>
	<clipPath id="SVGID_2_">
		<use xlink:href="#SVGID_1_"  style="overflow:visible;"/>
	</clipPath>
	<g class="st0">
		<defs>
			<polygon id="SVGID_3_" points="0.2,104.6 181.7,104.6 181.7,3.7 0.2,3.7 0.2,104.6 			"/>
		</defs>
		<clipPath id="SVGID_4_">
			<use xlink:href="#SVGID_3_"  style="overflow:visible;"/>
		</clipPath>
		<polygon class="st1" points="87.7,3 0.9,35.2 5.9,36.6 87.7,67.5 164.6,38.7 175.3,35.2 87.7,3 		"/>
		<polygon class="st2" points="87.7,3 0.9,35.2 5.9,36.6 87.7,67.5 164.6,38.7 175.3,35.2 87.7,3 		"/>
		<path class="st1" d="M35.8,57c0,8.4,0,8.4,0,8.4c0,18.9,0,18.9,0,18.9c0,10.5,23.5,18.2,52,18.2c19.9,0,37-3.5,45.6-9.1
			c4.3-2.8,7.1-5.6,7.1-9.1c0-27.3,0-27.3,0-27.3C87.7,76.6,87.7,76.6,87.7,76.6L35.8,57z"/>
		<polygon class="st1" points="175.3,39.4 171,40.8 169.6,50.6 166,78 173.8,78 180.2,78 175.3,39.4 		"/>
		<polygon class="st2" points="175.3,39.4 171,40.8 169.6,50.6 166,78 173.8,78 180.2,78 175.3,39.4 		"/>
		<polygon class="st1" points="87.7,3 0.9,35.2 5.9,36.6 87.7,67.5 164.6,38.7 175.3,35.2 87.7,3 		"/>
		<polygon class="st2" points="87.7,3 0.9,35.2 5.9,36.6 87.7,67.5 164.6,38.7 175.3,35.2 87.7,3 		"/>
		<path class="st1" d="M35.8,57c0,8.4,0,8.4,0,8.4c0,18.9,0,18.9,0,18.9c0,10.5,23.5,18.2,52,18.2c19.9,0,37-3.5,45.6-9.1
			c4.3-2.8,7.1-5.6,7.1-9.1c0-27.3,0-27.3,0-27.3C87.7,76.6,87.7,76.6,87.7,76.6L35.8,57z"/>
		<polygon class="st1" points="175.3,39.4 171,40.8 169.6,50.6 166,78 173.8,78 180.2,78 175.3,39.4 		"/>
		<polygon class="st2" points="175.3,39.4 171,40.8 169.6,50.6 166,78 173.8,78 180.2,78 175.3,39.4 		"/>
	</g>
</g>
</svg>
