<?xml version="1.0" encoding="utf-8"?>
<!-- Generator: Adobe Illustrator 19.2.1, SVG Export Plug-In . SVG Version: 6.00 Build 0)  -->
<svg version="1.1" id="Capa_29" xmlns="http://www.w3.org/2000/svg" xmlns:xlink="http://www.w3.org/1999/xlink" x="0px" y="0px"
	 viewBox="0 0 1920 1170" style="enable-background:new 0 0 1920 1170;" xml:space="preserve">
<style type="text/css">
	.st0{fill:#F5DD6B;}
	.st1{opacity:0.8;fill:#664690;}
	.st2{opacity:0.46;}
	.st3{fill:#AFAEA0;}
	.st4{opacity:0.5;fill:#395A89;}
	.st5{fill:#395A89;}
	.st6{opacity:0.8;fill:#395A89;}
	.st7{opacity:0.5;fill:#9C6550;}
	.st8{opacity:0.5;fill:#AE7750;}
	.st9{fill:#FFFFFF;}
	.st10{opacity:0.5;fill:#E1AB83;}
	.st11{opacity:0.7;}
	.st12{fill:#C74F47;}
</style>
<g>
	<path class="st0" d="M758.7,673c143.4,0,259.7,100.9,259.7,225.3c0,124.4-116.3,225.3-259.7,225.3V673z"/>
</g>
<g>
	<polygon class="st1" points="1234.4,297.6 1125.7,355.2 1125.7,239.9 	"/>
</g>
<g class="st2">
	<polygon class="st3" points="1355.9,1109.3 1272.6,1153.5 1272.6,1065.2 	"/>
	<path class="st3" d="M1271.4,1063.2l86.8,46.1l-86.8,46.1V1063.2z M1273.8,1067.1v84.5l79.6-42.3L1273.8,1067.1z"/>
</g>
<g>
	<ellipse class="st4" cx="1476.7" cy="76.7" rx="29.5" ry="26.6"/>
	<path class="st5" d="M1446.5,76.7c0-15.1,13.6-27.3,30.2-27.3c16.7,0,30.2,12.3,30.2,27.3c0,15.1-13.6,27.3-30.2,27.3
		C1460.1,104,1446.5,91.7,1446.5,76.7z M1448,76.7c0,14.3,12.9,26,28.7,26c15.8,0,28.7-11.6,28.7-26s-12.9-26-28.7-26
		C1460.9,50.7,1448,62.4,1448,76.7z"/>
</g>
<g>
	<ellipse class="st6" cx="1365.6" cy="149.4" rx="21.2" ry="19.4"/>
	<path class="st4" d="M1343.7,149.4c0-11.1,9.8-20.1,21.9-20.1s21.9,9,21.9,20.1c0,11.1-9.8,20.1-21.9,20.1
		S1343.7,160.5,1343.7,149.4z M1345.2,149.4c0,10.3,9.2,18.8,20.4,18.8c11.3,0,20.4-8.4,20.4-18.8s-9.2-18.8-20.4-18.8
		C1354.4,130.6,1345.2,139,1345.2,149.4z"/>
</g>
<g>
	<g>
		<g>
			<path class="st7" d="M1608.4,782.2l120.1,191.2h-240.2L1608.4,782.2z M1608.4,784.7l-117.7,187.4h235.5L1608.4,784.7z"/>
		</g>
		<g>
			<polygon class="st7" points="1657.5,860.4 1586.9,972.4 1588,973.1 1658.3,861.6 			"/>
		</g>
	</g>
	<g>
		<polygon class="st8" points="1546.7,1036.8 1568.8,1001.7 1590.9,1036.8 		"/>
		<polygon class="st8" points="1696.4,1036.8 1651.6,1036.8 1674,1001.2 		"/>
		<polygon class="st8" points="1621.7,917.9 1674,1001.1 1569.2,1001.1 		"/>
		<polygon class="st9" points="1674.1,1001.1 1674,1001.2 1674,1001.1 		"/>
		<polygon class="st9" points="1568.5,1001.1 1569.2,1001.1 1568.8,1001.7 		"/>
		<polygon class="st9" points="1568.8,1001.7 1569.2,1001.1 1674,1001.1 1674,1001.2 1651.6,1036.8 1590.9,1036.8 		"/>
		<polygon class="st10" points="1591.2,1019 1652,1019 1621.5,1067.2 		"/>
	</g>
</g>
<g class="st11">
	<g>
		<path class="st12" d="M1669.7,31.3l120.1,191.2h-240.2L1669.7,31.3z M1669.7,33.8l-117.7,187.4h235.5L1669.7,33.8z"/>
	</g>
	<g>
		<polygon class="st12" points="1718.8,109.4 1648.1,221.5 1649.3,222.1 1719.6,110.7 		"/>
	</g>
</g>
<g>
	<defs>
		<path id="SVGID_1_" d="M1023.2,394.2c35.5-26.3,67-59.4,92.5-98.9c99.3-153.9,72.2-361.3-64.3-483.5
			c-170.3-152.5-429.8-120-558.9,60.8c-24.3,34-42.1,70.6-53.7,108.4C403.2,97,317.4,191,203.9,234
			c-97.6,37-184.4,106.2-243.1,204.7C-160.4,642-112.8,908.8,70.9,1058c217.9,177,536.3,131.5,696.9-93.5
			c58.2-81.5,87.3-174.8,89.6-267.9C860.3,575.4,925.7,466.4,1023.2,394.2z"/>
	</defs>
	<clipPath id="SVGID_2_">
		<use xlink:href="#SVGID_1_"  style="overflow:visible;"/>
	</clipPath>
	<g transform="matrix(1 0 0 1 -1.220703e-004 1.525879e-005)" style="clip-path:url(#SVGID_2_);">
		
			<image style="overflow:visible;" width="3888" height="2592" xlink:href="CDBFF49B.jpg"  transform="matrix(-0.5231 1.985096e-002 1.985096e-002 0.5231 1384.7311 -227)">
		</image>
	</g>
</g>
</svg>
