<?xml version="1.0" encoding="utf-8"?>
<!-- Generator: Adobe Illustrator 19.2.1, SVG Export Plug-In . SVG Version: 6.00 Build 0)  -->
<svg version="1.1" id="Capa_29" xmlns="http://www.w3.org/2000/svg" xmlns:xlink="http://www.w3.org/1999/xlink" x="0px" y="0px"
	 viewBox="0 0 1920 988.5" style="enable-background:new 0 0 1920 988.5;" xml:space="preserve">
<style type="text/css">
	.st0{opacity:0.15;}
	.st1{fill:#00366E;stroke:#001A5A;stroke-width:11;stroke-miterlimit:10;}
	.st2{opacity:0.5;}
	.st3{fill:#E6C46E;}
	.st4{fill:#4F6E2C;}
	.st5{fill:#D7B8A2;}
	.st6{fill:#FFFFFF;}
	.st7{opacity:0.5;fill:#477486;}
	.st8{fill:#477486;}
	.st9{fill:#9C6550;}
</style>
<g id="lineas" class="st0">
	<g>
		<polygon class="st1" points="846,369 809.7,326.7 846,284.4 809.7,242.1 846,199.9 809.7,157.6 845.3,119.4 843.5,118 
			806.6,157.5 842.9,199.9 806.6,242.1 842.9,284.4 806.6,326.7 842.9,369 806.6,411.3 842.9,453.6 806.6,495.8 842.9,538.1 
			806.6,580.4 843.5,623.4 845.4,622 809.7,580.4 846,538.1 809.7,495.8 846,453.6 809.7,411.3 		"/>
	</g>
	<g>
		<polygon class="st1" points="915.9,369 879.6,326.7 915.9,284.4 879.6,242.1 915.9,199.9 879.6,157.6 915.2,119.4 913.4,118 
			876.5,157.5 912.8,199.9 876.5,242.1 912.8,284.4 876.5,326.7 912.8,369 876.5,411.3 912.8,453.6 876.5,495.8 912.8,538.1 
			876.5,580.4 913.4,623.4 915.3,622 879.6,580.4 915.9,538.1 879.6,495.8 915.9,453.6 879.6,411.3 		"/>
	</g>
	<g>
		<polygon class="st1" points="776.1,369 739.8,326.7 776.1,284.4 739.8,242.1 776.1,199.9 739.9,157.6 775.5,119.4 773.6,118 
			736.7,157.5 773,199.9 736.8,242.1 773,284.4 736.8,326.7 773,369 736.8,411.3 773,453.6 736.8,495.8 773,538.1 736.8,580.4 
			773.6,623.4 775.5,622 739.8,580.4 776.1,538.1 739.8,495.8 776.1,453.6 739.8,411.3 		"/>
	</g>
</g>
<g class="st2">
	<polygon class="st3" points="211,54.5 298.4,8.2 298.4,100.9 	"/>
	<path class="st3" d="M205.4,54.5l95.8-50.8v101.7L205.4,54.5z M216.6,54.5l79.1,42V12.6L216.6,54.5z"/>
</g>
<g id="trianguloVerde" class="st2">
	<polygon class="st4" points="1606.7,520.5 1279.7,995 1933.7,995 	"/>
	<g>
		<polygon class="st5" points="1871.8,908.8 1815.1,991.2 1928.6,991.2 		"/>
	</g>
	<g>
		<polygon class="st6" points="1573.9,863.7 1571.3,861.5 1740.5,719.8 1743.1,722 		"/>
	</g>
	<g>
		<polygon class="st6" points="1601.8,901.1 1599.2,898.9 1767.4,757.9 1770,760.2 		"/>
	</g>
	<g>
		<polygon class="st6" points="1626,940 1623.3,937.8 1792.5,796.1 1795.1,798.3 		"/>
	</g>
</g>
<g id="triangulo-azul">
	<polygon class="st7" points="992.6,580.1 706.7,995 1278.5,995 	"/>
	<g>
		<polygon class="st8" points="1224.4,919.6 1174.8,991.6 1274.1,991.6 		"/>
	</g>
	<g>
		<polygon class="st8" points="963.9,880.2 961.6,878.3 1109.6,754.3 1111.9,756.3 		"/>
	</g>
	<g>
		<polygon class="st8" points="988.3,912.9 986,911 1133.1,787.7 1135.4,789.6 		"/>
	</g>
	<g>
		<polygon class="st8" points="1009.4,946.9 1007.2,945 1155.1,821.1 1157.4,823 		"/>
	</g>
</g>
<g id="triangulo-inv" class="st2">
	<polygon class="st9" points="180.4,926.6 96.5,793 264.4,793 	"/>
</g>
</svg>
