<?xml version="1.0" encoding="utf-8"?>
<!-- Generator: Adobe Illustrator 19.2.1, SVG Export Plug-In . SVG Version: 6.00 Build 0)  -->
<svg version="1.1" id="_x36_" xmlns="http://www.w3.org/2000/svg" xmlns:xlink="http://www.w3.org/1999/xlink" x="0px" y="0px"
	 viewBox="0 0 1920 932" style="enable-background:new 0 0 1920 932;" xml:space="preserve">
<style type="text/css">
	.st0{fill:#274D7E;}
</style>
<path class="st0" d="M2.2,720V204c0,0,38,48,188,10c140-28,264-74,512,22c176,58,248,154,556-24c84-46,250-134,362-12
	c50,66,70,102,102,164c28,60,127.5,182,197.8,200c0.2,122,0,364.9,0,364.9s-174.4-75-222.4-147c-57-54-153-228-495-81
	c-210,78-360,183-639.1,33c-153-87-240-147-426-66C20.4,712.9,2.2,720,2.2,720z"/>
</svg>
