<?xml version="1.0" encoding="utf-8"?>
<!-- Generator: Adobe Illustrator 19.2.1, SVG Export Plug-In . SVG Version: 6.00 Build 0)  -->
<svg version="1.1" id="Capa_1" xmlns="http://www.w3.org/2000/svg" xmlns:xlink="http://www.w3.org/1999/xlink" x="0px" y="0px"
	 viewBox="0 0 1920 1083.1" style="enable-background:new 0 0 1920 1083.1;" xml:space="preserve">
<style type="text/css">
	.st0{fill:#F0DA9B;}
	.st1{clip-path:url(#SVGID_2_);}
	.st2{fill:url(#SVGID_3_);}
	.st3{fill:url(#SVGID_6_);}
	.st4{fill:#E5B13C;}
	.st5{fill:url(#SVGID_7_);}
	.st6{fill:url(#SVGID_8_);}
	.st7{fill:#EABA4A;}
	.st8{clip-path:url(#SVGID_2_);fill:#D1D1C4;}
</style>
<g>
	<rect class="st0" width="1920" height="1083.1"/>
	<g>
		<defs>
			<rect id="SVGID_1_" width="1920" height="1083.1"/>
		</defs>
		<clipPath id="SVGID_2_">
			<use xlink:href="#SVGID_1_"  style="overflow:visible;"/>
		</clipPath>
		<g class="st1">
			<linearGradient id="SVGID_3_" gradientUnits="userSpaceOnUse" x1="1806.3101" y1="772.7867" x2="2152.6941" y2="1119.1708">
				<stop  offset="0" style="stop-color:#C31F25"/>
				<stop  offset="0.1758" style="stop-color:#C4242C"/>
				<stop  offset="0.4235" style="stop-color:#C7343E"/>
				<stop  offset="0.7125" style="stop-color:#CB4C5C"/>
				<stop  offset="1" style="stop-color:#D06B81"/>
			</linearGradient>
			<polygon class="st2" points="1808,1411.1 1472,1131.1 2158.4,432.2 			"/>
			<g>
				<defs>
					<rect id="SVGID_4_" x="659.3" y="57.1" width="956.7" height="718"/>
				</defs>
				<clipPath id="SVGID_5_">
					<use xlink:href="#SVGID_4_"  style="overflow:visible;"/>
				</clipPath>
				<g transform="matrix(1 0 0 1 0 -1.525879e-005)" style="clip-path:url(#SVGID_5_);">
					
						<image style="overflow:visible;" width="6000" height="4000" xlink:href="BF162673.jpg"  transform="matrix(0.3045 0 0 0.2978 42.0657 -175.502)">
					</image>
				</g>
			</g>
			<g>
				
					<radialGradient id="SVGID_6_" cx="559.1882" cy="5435.2798" r="538.3813" gradientTransform="matrix(1.2461 -1.4059 0.1853 0.209 -20.0635 61.6376)" gradientUnits="userSpaceOnUse">
					<stop  offset="0" style="stop-color:#9C9C9C"/>
					<stop  offset="1" style="stop-color:#FFFFFF"/>
				</radialGradient>
				<path class="st3" d="M1131.3,1137.1c143.3-88.7,391.5-318.7,652.4-613.1c260.9-294.3,464.8-574.4,543.4-736L1131.3,1137.1z"/>
				<polygon class="st4" points="2350.9,192.7 1165,1530.7 494,1171.1 1734,234.1 				"/>
			</g>
		</g>
		<g class="st1">
			
				<linearGradient id="SVGID_7_" gradientUnits="userSpaceOnUse" x1="904.8347" y1="-1274.0547" x2="1365.5966" y2="-813.2928" gradientTransform="matrix(-0.9772 -0.2121 0.2121 -0.9772 1324.3157 -551.6696)">
				<stop  offset="0" style="stop-color:#C31F25"/>
				<stop  offset="1" style="stop-color:#D06B81"/>
			</linearGradient>
				<polygon class="st5" points="50.6,-137.6 404.5,23.2 -219.6,739.1 			"/>
				<g>
					
						<radialGradient id="SVGID_8_" cx="-149.5782" cy="-17949.8457" r="371.6805" gradientTransform="matrix(-0.9935 1.779 -0.5707 -0.4618 -9618.7979 -7403.5581)" gradientUnits="userSpaceOnUse">
						<stop  offset="0" style="stop-color:#9C9C9C"/>
						<stop  offset="1" style="stop-color:#FFFFFF"/>
					</radialGradient>
					<path class="st6" d="M1006.2-46.9C876.3,6.8,704.8,191.5,561.2,448.6c-143.6,257.1-220.9,518-213.2,683L1006.2-46.9z"/>
					<polygon class="st7" points="-128.8,623.8 222,4.1 952,4.1 366,1097.1 				"/>
				</g>
			</g>
		<polygon class="st8" points="1210,-32.9 1918,375.1 2254.8,-95.5 		"/>
		<polygon class="st8" points="478.8,1137.9 -44,561.1 -636.5,1213.2 		"/>
	</g>
</g>
</svg>
