<?xml version="1.0" encoding="utf-8"?>
<!-- Generator: Adobe Illustrator 19.2.1, SVG Export Plug-In . SVG Version: 6.00 Build 0)  -->
<svg version="1.1" id="Capa_25" xmlns="http://www.w3.org/2000/svg" xmlns:xlink="http://www.w3.org/1999/xlink" x="0px" y="0px"
	 viewBox="0 0 1920 1141" style="enable-background:new 0 0 1920 1141;" xml:space="preserve">
<style type="text/css">
	.st0{fill:#262448;}
	.st1{fill:#262448;stroke:#262448;stroke-width:12;stroke-miterlimit:10;}
	.st2{fill:#315557;}
	.st3{fill:#EAB720;stroke:#EAB720;stroke-width:3;stroke-miterlimit:10;}
	.st4{opacity:0.46;fill:url(#SVGID_1_);}
	.st5{opacity:0.5;fill:#E5AC4D;}
	.st6{opacity:0.5;fill:#262448;}
	.st7{opacity:0.5;}
	.st8{fill:#519047;stroke:#519047;stroke-width:19;stroke-miterlimit:10;}
</style>
<g>
	<g>
		
			<ellipse transform="matrix(1.395556e-002 -0.9999 0.9999 1.395556e-002 848.9767 1550.5322)" class="st0" cx="1210.7" cy="344.8" rx="8.7" ry="9.5"/>
		
			<ellipse transform="matrix(1.395556e-002 -0.9999 0.9999 1.395556e-002 915.1927 1487.032)" class="st0" cx="1211.6" cy="279.5" rx="8.7" ry="9.5"/>
		
			<ellipse transform="matrix(1.395556e-002 -0.9999 0.9999 1.395556e-002 981.4088 1423.5319)" class="st0" cx="1212.5" cy="214.2" rx="8.7" ry="9.5"/>
		
			<ellipse transform="matrix(1.395556e-002 -0.9999 0.9999 1.395556e-002 1047.6249 1360.0316)" class="st0" cx="1213.4" cy="148.8" rx="8.7" ry="9.5"/>
		
			<ellipse transform="matrix(1.395556e-002 -0.9999 0.9999 1.395556e-002 1113.8409 1296.5315)" class="st0" cx="1214.3" cy="83.5" rx="8.7" ry="9.5"/>
		
			<ellipse transform="matrix(1.395556e-002 -0.9999 0.9999 1.395556e-002 1180.057 1233.0313)" class="st0" cx="1215.2" cy="18.2" rx="8.7" ry="9.5"/>
	</g>
	<g>
		
			<ellipse transform="matrix(1.395556e-002 -0.9999 0.9999 1.395556e-002 1019.4376 1595.7354)" class="st0" cx="1318.8" cy="281" rx="8.7" ry="9.5"/>
		
			<ellipse transform="matrix(1.395556e-002 -0.9999 0.9999 1.395556e-002 1085.6536 1532.2351)" class="st0" cx="1319.7" cy="215.7" rx="8.7" ry="9.5"/>
		
			<ellipse transform="matrix(1.395556e-002 -0.9999 0.9999 1.395556e-002 1151.8696 1468.735)" class="st0" cx="1320.6" cy="150.3" rx="8.7" ry="9.5"/>
		
			<ellipse transform="matrix(1.395556e-002 -0.9999 0.9999 1.395556e-002 1218.0857 1405.2347)" class="st0" cx="1321.5" cy="85" rx="8.7" ry="9.5"/>
		
			<ellipse transform="matrix(1.395556e-002 -0.9999 0.9999 1.395556e-002 1284.3018 1341.7346)" class="st0" cx="1322.4" cy="19.7" rx="8.7" ry="9.5"/>
	</g>
	<g>
		
			<ellipse transform="matrix(1.395556e-002 -0.9999 0.9999 1.395556e-002 1189.8984 1640.9385)" class="st0" cx="1426.9" cy="217.2" rx="8.7" ry="9.5"/>
		
			<ellipse transform="matrix(1.395556e-002 -0.9999 0.9999 1.395556e-002 1256.1145 1577.4384)" class="st0" cx="1427.9" cy="151.8" rx="8.7" ry="9.5"/>
		
			<ellipse transform="matrix(1.395556e-002 -0.9999 0.9999 1.395556e-002 1322.3306 1513.9381)" class="st0" cx="1428.8" cy="86.5" rx="8.7" ry="9.5"/>
		
			<ellipse transform="matrix(1.395556e-002 -0.9999 0.9999 1.395556e-002 1388.5466 1450.438)" class="st0" cx="1429.7" cy="21.2" rx="8.7" ry="9.5"/>
	</g>
</g>
<g>
	<path class="st1" d="M10.1,3.1h1017.7L519,726.6L10.1,3.1z M1017.8,7.8H20.1L519,717.1L1017.8,7.8z"/>
</g>
<g>
	<polygon class="st2" points="689.3,490.7 1669.4,1092 1667.6,1096.8 687.4,495.5 	"/>
</g>
<g>
	<polygon class="st3" points="889.9,456.2 891.2,457.8 817.8,567.5 815.9,566.1 	"/>
</g>
<g>
	<polygon class="st3" points="989.2,377.7 991.7,382.4 850,587.3 846.6,585.3 	"/>
</g>
<g>
	<polygon class="st3" points="906.9,370.9 908.5,374.1 785.2,547.6 782.4,545.7 	"/>
</g>
<linearGradient id="SVGID_1_" gradientUnits="userSpaceOnUse" x1="277.1067" y1="2225.1396" x2="755.5443" y2="2501.3657" gradientTransform="matrix(-0.9013 -8.766073e-002 0.101 -1.0388 933.5745 2775.7993)">
	<stop  offset="0.1172" style="stop-color:#FFFFFF"/>
	<stop  offset="1" style="stop-color:#222221"/>
</linearGradient>
<polygon class="st4" points="518.3,736.3 1024.4,2.5 1132.8,8.2 591,754 "/>
<rect x="150.8" y="362" class="st5" width="363.8" height="331.7"/>
<rect x="51" y="451.4" class="st6" width="129.8" height="118.4"/>
<g class="st7">
	<g>
		<polygon class="st8" points="384.4,811 436,860.3 487.6,811 539.3,860.3 590.9,811 642.5,860.2 688.9,812.1 691.1,815.2 
			642.6,865.6 590.9,816.3 539.3,865.6 487.6,816.3 436,865.6 384.4,816.3 332.8,865.6 281.1,816.3 229.5,865.6 177.9,816.3 
			126.2,865.6 73.5,815.3 75.6,812 126.2,860.3 177.9,811 229.5,860.3 281.1,811 332.8,860.3 		"/>
	</g>
</g>
<g>
	
		<image style="overflow:visible;opacity:0.3;" width="2577" height="274" xlink:href="610352BB.png"  transform="matrix(0.24 0 0 0.24 257.1473 905.68)">
	</image>
	<g>
		<g>
			<g>
				<polygon class="st0" points="570.5,902.8 621.1,951.1 671.8,902.8 722.5,951.1 773.2,902.8 823.9,951.1 869.4,903.8 
					871.6,906.9 823.9,956.4 773.2,908 722.5,956.3 671.8,908 621.1,956.3 570.5,908 519.8,956.3 469.1,908 418.4,956.3 367.7,908 
					317,956.3 265.3,907 267.4,903.8 317,951.1 367.7,902.8 418.4,951.1 469.1,902.8 519.8,951.1 				"/>
			</g>
		</g>
	</g>
</g>
</svg>
