<?xml version="1.0" encoding="utf-8"?>
<!-- Generator: Adobe Illustrator 19.2.1, SVG Export Plug-In . SVG Version: 6.00 Build 0)  -->
<svg version="1.1" id="Capa_25" xmlns="http://www.w3.org/2000/svg" xmlns:xlink="http://www.w3.org/1999/xlink" x="0px" y="0px"
	 viewBox="0 0 1694.8 1469" style="enable-background:new 0 0 1694.8 1469;" xml:space="preserve">
<style type="text/css">
	.st0{fill:#262448;}
	.st1{fill:#262448;stroke:#262448;stroke-width:12;stroke-miterlimit:10;}
	.st2{fill:#315557;}
	.st3{fill:#EAB720;stroke:#EAB720;stroke-width:3;stroke-miterlimit:10;}
	.st4{fill:#EAB720;}
	.st5{opacity:0.3;}
	.st6{opacity:0.5;}
	.st7{fill:#EAB720;stroke:#EAB720;stroke-width:6;stroke-miterlimit:10;}
	.st8{fill:#222221;}
	.st9{opacity:0.46;fill:url(#SVGID_1_);}
	.st10{opacity:0.5;fill:#E5AC4D;}
	.st11{opacity:0.5;fill:#262448;}
	.st12{fill:#C83C41;}
	.st13{fill:#519047;stroke:#519047;stroke-width:19;stroke-miterlimit:10;}
</style>
<g>
	<g>
		<g>
			
				<ellipse transform="matrix(3.699841e-003 -1 1 3.699841e-003 861.906 1556.954)" class="st0" cx="1212.3" cy="345.9" rx="8.7" ry="9.5"/>
			
				<ellipse transform="matrix(3.699841e-003 -1 1 3.699841e-003 927.4757 1492.108)" class="st0" cx="1212.6" cy="280.6" rx="8.7" ry="9.5"/>
			
				<ellipse transform="matrix(3.699841e-003 -1 1 3.699841e-003 993.0454 1427.2621)" class="st0" cx="1212.8" cy="215.3" rx="8.7" ry="9.5"/>
			
				<ellipse transform="matrix(3.699841e-003 -1 1 3.699841e-003 1058.6151 1362.4161)" class="st0" cx="1213" cy="149.9" rx="8.7" ry="9.5"/>
			
				<ellipse transform="matrix(3.699841e-003 -1 1 3.699841e-003 1124.1848 1297.5703)" class="st0" cx="1213.3" cy="84.6" rx="8.7" ry="9.5"/>
			
				<ellipse transform="matrix(3.699841e-003 -1 1 3.699841e-003 1189.7546 1232.7244)" class="st0" cx="1213.5" cy="19.3" rx="8.7" ry="9.5"/>
		</g>
		<g>
			
				<ellipse transform="matrix(3.699841e-003 -1 1 3.699841e-003 1033.9298 1599.7502)" class="st0" cx="1319.8" cy="281" rx="8.7" ry="9.5"/>
			
				<ellipse transform="matrix(3.699841e-003 -1 1 3.699841e-003 1099.4995 1534.9043)" class="st0" cx="1320" cy="215.7" rx="8.7" ry="9.5"/>
			
				<ellipse transform="matrix(3.699841e-003 -1 1 3.699841e-003 1165.0692 1470.0585)" class="st0" cx="1320.3" cy="150.3" rx="8.7" ry="9.5"/>
			
				<ellipse transform="matrix(3.699841e-003 -1 1 3.699841e-003 1230.6389 1405.2125)" class="st0" cx="1320.5" cy="85" rx="8.7" ry="9.5"/>
			
				<ellipse transform="matrix(3.699841e-003 -1 1 3.699841e-003 1296.2086 1340.3666)" class="st0" cx="1320.8" cy="19.7" rx="8.7" ry="9.5"/>
		</g>
		<g>
			
				<ellipse transform="matrix(3.699841e-003 -1 1 3.699841e-003 1205.9536 1642.5466)" class="st0" cx="1427.3" cy="216.1" rx="8.7" ry="9.5"/>
			
				<ellipse transform="matrix(3.699841e-003 -1 1 3.699841e-003 1271.5233 1577.7007)" class="st0" cx="1427.5" cy="150.7" rx="8.7" ry="9.5"/>
			
				<ellipse transform="matrix(3.699841e-003 -1 1 3.699841e-003 1337.093 1512.8549)" class="st0" cx="1427.8" cy="85.4" rx="8.7" ry="9.5"/>
			
				<ellipse transform="matrix(3.699841e-003 -1 1 3.699841e-003 1402.6627 1448.0089)" class="st0" cx="1428" cy="20.1" rx="8.7" ry="9.5"/>
		</g>
	</g>
	<g>
		<path class="st1" d="M24.1,3.9h1077.3L562.8,849.3L24.1,3.9z M1090.8,9.5H34.7l528.1,828.8L1090.8,9.5z"/>
	</g>
	<g>
		
			<image style="overflow:visible;opacity:0.3;" width="598" height="483" xlink:href="E2C9D0C4.png"  transform="matrix(0.24 0 0 0.24 83.3873 4)">
		</image>
		<g>
			<g>
				<polygon class="st0" points="157.2,104.9 222.8,1.2 91.6,1.2 				"/>
			</g>
		</g>
	</g>
	<g>
		<polygon class="st2" points="647.1,13.2 1261.3,859.3 1258,862.7 643.8,16.6 		"/>
	</g>
	<g>
		<polygon class="st3" points="849.5,301.2 851.6,303.8 728.8,486.3 725.6,484 		"/>
	</g>
	<g>
		<polygon class="st3" points="825.2,268.7 827.7,273.4 686,478.3 682.6,476.3 		"/>
	</g>
	<g>
		<polygon class="st3" points="802.7,233.9 804.9,238.1 632.6,469.4 628.7,467 		"/>
	</g>
	<g>
		<path class="st4" d="M1095.8,1012.9l159.6-145.6c44.1,40.2,44.1,105.4,0,145.6C1211.4,972.6,1139.9,972.6,1095.8,1012.9z"/>
		<g class="st5">
			<path class="st0" d="M1095.8,1012.9c44.1-40.2,115.6-40.2,159.6,0C1211.4,1053.1,1139.9,1053.1,1095.8,1012.9z"/>
			<path class="st0" d="M1175.7,981.4c29.3,0,58.6,10.2,80.8,30.5l1,0.9l-1,0.9c-44.6,40.7-117.1,40.7-161.7,0l-1-0.9l1-0.9
				C1117.1,991.6,1146.4,981.4,1175.7,981.4z M1253.4,1012.9c-43.2-38.4-112.4-38.4-155.6,0
				C1141.1,1051.2,1210.3,1051.2,1253.4,1012.9z"/>
		</g>
	</g>
	<g class="st6">
		<polygon class="st7" points="1258.9,1402.7 709.1,636.9 703.1,650.1 1251.1,1410.9 		"/>
	</g>
	<g>
		<polygon class="st8" points="1629,518.5 1633.9,522.8 1028.6,1077 1023.8,1072.6 		"/>
	</g>
	
		<linearGradient id="SVGID_1_" gradientUnits="userSpaceOnUse" x1="233.9474" y1="2193.1113" x2="596.9755" y2="2402.7056" gradientTransform="matrix(-0.8967 -8.721209e-002 0.1 -1.0286 936.2496 2748.5132)">
		<stop  offset="0.1172" style="stop-color:#FFFFFF"/>
		<stop  offset="1" style="stop-color:#222221"/>
	</linearGradient>
	<polygon class="st9" points="560.8,843.3 1093.5,-5.5 1207.6,1.2 637.4,863.8 	"/>
	<g>
		<rect x="150.8" y="362" class="st10" width="363.8" height="331.7"/>
		<g>
			
				<image style="overflow:visible;opacity:0.3;" width="679" height="635" xlink:href="E2C9D0C3.png"  transform="matrix(0.24 0 0 0.24 31.9073 442.12)">
			</image>
			<g>
				<rect x="58" y="451.3" class="st0" width="120.7" height="110.1"/>
			</g>
		</g>
		<rect x="21" y="703.4" class="st11" width="85" height="77.5"/>
		<path class="st12" d="M41.7,1127.1h190.5V953.4H41.7V1127.1z M89.3,996.8h95.3v86.9H89.3V996.8z"/>
	</g>
	<g>
		<g class="st6">
			<g>
				<polygon class="st13" points="525.3,897.9 583.9,953.8 642.5,897.9 701.1,953.8 759.7,897.9 818.2,953.7 870.9,899.1 
					873.4,902.7 818.3,959.8 759.7,903.9 701.1,959.8 642.5,903.9 583.9,959.8 525.3,903.9 466.7,959.8 408.1,903.9 349.5,959.8 
					290.9,903.9 232.3,959.8 172.5,902.7 174.9,899 232.3,953.8 290.9,897.9 349.5,953.8 408.1,897.9 466.7,953.8 				"/>
			</g>
		</g>
		<g>
			
				<image style="overflow:visible;opacity:0.3;" width="2264" height="247" xlink:href="E2C9D0CC.png"  transform="matrix(0.24 0 0 0.24 164.5073 1029.28)">
			</image>
			<g>
				<g>
					<g>
						<polygon class="st0" points="439.9,1026.4 484.3,1068.8 528.7,1026.4 573.2,1068.8 617.6,1026.4 661.9,1068.7 701.8,1027.3 
							703.8,1030 662,1073.4 617.6,1031 573.2,1073.3 528.7,1031 484.3,1073.3 439.9,1031 395.5,1073.3 351.1,1031 306.7,1073.3 
							262.3,1031 217.9,1073.3 172.5,1030.1 174.3,1027.3 217.9,1068.8 262.3,1026.4 306.7,1068.8 351.1,1026.4 395.5,1068.8 						
							"/>
					</g>
				</g>
			</g>
		</g>
	</g>
</g>
</svg>
