<?xml version="1.0" encoding="utf-8"?>
<!-- Generator: Adobe Illustrator 19.2.1, SVG Export Plug-In . SVG Version: 6.00 Build 0)  -->
<svg version="1.1" xmlns="http://www.w3.org/2000/svg" xmlns:xlink="http://www.w3.org/1999/xlink" x="0px" y="0px"
	 viewBox="0 0 1920 919.8" style="enable-background:new 0 0 1920 919.8;" xml:space="preserve">
<style type="text/css">
	.st0{fill:#C83C41;}
	.st1{opacity:0.7;}
	.st2{fill:none;stroke:#315557;stroke-width:15;stroke-miterlimit:10;}
	.st3{opacity:0.5;}
	.st4{opacity:0.5;fill:#262448;}
	.st5{fill:#EAB720;}
	.st6{fill:#262448;}
	.st7{fill:none;stroke:#FFFFFF;stroke-width:4;stroke-miterlimit:10;}
</style>
<g id="Capa_25">
	<g>
		<g>
			
				<image style="overflow:visible;opacity:0.3;" width="527" height="488" xlink:href="F7F3895D.png"  transform="matrix(0.24 0 0 0.24 1495.5128 653.7131)">
			</image>
			<g>
				<rect x="1527.5" y="703.7" class="st0" width="66.2" height="57"/>
			</g>
		</g>
		<g class="st1">
			
				<image style="overflow:visible;opacity:0.3;" width="1146" height="1030" xlink:href="F7F3895F.png"  transform="matrix(0.24 0 0 0.24 982.0156 554.2131)">
			</image>
			<g>
				<rect x="1035.5" y="621.7" class="st2" width="199.9" height="172"/>
			</g>
		</g>
	</g>
	<g class="st3">
		<g>
			<g>
				<rect x="161.2" y="609.7" class="st4" width="127.9" height="110.1"/>
				<g>
					
						<rect x="9.1" y="734.2" transform="matrix(-1.836970e-016 1 -1 -1.836970e-016 840.5973 732.4745)" class="st5" width="90" height="104.6"/>
					
						<rect x="9.1" y="824.3" transform="matrix(-1.836970e-016 1 -1 -1.836970e-016 930.6054 822.4825)" class="st5" width="90" height="104.6"/>
					
						<rect x="113.6" y="824.3" transform="matrix(-1.836970e-016 1 -1 -1.836970e-016 1035.1886 717.8993)" class="st5" width="90" height="104.6"/>
				</g>
			</g>
			<rect x="82.8" y="68.7" class="st5" width="539.9" height="464.7"/>
		</g>
	</g>
	<g>
		<g>
			<g>
				<path class="st5" d="M1586.7,798.2l-2.7,1.2l-310.7-684.2l2.7-1.2c0.9-0.4,1.9-0.8,2.8-1.2l3.2-1.4l1.4,0.9L1836.4,492l-0.3,1.8
					C1811.2,625.3,1718,739.1,1586.7,798.2z M1281,118l306,673.7c127.5-58.3,218-169.1,242.9-297L1281,118L1281,118L1281,118z"/>
			</g>
			<g>
				<path class="st6" d="M1281.5,114.7l551.7,378.7c13-69,6.2-140.7-24-207.2C1724.6,99.9,1489.1,23.8,1281.5,114.7z"/>
				<path class="st6" d="M1287.5,115.2l543.6,373.1c12.2-69.2,3.7-138.6-24.7-201c-40.5-89.3-117.3-156.1-216-188.1
					C1493.3,67.7,1385.9,73.4,1287.5,115.2z M1835.2,498.3l-3.8-2.6l-555.9-381.5l4.8-2.1c101.2-44.3,212-50.8,312.2-18.3
					c100.3,32.5,178.2,100.4,219.4,191.1c29.4,64.8,37.8,137.1,24.2,208.9L1835.2,498.3z"/>
			</g>
		</g>
		<g>
			
				<image style="overflow:visible;opacity:0.26;" width="1239" height="1170" xlink:href="F7F3895A.png"  transform="matrix(0.24 0 0 0.24 1320.5216 262.4084)">
			</image>
			<g>
				
					<ellipse transform="matrix(0.9191 -0.394 0.394 0.9191 -43.141 617.4132)" class="st0" cx="1482.1" cy="413.8" rx="135.3" ry="123.4"/>
			</g>
		</g>
	</g>
</g>
<g id="Capa_2">
	<path class="st7" d="M1823.8-1042.3h-54c-6.6,0-12-5.4-12-12v-61.5c0-6.6,5.4-12,12-12h54c6.6,0,12,5.4,12,12v61.5
		C1835.8-1047.7,1830.4-1042.3,1823.8-1042.3z"/>
</g>
</svg>
