<?xml version="1.0" encoding="utf-8"?>
<!-- Generator: Adobe Illustrator 19.2.1, SVG Export Plug-In . SVG Version: 6.00 Build 0)  -->
<svg version="1.1" xmlns="http://www.w3.org/2000/svg" xmlns:xlink="http://www.w3.org/1999/xlink" x="0px" y="0px"
	 viewBox="0 0 592.9 834.1" style="enable-background:new 0 0 592.9 834.1;" xml:space="preserve">
<style type="text/css">
	.st0{fill:none;stroke:#EAB720;stroke-width:0.5;stroke-miterlimit:10;}
	.st1{fill:#EAB720;}
	.st2{fill:#262448;}
	.st3{fill:#C83C41;}
	.st4{fill:none;}
</style>
<g id="Capa_2">
	<path class="st0" d="M64.2,61.7l198,712c0,0,81.6-1.7,189.6-97.7c34.5-34.5,96-103.5,102-153C468.2,439,64.2,61.7,64.2,61.7z"/>
</g>
<g id="Capa_25">
	<g>
		<g>
			<g>
				<path class="st1" d="M265.1,782.3l-2.9,0.8L59.3,59.6l2.9-0.8c1-0.3,2-0.5,3-0.8l3.3-0.9l1.2,1.1l488.9,459.5l-0.6,1.7
					C513.4,645.6,403.9,743.9,265.1,782.3z M66.6,63.5L266.5,776c134.9-38.2,241.2-133.9,285.3-256.6L66.6,63.5L66.6,63.5L66.6,63.5
					z"/>
			</g>
			<g>
				<path class="st2" d="M67.6,60.3l487.6,458.3c23.4-66.2,27.5-138.1,7.8-208.5C507.7,113.2,286.6,2.1,67.6,60.3z"/>
				<path class="st2" d="M73.4,61.7l480.5,451.5c22.6-66.5,24.7-136.4,6.2-202.4C533.6,216.4,468,138.7,375.3,92.1
					C284.1,46.1,177.1,35.4,73.4,61.7z M556.5,523.8l-3.4-3.2L61.7,58.9l5.1-1.3C173.6,29.2,284.1,39.6,378.1,87
					c94.1,47.4,160.8,126.3,187.7,222.3c19.2,68.6,16.5,141.2-7.9,210.2L556.5,523.8z"/>
			</g>
		</g>
		<g>
			
				<ellipse transform="matrix(0.9684 -0.2495 0.2495 0.9684 -76.3027 50.2742)" class="st3" cx="160.2" cy="326.2" rx="110.9" ry="101.1"/>
		</g>
	</g>
	
		<rect id="XMLID_19_" x="-1257.1" y="-1256.3" transform="matrix(-1 -1.224647e-016 1.224647e-016 -1 -768.0768 -344.2305)" class="st4" width="1746.2" height="2168.4"/>
</g>
</svg>
