<?xml version="1.0" encoding="utf-8"?>
<!-- Generator: Adobe Illustrator 19.2.1, SVG Export Plug-In . SVG Version: 6.00 Build 0)  -->
<svg version="1.1" xmlns="http://www.w3.org/2000/svg" xmlns:xlink="http://www.w3.org/1999/xlink" x="0px" y="0px"
	 viewBox="0 0 1920 1011.1" style="enable-background:new 0 0 1920 1011.1;" xml:space="preserve">
<style type="text/css">
	.st0{opacity:0.5;}
	.st1{fill:#4F6E35;}
	.st2{fill:#EFCA7F;}
	.st3{fill:#2E366A;}
	.st4{fill:#4D539B;}
	.st5{fill:#CC534E;}
	.st6{fill:none;stroke:#040506;stroke-miterlimit:10;}
	.st7{fill:#B4B4B4;}
	.st8{fill:#ABAAAD;}
	.st9{fill:#9F9EA1;}
	.st10{fill:#605F71;}
	.st11{fill:none;stroke:#020305;stroke-width:15;stroke-miterlimit:10;}
</style>
<g id="Capa_20">
	<g>
		<g>
			<g class="st0">
				<path class="st1" d="M131.6,109.1c47.9,47.9,50.1,123.5,4.9,168.7C91.2,323.1,15.7,320.9-32.3,273L131.6,109.1z"/>
			</g>
			<g>
				<g>
					<path class="st2" d="M1174.7,161.8L1910.8,518l2.8,495.4l-11.4-6.6c-3.3-311.4-242.6-562.8-537.4-562.8
						c-105.4,0-203.7,32.2-286.7,87.7L855.8,164L1174.7,161.8z"/>
					<path class="st3" d="M1180.6,160l738.1,158.2l-1.9,339.8l2.6,355.8l-13.3-7.7l0-1.1c-1.6-150.2-58-291.2-158.9-396.9
						c-100.9-105.8-234.7-164-376.6-164c-101.4,0-200.2,30.2-285.6,87.4l-1,0.6l-272.2-157L1180.6,160z M1370.6,440.4
						c143,0,277.7,58.7,379.3,165.2c101.3,106.2,158,247.6,159.9,398.4l9.6,5.5l3.2-299.3l-742.1-545.8L819.2,375.2l264.6,152.6
						C1169.7,470.6,1268.8,440.4,1370.6,440.4z"/>
				</g>
				<g>
					<path class="st4" d="M1077.1,530.2l1-0.6l825,475.7l0.9,0.5l0,3.4c0,1.4,0,2.8,0,4.2v1.9H825.4v-1.9
						C825.4,816.3,919.5,635.7,1077.1,530.2z M1900.3,1011.6l-0.1-3.6l-822.1-474c-155.4,104.5-248.4,282.9-249,477.6L1900.3,1011.6
						C1900.3,1011.6,1900.3,1011.6,1900.3,1011.6z"/>
				</g>
				<g>
					<path class="st5" d="M1908.1,1006.9l-824-475.1c83-55.5,181.3-87.7,286.7-87.7C1665.5,444.1,1904.8,695.4,1908.1,1006.9z"/>
					<path class="st5" d="M1083.1,530.2c86-57.6,185.5-88,287.7-88c143,0,277.7,58.7,379.3,165.2
						c101.5,106.4,158.3,248.3,159.9,399.4l0,3.3l-826.9-476.7l-2.6-1.5L1083.1,530.2z M1747.4,610
						c-100.9-105.8-234.7-164-376.6-164c-100.5,0-198.3,29.6-283.1,85.7l818.6,471.9C1903.8,854.6,1847.5,714.9,1747.4,610z"/>
				</g>
			</g>
			<g>
				<polygon class="st6" points="135.8,113.5 2.5,190.4 2.5,36.5 				"/>
			</g>
			<g>
				<polygon class="st7" points="0.6,446.6 984.8,1016.7 988.5,1010.2 -0.6,438.1 				"/>
			</g>
			<g>
				<polygon class="st8" points="118.1,508.7 123.4,511 140.5,118.9 135.2,113.6 				"/>
			</g>
			<g>
				<polygon class="st9" points="111,502.1 116.3,506.4 123,126.8 117.7,121.5 				"/>
			</g>
			<g>
				<polygon class="st10" points="33.1,458.3 39.4,461.6 296.5,206.5 291.2,201.2 				"/>
			</g>
		</g>
		<g>
			<g>
				<path class="st5" d="M238.9,679c-20.7-14.3-49.1-7.7-61.2,14.3c-10.4,18.8-4.8,42.9,12.9,55.2c20.7,14.3,49.1,7.7,61.2-14.3
					C262.2,715.4,256.6,691.3,238.9,679z"/>
				<path class="st5" d="M237.8,676.6c21.4,13.3,27.3,42.3,12.2,63.1c-12.7,17.3-36.4,22.9-55.5,12.9c-22.8-11.9-30.3-40.5-17-61.9
					C190.3,670.2,217.3,663.9,237.8,676.6z M239.4,681.2c-20.4-15.4-49.7-8.6-61.2,14.3c-8.8,17.5-3.8,39.2,11.9,51
					c20.4,15.4,49.7,8.6,61.2-14.3C260.1,714.6,255,693,239.4,681.2z"/>
			</g>
			<g>
				<path class="st5" d="M159.4,462.4c-14.9-10-35.2-5.1-43.8,10.9c-7.3,13.6-3,30.9,9.8,39.5c14.9,10,35.2,5.1,43.8-10.9
					C176.5,488.3,172.2,471.1,159.4,462.4z"/>
				<path class="st5" d="M156.2,458.9c18.3,8.9,23.8,32.3,11.3,48.3c-9.1,11.7-25.5,15.5-38.8,9.1c-18.3-8.9-23.8-32.3-11.3-48.3
					C126.5,456.3,142.8,452.5,156.2,458.9z M159.6,464.4c-14.4-10.6-34.8-5.9-43,10c-6.5,12.5-2.8,28.1,8.5,36.5
					c14.4,10.6,34.8,5.9,43-10C174.6,488.4,171,472.7,159.6,464.4z"/>
			</g>
		</g>
	</g>
</g>
<g id="Capa_2">
	<path class="st11" d="M0,38l127.8,68l-4,260l-2,150l706,406c0,0,40-246,252-394c-144-86-268-154-268-154l368-214l730,544
		l10.2,307.1H829.8V934L0,446V38z"/>
</g>
</svg>
