<?xml version="1.0" encoding="utf-8"?>
<!-- Generator: Adobe Illustrator 19.2.1, SVG Export Plug-In . SVG Version: 6.00 Build 0)  -->
<svg version="1.1" id="Capa_1" xmlns="http://www.w3.org/2000/svg" xmlns:xlink="http://www.w3.org/1999/xlink" x="0px" y="0px"
	 viewBox="0 0 259.4 151.3" style="enable-background:new 0 0 259.4 151.3;" xml:space="preserve">
<style type="text/css">
	.st0{fill:#FFFFFF;}
</style>
<g>
	<path class="st0" d="M26.5,107.1c0.9-0.2,1.7-0.6,2.3-1c0.6-0.5,1-1,1.3-1.6c0.3-0.6,0.5-1.2,0.6-1.8c0.1-0.6,0.1-1.3,0.1-1.8
		c0-0.4-0.1-1-0.2-1.7c-0.2-0.7-0.5-1.3-1-2c-0.5-0.6-1.1-1.2-2-1.6c-0.9-0.4-2-0.7-3.4-0.7H12.9v3.6h1.3c0.3,0,0.6,0.2,0.9,0.5
		c0.3,0.3,0.4,0.7,0.4,1v11.5c0,0.2-0.1,0.4-0.4,0.6c-0.2,0.2-0.5,0.3-0.7,0.3h-1.6v3.5h3.8c0.4,0,0.7-0.1,1.1-0.3
		c0.4-0.2,0.7-0.4,1-0.8c0.3-0.3,0.5-0.7,0.7-1c0.2-0.4,0.3-0.8,0.3-1.2v-5h2.3l4,5.7c0.2,0.3,0.4,0.6,0.7,0.9
		c0.3,0.3,0.6,0.6,1,0.8c0.4,0.2,0.7,0.4,1.2,0.6c0.4,0.2,0.8,0.2,1.3,0.2h2.4v-3.5h-2.5L26.5,107.1z M25.5,103.4
		c-0.6,0.4-1.4,0.6-2.6,0.6h-3.1v-5.6h3.4c0.6,0,1.2,0.1,1.6,0.3c0.4,0.2,0.7,0.4,0.9,0.7c0.2,0.3,0.4,0.6,0.5,0.9
		c0.1,0.3,0.1,0.6,0.1,0.9C26.4,102.3,26.1,103,25.5,103.4z"/>
	<path class="st0" d="M45.9,101.5c-0.7-0.6-1.5-1.1-2.4-1.3c-0.9-0.2-1.7-0.3-2.4-0.3c-1.1,0-2.1,0.2-2.9,0.5
		c-0.8,0.3-1.5,0.7-2.1,1.2c-0.6,0.5-1,1-1.3,1.6c-0.3,0.6-0.6,1.2-0.8,1.8c-0.2,0.6-0.3,1.1-0.3,1.6c0,0.5-0.1,0.9-0.1,1.2
		c0,1.6,0.2,2.9,0.6,4c0.4,1.1,0.9,2,1.6,2.6c0.7,0.7,1.5,1.1,2.5,1.4c0.9,0.3,2,0.4,3.1,0.4c0.7,0,1.3-0.1,2-0.2
		c0.7-0.2,1.4-0.4,2-0.8c0.6-0.4,1.2-0.9,1.7-1.5c0.5-0.6,0.9-1.4,1.2-2.4h-4.2c-0.2,0.6-0.5,1-1,1.3c-0.5,0.3-1.1,0.4-1.6,0.4
		c-0.8,0-1.5-0.1-1.9-0.4c-0.5-0.3-0.8-0.6-1.1-1c-0.2-0.4-0.4-0.8-0.5-1.3c-0.1-0.4-0.1-0.8-0.1-1.1h10.7v-0.7
		c0-1.8-0.2-3.2-0.7-4.3C47.3,103,46.7,102.1,45.9,101.5z M37.9,106.5c0.1-1,0.4-1.8,1-2.4c0.5-0.6,1.3-0.9,2.2-0.9
		c0.3,0,0.7,0.1,1,0.2c0.4,0.1,0.7,0.3,1,0.5c0.3,0.3,0.5,0.6,0.8,1c0.2,0.4,0.4,0.9,0.4,1.6H37.9z"/>
	<path class="st0" d="M56.7,111.8h-1c-0.2,0-0.3-0.1-0.5-0.2c-0.2-0.2-0.2-0.3-0.2-0.5v-8.3c0-0.3,0-0.6-0.1-0.9
		c-0.1-0.3-0.2-0.6-0.5-0.8c-0.2-0.2-0.5-0.4-0.8-0.6c-0.3-0.1-0.7-0.2-1.1-0.2h-3.4v3.5h1c0.2,0,0.4,0.1,0.5,0.2
		c0.2,0.2,0.2,0.3,0.2,0.5v8.1c0,0.4,0.1,0.7,0.2,1.1c0.1,0.4,0.3,0.7,0.6,1c0.2,0.3,0.5,0.6,0.8,0.8c0.3,0.2,0.6,0.3,0.9,0.3h3.3
		V111.8z"/>
	<path class="st0" d="M52.1,98.5c0.7,0,1.3-0.2,1.8-0.7c0.5-0.5,0.7-1.1,0.7-1.8c0-0.7-0.2-1.3-0.7-1.8c-0.5-0.5-1.1-0.7-1.8-0.7
		c-0.7,0-1.3,0.2-1.8,0.7c-0.5,0.5-0.7,1.1-0.7,1.8c0,0.7,0.2,1.3,0.7,1.8C50.8,98.2,51.4,98.5,52.1,98.5z"/>
	<path class="st0" d="M71,115.6c0.3,0.2,0.6,0.3,1,0.3h3.3v-3.5h-1c-0.2,0-0.4-0.1-0.5-0.3c-0.2-0.2-0.2-0.4-0.2-0.6v-6.4
		c0-0.9-0.1-1.6-0.4-2.3c-0.3-0.6-0.7-1.2-1.1-1.6s-1-0.8-1.7-1c-0.7-0.2-1.4-0.3-2.1-0.3c-0.7,0-1.4,0.1-1.9,0.3
		c-0.5,0.2-1,0.5-1.4,0.8c-0.4,0.3-0.7,0.6-0.9,1c-0.2,0.3-0.4,0.6-0.5,0.9v-0.5c0-0.2-0.1-0.5-0.2-0.7c-0.1-0.2-0.2-0.4-0.4-0.6
		c-0.2-0.2-0.4-0.4-0.6-0.5c-0.2-0.1-0.4-0.2-0.7-0.2h-3.8v3.5h1c0.2,0,0.4,0.1,0.5,0.3c0.2,0.2,0.2,0.4,0.2,0.6v6.9
		c0,0.2-0.1,0.4-0.2,0.6c-0.2,0.2-0.3,0.3-0.5,0.3h-1v3.5h3.3c0.3,0,0.6-0.1,0.9-0.3c0.3-0.2,0.6-0.4,0.8-0.7
		c0.2-0.3,0.4-0.6,0.6-0.9c0.1-0.3,0.2-0.7,0.2-1v-6c0-1.2,0.3-2.1,0.9-2.7c0.6-0.6,1.4-0.9,2.3-0.9c0.6,0,1.1,0.1,1.5,0.3
		c0.4,0.2,0.6,0.5,0.8,0.8s0.3,0.6,0.3,1c0,0.4,0,0.7,0,1v6.5c0,0.3,0.1,0.7,0.2,1c0.1,0.4,0.3,0.7,0.6,1
		C70.4,115.2,70.7,115.4,71,115.6z"/>
	<path class="st0" d="M89.9,115.7c0.2,0.1,0.5,0.1,0.7,0.1H94v-3.5H93c-0.2,0-0.3-0.1-0.5-0.2c-0.1-0.2-0.2-0.3-0.2-0.5v-11.2h-3.7
		v1.4c-0.2-0.3-0.5-0.5-0.8-0.8c-0.3-0.2-0.7-0.5-1.1-0.6c-0.4-0.2-0.8-0.3-1.2-0.4c-0.4-0.1-0.8-0.1-1.2-0.1c-1.1,0-2.1,0.2-3,0.5
		c-1,0.3-1.8,0.8-2.5,1.5c-0.7,0.7-1.3,1.5-1.8,2.5c-0.4,1-0.7,2.2-0.7,3.6c0,1.4,0.2,2.6,0.6,3.7c0.4,1,0.9,1.9,1.6,2.6
		c0.7,0.7,1.5,1.2,2.4,1.5c0.9,0.3,1.9,0.5,2.9,0.5c1,0,2-0.2,2.9-0.7c0.9-0.5,1.6-1.2,2-2.1v0.4c0,0.3,0.1,0.6,0.2,0.8
		c0.1,0.2,0.3,0.5,0.5,0.6C89.4,115.5,89.6,115.6,89.9,115.7z M87.7,109.7c-0.1,0.6-0.3,1.1-0.5,1.5c-0.3,0.5-0.6,0.9-1.1,1.2
		c-0.5,0.3-1.1,0.5-1.9,0.5c-0.8,0-1.4-0.2-1.9-0.5c-0.5-0.3-0.9-0.7-1.1-1.2c-0.3-0.5-0.4-1-0.5-1.5c-0.1-0.6-0.1-1.1-0.1-1.6
		c0-0.5,0-1,0.1-1.6c0.1-0.6,0.3-1.1,0.5-1.5c0.3-0.5,0.6-0.9,1.1-1.2c0.5-0.3,1.1-0.5,1.9-0.5c0.8,0,1.4,0.2,1.9,0.5
		c0.5,0.3,0.9,0.7,1.1,1.2c0.3,0.5,0.4,1,0.5,1.5c0.1,0.6,0.1,1.1,0.1,1.6C87.9,108.6,87.8,109.1,87.7,109.7z"/>
	<path class="st0" d="M105.2,115.6c0.9,0.5,1.9,0.7,3.1,0.7c0.7,0,1.2-0.1,1.7-0.3c0.5-0.2,0.9-0.4,1.2-0.7s0.6-0.6,0.8-0.9
		c0.2-0.3,0.4-0.6,0.6-0.8h0.1v1.1c0,0.6,0.2,1,0.7,1.4c0.5,0.3,1.1,0.5,1.7,0.5h3.2V113h-0.9c-0.2,0-0.4-0.1-0.6-0.3
		c-0.2-0.2-0.3-0.4-0.3-0.6V98.6c0-0.2,0.1-0.4,0.3-0.6c0.2-0.2,0.4-0.3,0.6-0.3h0.9v-3.5h-3.5c-0.3,0-0.6,0.1-0.8,0.2
		c-0.3,0.1-0.5,0.3-0.8,0.6c-0.2,0.2-0.4,0.5-0.5,0.9c-0.1,0.4-0.2,0.8-0.2,1.2v5.1h-0.1c-0.4-0.8-1-1.4-1.8-1.8
		c-0.7-0.4-1.6-0.6-2.7-0.6c-1.2,0-2.3,0.3-3.1,0.8c-0.8,0.5-1.5,1.2-2,1.9c-0.5,0.8-0.9,1.6-1.1,2.6c-0.2,0.9-0.3,1.8-0.3,2.6
		c0,1.1,0.1,2.1,0.4,3.2c0.3,1,0.7,1.9,1.2,2.7C103.7,114.4,104.4,115.1,105.2,115.6z M106.6,104.5c0.6-0.8,1.5-1.2,2.7-1.2
		c1,0,1.8,0.4,2.4,1.1c0.7,0.8,1,1.9,1,3.5c0,1.1-0.1,1.9-0.4,2.6c-0.3,0.6-0.6,1.1-1,1.4c-0.4,0.3-0.8,0.5-1.2,0.6
		c-0.4,0.1-0.7,0.1-0.9,0.1c-0.4,0-0.8-0.1-1.2-0.2c-0.4-0.1-0.8-0.4-1.1-0.8c-0.3-0.4-0.6-0.9-0.8-1.5c-0.2-0.6-0.3-1.4-0.3-2.4
		C105.7,106.4,106,105.3,106.6,104.5z"/>
	<path class="st0" d="M134.4,108.5c0-1.8-0.2-3.2-0.7-4.3c-0.5-1.1-1.1-2-1.8-2.6c-0.7-0.6-1.5-1.1-2.4-1.3
		c-0.9-0.2-1.7-0.3-2.4-0.3c-1.1,0-2.1,0.2-2.9,0.5c-0.8,0.3-1.5,0.7-2.1,1.2c-0.6,0.5-1,1-1.3,1.6c-0.3,0.6-0.6,1.2-0.8,1.8
		c-0.2,0.6-0.3,1.1-0.3,1.6c0,0.5-0.1,0.9-0.1,1.2c0,1.6,0.2,2.9,0.6,4c0.4,1.1,0.9,2,1.6,2.6c0.7,0.7,1.5,1.1,2.5,1.4
		c0.9,0.3,2,0.4,3.1,0.4c0.7,0,1.3-0.1,2-0.2c0.7-0.2,1.4-0.4,2-0.8c0.6-0.4,1.2-0.9,1.7-1.5c0.5-0.6,0.9-1.4,1.2-2.4H130
		c-0.2,0.6-0.5,1-1,1.3c-0.5,0.3-1.1,0.4-1.6,0.4c-0.8,0-1.5-0.1-1.9-0.4c-0.5-0.3-0.8-0.6-1.1-1c-0.2-0.4-0.4-0.8-0.5-1.3
		c-0.1-0.4-0.1-0.8-0.1-1.1h10.7V108.5z M123.8,106.5c0.1-1,0.4-1.8,1-2.4c0.5-0.6,1.3-0.9,2.2-0.9c0.3,0,0.7,0.1,1,0.2
		c0.4,0.1,0.7,0.3,1,0.5c0.3,0.3,0.5,0.6,0.8,1c0.2,0.4,0.4,0.9,0.4,1.6H123.8z"/>
	<path class="st0" d="M144.2,115.9v-4.1h-2.1c-0.2,0-0.4-0.1-0.6-0.3c-0.2-0.2-0.3-0.4-0.3-0.6V97.5c0-0.3-0.1-0.6-0.2-0.9
		c-0.1-0.3-0.3-0.6-0.5-0.9c-0.2-0.3-0.5-0.5-0.8-0.7c-0.3-0.2-0.7-0.3-1.1-0.3h-3.5v3.5h1.3c0.2,0,0.4,0.1,0.5,0.3
		c0.2,0.2,0.2,0.4,0.2,0.6v13c0,0.5,0.1,1,0.3,1.4c0.2,0.4,0.4,0.8,0.7,1.2c0.3,0.3,0.6,0.6,1,0.8c0.4,0.2,0.7,0.3,1.1,0.3H144.2z"
		/>
	<path class="st0" d="M177.4,115.9v-3.5h-1.5c-0.3,0-0.5-0.1-0.8-0.3c-0.3-0.2-0.4-0.4-0.4-0.7V94.8h-6.4l-3.7,14.5h-0.1l-3.8-14.5
		h-6.4v16.5c0,0.3-0.1,0.5-0.4,0.7c-0.3,0.2-0.5,0.3-0.8,0.3h-1.5v3.5h3.2c0.4,0,0.8-0.1,1.2-0.3c0.4-0.2,0.8-0.5,1.1-0.8
		c0.3-0.3,0.6-0.7,0.8-1.1c0.2-0.4,0.3-0.8,0.3-1.3V99.8h0.1l3.8,16.1h4.3l3.9-16.1h0.1v12.6c0,0.4,0.1,0.8,0.3,1.3
		c0.2,0.4,0.5,0.8,0.8,1.1c0.3,0.3,0.7,0.6,1.1,0.8c0.4,0.2,0.8,0.3,1.2,0.3H177.4z"/>
	<path class="st0" d="M192.5,115.9h3.5v-3.5H195c-0.2,0-0.4-0.1-0.6-0.3c-0.2-0.2-0.3-0.4-0.3-0.6V103c0-0.8-0.2-1.5-0.7-2
		c-0.5-0.5-1-0.7-1.7-0.7h-3.5v3.5h1c0.2,0,0.3,0.1,0.5,0.3c0.2,0.2,0.2,0.4,0.2,0.5v4.7c0,0.7-0.1,1.3-0.3,1.7s-0.5,0.8-0.8,1.1
		c-0.3,0.3-0.7,0.5-1,0.6c-0.4,0.1-0.7,0.2-1.1,0.2c-0.3,0-0.6,0-1-0.1c-0.3-0.1-0.6-0.2-0.9-0.4c-0.3-0.2-0.5-0.5-0.6-0.9
		c-0.2-0.4-0.2-0.9-0.2-1.5v-7c0-0.3,0-0.6-0.1-0.9c-0.1-0.3-0.2-0.6-0.4-0.8c-0.2-0.3-0.4-0.5-0.7-0.6c-0.3-0.2-0.6-0.3-1-0.3h-3.6
		v3.5h1c0.2,0,0.3,0.1,0.5,0.3c0.2,0.2,0.2,0.4,0.2,0.5v5.9c0,1,0.1,1.9,0.4,2.6c0.3,0.7,0.6,1.3,1.1,1.8c0.5,0.5,1,0.8,1.7,1
		c0.7,0.2,1.4,0.3,2.1,0.3c1.1,0,2.1-0.3,2.9-0.8c0.9-0.6,1.5-1.3,1.9-2.3v0.6c0,0.4,0.1,0.7,0.2,1c0.2,0.3,0.4,0.5,0.6,0.6
		c0.2,0.2,0.5,0.3,0.7,0.4C192.1,115.8,192.3,115.9,192.5,115.9z"/>
	<path class="st0" d="M213.1,112.1c-0.2-0.2-0.2-0.4-0.2-0.6v-6.4c0-0.9-0.1-1.6-0.4-2.3c-0.3-0.6-0.7-1.2-1.1-1.6
		c-0.5-0.4-1.1-0.8-1.7-1c-0.7-0.2-1.4-0.3-2.1-0.3c-0.7,0-1.4,0.1-1.9,0.3c-0.5,0.2-1,0.5-1.4,0.8c-0.4,0.3-0.7,0.6-0.9,1
		c-0.2,0.3-0.4,0.6-0.5,0.9v-0.5c0-0.2-0.1-0.5-0.2-0.7c-0.1-0.2-0.2-0.4-0.4-0.6c-0.2-0.2-0.4-0.4-0.6-0.5
		c-0.2-0.1-0.4-0.2-0.7-0.2H197v3.5h1c0.2,0,0.4,0.1,0.5,0.3c0.2,0.2,0.2,0.4,0.2,0.6v6.9c0,0.2-0.1,0.4-0.2,0.6
		c-0.2,0.2-0.3,0.3-0.5,0.3h-1v3.5h3.3c0.3,0,0.6-0.1,0.9-0.3c0.3-0.2,0.6-0.4,0.8-0.7c0.2-0.3,0.4-0.6,0.6-0.9
		c0.1-0.3,0.2-0.7,0.2-1v-6c0-1.2,0.3-2.1,0.9-2.7c0.6-0.6,1.4-0.9,2.3-0.9c0.6,0,1.1,0.1,1.5,0.3c0.4,0.2,0.6,0.5,0.8,0.8
		c0.2,0.3,0.3,0.6,0.3,1c0,0.4,0,0.7,0,1v6.5c0,0.3,0.1,0.7,0.2,1c0.1,0.4,0.3,0.7,0.6,1c0.2,0.3,0.5,0.5,0.8,0.7
		c0.3,0.2,0.6,0.3,1,0.3h3.3v-3.5h-1C213.4,112.4,213.2,112.3,213.1,112.1z"/>
	<path class="st0" d="M227.8,94.4c-0.3,0.1-0.5,0.3-0.8,0.6c-0.2,0.2-0.4,0.5-0.5,0.9c-0.1,0.4-0.2,0.8-0.2,1.2v5.1h-0.1
		c-0.4-0.8-1-1.4-1.8-1.8c-0.7-0.4-1.6-0.6-2.7-0.6c-1.2,0-2.3,0.3-3.1,0.8c-0.8,0.5-1.5,1.2-2,1.9c-0.5,0.8-0.9,1.6-1.1,2.6
		c-0.2,0.9-0.3,1.8-0.3,2.6c0,1.1,0.1,2.1,0.4,3.2c0.3,1,0.7,1.9,1.2,2.7c0.6,0.8,1.3,1.4,2.1,1.9c0.9,0.5,1.9,0.7,3.1,0.7
		c0.7,0,1.2-0.1,1.7-0.3c0.5-0.2,0.9-0.4,1.2-0.7c0.3-0.3,0.6-0.6,0.8-0.9c0.2-0.3,0.4-0.6,0.6-0.8h0.1v1.1c0,0.6,0.2,1,0.7,1.4
		c0.5,0.3,1.1,0.5,1.7,0.5h3.2V113h-0.9c-0.2,0-0.4-0.1-0.6-0.3c-0.2-0.2-0.3-0.4-0.3-0.6V98.6c0-0.2,0.1-0.4,0.3-0.6
		c0.2-0.2,0.4-0.3,0.6-0.3h0.9v-3.5h-3.5C228.4,94.2,228.1,94.3,227.8,94.4z M226,110.5c-0.3,0.6-0.6,1.1-1,1.4
		c-0.4,0.3-0.8,0.5-1.2,0.6c-0.4,0.1-0.7,0.1-0.9,0.1c-0.4,0-0.8-0.1-1.2-0.2c-0.4-0.1-0.8-0.4-1.1-0.8c-0.3-0.4-0.6-0.9-0.8-1.5
		c-0.2-0.6-0.3-1.4-0.3-2.4c0-1.4,0.3-2.5,0.8-3.3c0.6-0.8,1.4-1.2,2.7-1.2c1,0,1.8,0.4,2.4,1.1c0.7,0.8,1,1.9,1,3.5
		C226.4,109.1,226.2,109.9,226,110.5z"/>
	<path class="st0" d="M248.5,104.4c-0.4-1-1-1.9-1.8-2.5c-0.7-0.7-1.6-1.2-2.5-1.5c-1-0.3-2-0.5-3-0.5c-1.1,0-2.1,0.2-3,0.5
		c-1,0.3-1.8,0.8-2.5,1.5c-0.7,0.7-1.3,1.5-1.8,2.5s-0.7,2.2-0.7,3.6c0,1.4,0.2,2.6,0.7,3.7c0.4,1,1,1.9,1.8,2.6
		c0.7,0.7,1.6,1.2,2.5,1.5c1,0.3,2,0.5,3,0.5c1.1,0,2.1-0.2,3-0.5c1-0.3,1.8-0.8,2.5-1.5c0.7-0.7,1.3-1.5,1.8-2.6
		c0.4-1,0.7-2.3,0.7-3.7C249.2,106.7,249,105.5,248.5,104.4z M244.8,109.7c-0.1,0.6-0.3,1.1-0.5,1.5c-0.3,0.5-0.6,0.9-1.1,1.2
		c-0.5,0.3-1.1,0.5-1.9,0.5c-0.8,0-1.4-0.2-1.9-0.5c-0.5-0.3-0.9-0.7-1.1-1.2c-0.3-0.5-0.4-1-0.5-1.5c-0.1-0.6-0.1-1.1-0.1-1.6
		c0-0.5,0-1,0.1-1.6c0.1-0.6,0.3-1.1,0.5-1.5c0.3-0.5,0.6-0.9,1.1-1.2c0.5-0.3,1.1-0.5,1.9-0.5c0.8,0,1.4,0.2,1.9,0.5
		c0.5,0.3,0.9,0.7,1.1,1.2c0.3,0.5,0.4,1,0.5,1.5c0.1,0.6,0.1,1.1,0.1,1.6C245,108.6,244.9,109.1,244.8,109.7z"/>
	<path class="st0" d="M61.5,130.9c-0.3-0.2-0.7-0.4-1.2-0.6c-0.5-0.1-1-0.2-1.5-0.2c-0.6,0-1.1,0.1-1.6,0.3
		c-0.5,0.2-0.9,0.5-1.3,0.9c-0.4,0.4-0.7,0.9-0.9,1.5c-0.2,0.6-0.3,1.3-0.3,2.1c0,0.8,0.1,1.5,0.3,2c0.2,0.6,0.5,1.1,0.9,1.5
		c0.4,0.4,0.8,0.7,1.3,0.9c0.5,0.2,1.1,0.3,1.7,0.3c0.5,0,0.9-0.1,1.4-0.2c0.4-0.1,0.8-0.3,1.2-0.5c0.3-0.2,0.6-0.5,0.8-0.8
		s0.3-0.7,0.3-1v-1h-1.9v0.9c0,0.2-0.1,0.3-0.2,0.4c-0.1,0.1-0.2,0.2-0.4,0.3c-0.2,0.1-0.3,0.1-0.6,0.2c-0.2,0-0.4,0-0.6,0
		c-0.4,0-0.7-0.1-1-0.3c-0.3-0.2-0.5-0.4-0.7-0.7c-0.2-0.3-0.3-0.6-0.4-1c-0.1-0.4-0.1-0.8-0.1-1.2c0-0.6,0.1-1.2,0.2-1.6
		c0.1-0.4,0.3-0.7,0.6-1c0.2-0.2,0.5-0.4,0.7-0.5s0.5-0.1,0.7-0.1c0.5,0,0.9,0.1,1.2,0.2c0.3,0.1,0.5,0.3,0.5,0.6v1h2v-1
		c0-0.3-0.1-0.6-0.3-0.9C62.1,131.4,61.8,131.1,61.5,130.9z"/>
	<path class="st0" d="M68.8,133.4c-0.3-0.3-0.7-0.5-1.1-0.6c-0.4-0.1-0.8-0.2-1.3-0.2c-0.5,0-0.9,0.1-1.3,0.2
		c-0.4,0.1-0.8,0.4-1.1,0.6c-0.3,0.3-0.6,0.7-0.8,1.1c-0.2,0.4-0.3,1-0.3,1.6c0,0.6,0.1,1.1,0.3,1.6c0.2,0.4,0.4,0.8,0.8,1.1
		c0.3,0.3,0.7,0.5,1.1,0.6c0.4,0.1,0.8,0.2,1.3,0.2c0.5,0,0.9-0.1,1.3-0.2c0.4-0.1,0.8-0.4,1.1-0.6c0.3-0.3,0.6-0.7,0.8-1.1
		c0.2-0.4,0.3-1,0.3-1.6c0-0.6-0.1-1.1-0.3-1.6C69.4,134,69.1,133.6,68.8,133.4z M68,136.7c0,0.2-0.1,0.5-0.2,0.7s-0.3,0.4-0.5,0.5
		c-0.2,0.1-0.5,0.2-0.8,0.2c-0.3,0-0.6-0.1-0.8-0.2c-0.2-0.1-0.4-0.3-0.5-0.5s-0.2-0.4-0.2-0.7c0-0.2-0.1-0.5-0.1-0.7
		c0-0.2,0-0.4,0.1-0.7c0-0.2,0.1-0.5,0.2-0.7c0.1-0.2,0.3-0.4,0.5-0.5c0.2-0.1,0.5-0.2,0.8-0.2c0.3,0,0.6,0.1,0.8,0.2
		c0.2,0.1,0.4,0.3,0.5,0.5c0.1,0.2,0.2,0.4,0.2,0.7c0,0.2,0.1,0.5,0.1,0.7C68,136.2,68,136.4,68,136.7z"/>
	<path class="st0" d="M73,137.5c-0.1-0.1-0.1-0.2-0.1-0.3v-5.7c0-0.1,0-0.2-0.1-0.4c-0.1-0.1-0.1-0.3-0.2-0.4s-0.2-0.2-0.4-0.3
		c-0.1-0.1-0.3-0.1-0.5-0.1h-1.5v1.5h0.6c0.1,0,0.2,0,0.2,0.1c0.1,0.1,0.1,0.2,0.1,0.2v5.6c0,0.2,0,0.4,0.1,0.6
		c0.1,0.2,0.2,0.4,0.3,0.5c0.1,0.1,0.3,0.3,0.4,0.3c0.2,0.1,0.3,0.1,0.5,0.1h1.7v-1.8h-0.9C73.2,137.6,73.1,137.5,73,137.5z"/>
	<path class="st0" d="M79.8,133.2c-0.3-0.3-0.6-0.5-1-0.6c-0.4-0.1-0.7-0.1-1-0.1c-0.5,0-0.9,0.1-1.2,0.2c-0.3,0.1-0.6,0.3-0.9,0.5
		c-0.2,0.2-0.4,0.4-0.6,0.7c-0.1,0.3-0.3,0.5-0.3,0.8c-0.1,0.3-0.1,0.5-0.1,0.7c0,0.2,0,0.4,0,0.5c0,0.7,0.1,1.3,0.3,1.7
		c0.2,0.5,0.4,0.8,0.7,1.1c0.3,0.3,0.6,0.5,1.1,0.6s0.8,0.2,1.3,0.2c0.3,0,0.6,0,0.9-0.1c0.3-0.1,0.6-0.2,0.8-0.4
		c0.3-0.2,0.5-0.4,0.7-0.7c0.2-0.3,0.4-0.6,0.5-1H79c-0.1,0.2-0.2,0.4-0.4,0.5c-0.2,0.1-0.5,0.2-0.7,0.2c-0.4,0-0.6-0.1-0.8-0.2
		c-0.2-0.1-0.4-0.3-0.5-0.4c-0.1-0.2-0.2-0.4-0.2-0.5c0-0.2-0.1-0.3-0.1-0.5h4.6v-0.3c0-0.8-0.1-1.4-0.3-1.9
		C80.4,133.8,80.1,133.5,79.8,133.2z M76.4,135.3c0-0.4,0.2-0.8,0.4-1c0.2-0.2,0.5-0.4,1-0.4c0.1,0,0.3,0,0.4,0.1
		c0.2,0,0.3,0.1,0.4,0.2c0.1,0.1,0.2,0.3,0.3,0.4c0.1,0.2,0.1,0.4,0.2,0.7H76.4z"/>
	<path class="st0" d="M86.9,132.7c-0.1,0-0.2,0.1-0.4,0.2c-0.1,0.1-0.2,0.2-0.3,0.3c-0.1,0.1-0.1,0.2-0.1,0.4v0.4
		c0-0.2-0.1-0.3-0.2-0.5c-0.1-0.2-0.2-0.3-0.4-0.5s-0.4-0.3-0.6-0.3c-0.2-0.1-0.5-0.1-0.8-0.1c-0.4,0-0.7,0.1-1.1,0.2
		c-0.3,0.1-0.6,0.4-0.9,0.6c-0.3,0.3-0.5,0.6-0.6,1.1c-0.1,0.4-0.2,0.9-0.2,1.5c0,0.6,0.1,1.1,0.2,1.5c0.2,0.4,0.4,0.8,0.6,1.1
		c0.3,0.3,0.6,0.5,0.9,0.6c0.4,0.1,0.7,0.2,1.1,0.2c0.3,0,0.5,0,0.7-0.1c0.2-0.1,0.4-0.1,0.5-0.2c0.1-0.1,0.3-0.2,0.4-0.3
		c0.1-0.1,0.2-0.2,0.3-0.4l0,0v0.8c0,0.5-0.1,0.9-0.3,1.2c-0.2,0.2-0.6,0.4-1.1,0.4c-0.3,0-0.5,0-0.6-0.1c-0.2,0-0.3-0.1-0.4-0.2
		c-0.1-0.1-0.1-0.1-0.2-0.2c0-0.1-0.1-0.2-0.1-0.3h-1.9c0,0.4,0.1,0.7,0.3,0.9c0.2,0.3,0.4,0.5,0.7,0.6s0.6,0.3,0.9,0.4
		c0.3,0.1,0.7,0.1,1,0.1c0.5,0,1,0,1.4-0.1c0.4-0.1,0.7-0.2,0.9-0.4c0.3-0.2,0.4-0.3,0.6-0.6c0.1-0.2,0.2-0.4,0.3-0.7
		c0.1-0.2,0.1-0.5,0.1-0.7c0-0.2,0-0.4,0-0.6v-4.5c0-0.1,0-0.1,0.1-0.2c0.1-0.1,0.2-0.1,0.2-0.1h0.4v-1.5h-1.3
		C87.1,132.7,87,132.7,86.9,132.7z M86,136.6c0,0.2-0.1,0.4-0.2,0.6c-0.1,0.2-0.3,0.3-0.5,0.5c-0.2,0.1-0.4,0.2-0.7,0.2
		c-0.3,0-0.5-0.1-0.7-0.2c-0.2-0.1-0.3-0.3-0.4-0.4c-0.1-0.2-0.2-0.4-0.2-0.6c0-0.2-0.1-0.4-0.1-0.7c0-0.4,0-0.7,0.1-1
		c0.1-0.3,0.2-0.5,0.3-0.6c0.1-0.2,0.3-0.3,0.4-0.3c0.2-0.1,0.3-0.1,0.5-0.1c0.2,0,0.5,0.1,0.6,0.2c0.2,0.1,0.3,0.2,0.5,0.4
		c0.1,0.2,0.2,0.4,0.3,0.6c0.1,0.2,0.1,0.5,0.1,0.8C86.1,136.2,86.1,136.4,86,136.6z"/>
	<path class="st0" d="M89.5,130.1c-0.2,0.2-0.3,0.5-0.3,0.8c0,0.3,0.1,0.5,0.3,0.8c0.2,0.2,0.5,0.3,0.8,0.3c0.3,0,0.6-0.1,0.8-0.3
		c0.2-0.2,0.3-0.5,0.3-0.8c0-0.3-0.1-0.6-0.3-0.8c-0.2-0.2-0.5-0.3-0.8-0.3C90,129.8,89.7,129.9,89.5,130.1z"/>
	<path class="st0" d="M91.6,137.5c-0.1-0.1-0.1-0.1-0.1-0.2v-3.5c0-0.1,0-0.3-0.1-0.4c0-0.1-0.1-0.2-0.2-0.3
		c-0.1-0.1-0.2-0.2-0.3-0.2c-0.1-0.1-0.3-0.1-0.5-0.1H89v1.5h0.4c0.1,0,0.2,0,0.2,0.1c0.1,0.1,0.1,0.1,0.1,0.2v3.5
		c0,0.2,0,0.3,0.1,0.5c0.1,0.2,0.1,0.3,0.2,0.4c0.1,0.1,0.2,0.2,0.3,0.3c0.1,0.1,0.3,0.1,0.4,0.1h1.4v-1.8h-0.4
		C91.7,137.6,91.7,137.5,91.6,137.5z"/>
	<path class="st0" d="M98.5,133.4c-0.3-0.3-0.7-0.5-1.1-0.6c-0.4-0.1-0.8-0.2-1.3-0.2s-0.9,0.1-1.3,0.2c-0.4,0.1-0.8,0.4-1.1,0.6
		c-0.3,0.3-0.6,0.7-0.8,1.1c-0.2,0.4-0.3,1-0.3,1.6c0,0.6,0.1,1.1,0.3,1.6c0.2,0.4,0.4,0.8,0.8,1.1c0.3,0.3,0.7,0.5,1.1,0.6
		c0.4,0.1,0.8,0.2,1.3,0.2s0.9-0.1,1.3-0.2c0.4-0.1,0.8-0.4,1.1-0.6c0.3-0.3,0.6-0.7,0.8-1.1c0.2-0.4,0.3-1,0.3-1.6
		c0-0.6-0.1-1.1-0.3-1.6C99,134,98.8,133.6,98.5,133.4z M97.6,136.7c0,0.2-0.1,0.5-0.2,0.7c-0.1,0.2-0.3,0.4-0.5,0.5
		c-0.2,0.1-0.5,0.2-0.8,0.2c-0.3,0-0.6-0.1-0.8-0.2c-0.2-0.1-0.4-0.3-0.5-0.5c-0.1-0.2-0.2-0.4-0.2-0.7c0-0.2-0.1-0.5-0.1-0.7
		c0-0.2,0-0.4,0.1-0.7c0-0.2,0.1-0.5,0.2-0.7c0.1-0.2,0.3-0.4,0.5-0.5c0.2-0.1,0.5-0.2,0.8-0.2c0.3,0,0.6,0.1,0.8,0.2
		c0.2,0.1,0.4,0.3,0.5,0.5c0.1,0.2,0.2,0.4,0.2,0.7c0,0.2,0.1,0.5,0.1,0.7C97.7,136.2,97.7,136.4,97.6,136.7z"/>
	<path class="st0" d="M110.2,131.1c-0.2-0.3-0.5-0.4-0.9-0.6c-0.3-0.1-0.7-0.2-1.2-0.2h-5v1.6h0.6c0.1,0,0.3,0.1,0.4,0.2
		c0.1,0.1,0.2,0.3,0.2,0.4v4.8c0,0.1-0.1,0.2-0.2,0.3c-0.1,0.1-0.2,0.2-0.3,0.2h-0.6v1.5h1.3c0.2,0,0.4-0.1,0.6-0.2
		c0.2-0.1,0.4-0.2,0.5-0.4c0.2-0.2,0.3-0.4,0.4-0.6c0.1-0.2,0.2-0.4,0.2-0.6v-1.5h1.9c0.6,0,1.1-0.1,1.5-0.3
		c0.4-0.2,0.7-0.5,0.9-0.8c0.2-0.3,0.3-0.6,0.4-1c0.1-0.3,0.1-0.6,0.1-0.8c0-0.4-0.1-0.8-0.2-1.2
		C110.6,131.7,110.4,131.4,110.2,131.1z M109,133.5c0,0.2-0.1,0.3-0.2,0.5c-0.1,0.2-0.2,0.3-0.4,0.4c-0.2,0.1-0.5,0.2-0.8,0.2h-1.5
		v-2.6h1.2c0.6,0,1,0.1,1.3,0.3c0.3,0.2,0.4,0.5,0.4,1C109,133.2,109,133.4,109,133.5z"/>
	<path class="st0" d="M116.5,133.2c-0.3-0.3-0.6-0.5-1-0.6c-0.4-0.1-0.7-0.1-1-0.1c-0.5,0-0.9,0.1-1.2,0.2c-0.3,0.1-0.6,0.3-0.9,0.5
		c-0.2,0.2-0.4,0.4-0.6,0.7c-0.1,0.3-0.2,0.5-0.3,0.8c-0.1,0.3-0.1,0.5-0.1,0.7c0,0.2,0,0.4,0,0.5c0,0.7,0.1,1.3,0.3,1.7
		c0.2,0.5,0.4,0.8,0.7,1.1c0.3,0.3,0.6,0.5,1.1,0.6s0.8,0.2,1.3,0.2c0.3,0,0.6,0,0.9-0.1c0.3-0.1,0.6-0.2,0.8-0.4
		c0.3-0.2,0.5-0.4,0.7-0.7c0.2-0.3,0.4-0.6,0.5-1h-1.8c-0.1,0.2-0.2,0.4-0.4,0.5c-0.2,0.1-0.5,0.2-0.7,0.2c-0.4,0-0.6-0.1-0.8-0.2
		c-0.2-0.1-0.4-0.3-0.5-0.4c-0.1-0.2-0.2-0.4-0.2-0.5c0-0.2-0.1-0.3-0.1-0.5h4.6v-0.3c0-0.8-0.1-1.4-0.3-1.9
		C117.1,133.8,116.8,133.5,116.5,133.2z M113.1,135.3c0-0.4,0.2-0.8,0.4-1c0.2-0.2,0.5-0.4,1-0.4c0.1,0,0.3,0,0.4,0.1
		c0.1,0,0.3,0.1,0.4,0.2c0.1,0.1,0.2,0.3,0.3,0.4c0.1,0.2,0.2,0.4,0.2,0.7H113.1z"/>
	<path class="st0" d="M122.3,132.5c-0.3,0-0.5,0-0.7,0.1c-0.2,0.1-0.4,0.2-0.5,0.3c-0.1,0.1-0.3,0.3-0.4,0.4
		c-0.1,0.2-0.2,0.3-0.3,0.5h0v-0.2c0-0.1,0-0.2-0.1-0.3c-0.1-0.1-0.2-0.2-0.3-0.3c-0.1-0.1-0.2-0.2-0.4-0.2c-0.1,0-0.3-0.1-0.4-0.1
		h-1.4v1.5h0.4c0.1,0,0.2,0,0.2,0.1c0.1,0.1,0.1,0.1,0.1,0.2v4.8h1.8v-3.5c0-0.2,0-0.4,0.1-0.6c0-0.2,0.1-0.4,0.2-0.5
		c0.1-0.2,0.3-0.3,0.5-0.4c0.2-0.1,0.5-0.1,0.8-0.1c0.1,0,0.2,0,0.3,0c0.1,0,0.2,0,0.2,0v-1.8c-0.1,0-0.1,0-0.2,0
		C122.5,132.5,122.4,132.5,122.3,132.5z"/>
	<path class="st0" d="M129.9,137.7c-0.1-0.1-0.1-0.2-0.1-0.3v-3.6c0-0.4-0.1-0.6-0.3-0.8c-0.2-0.2-0.4-0.3-0.7-0.3h-1.5v1.5h0.4
		c0.1,0,0.1,0,0.2,0.1c0.1,0.1,0.1,0.2,0.1,0.2v2c0,0.3,0,0.5-0.1,0.7s-0.2,0.3-0.3,0.5c-0.1,0.1-0.3,0.2-0.4,0.2
		c-0.2,0-0.3,0.1-0.5,0.1c-0.1,0-0.3,0-0.4,0s-0.3-0.1-0.4-0.2c-0.1-0.1-0.2-0.2-0.3-0.4c-0.1-0.2-0.1-0.4-0.1-0.6v-3
		c0-0.1,0-0.3-0.1-0.4c0-0.1-0.1-0.2-0.2-0.4c-0.1-0.1-0.2-0.2-0.3-0.3c-0.1-0.1-0.3-0.1-0.4-0.1h-1.5v1.5h0.4c0.1,0,0.1,0,0.2,0.1
		s0.1,0.2,0.1,0.2v2.5c0,0.4,0.1,0.8,0.2,1.1c0.1,0.3,0.3,0.6,0.5,0.8c0.2,0.2,0.4,0.3,0.7,0.4c0.3,0.1,0.6,0.1,0.9,0.1
		c0.5,0,0.9-0.1,1.3-0.4c0.4-0.2,0.6-0.6,0.8-1v0.3c0,0.2,0,0.3,0.1,0.4s0.2,0.2,0.3,0.3c0.1,0.1,0.2,0.1,0.3,0.2c0.1,0,0.2,0,0.3,0
		h1.5v-1.5h-0.4C130.1,137.8,130,137.8,129.9,137.7z"/>
	<path class="st0" d="M138.1,137.7c-0.1-0.1-0.1-0.1-0.1-0.2v-4.8h-1.6v0.6c-0.1-0.1-0.2-0.2-0.4-0.3c-0.1-0.1-0.3-0.2-0.5-0.3
		c-0.2-0.1-0.3-0.1-0.5-0.2c-0.2,0-0.4-0.1-0.5-0.1c-0.5,0-0.9,0.1-1.3,0.2c-0.4,0.1-0.8,0.4-1.1,0.6c-0.3,0.3-0.6,0.7-0.8,1.1
		c-0.2,0.4-0.3,1-0.3,1.6c0,0.6,0.1,1.1,0.2,1.6c0.2,0.4,0.4,0.8,0.7,1.1c0.3,0.3,0.6,0.5,1,0.6c0.4,0.1,0.8,0.2,1.3,0.2
		c0.4,0,0.9-0.1,1.2-0.3c0.4-0.2,0.7-0.5,0.9-0.9v0.2c0,0.1,0,0.2,0.1,0.3c0.1,0.1,0.1,0.2,0.2,0.3c0.1,0.1,0.2,0.1,0.3,0.2
		c0.1,0,0.2,0.1,0.3,0.1h1.5v-1.5h-0.5C138.2,137.8,138.1,137.8,138.1,137.7z M136,136.7c0,0.2-0.1,0.5-0.2,0.7s-0.3,0.4-0.5,0.5
		c-0.2,0.1-0.5,0.2-0.8,0.2c-0.3,0-0.6-0.1-0.8-0.2c-0.2-0.1-0.4-0.3-0.5-0.5s-0.2-0.4-0.2-0.7c0-0.2-0.1-0.5-0.1-0.7
		c0-0.2,0-0.4,0.1-0.7c0-0.2,0.1-0.5,0.2-0.7c0.1-0.2,0.3-0.4,0.5-0.5c0.2-0.1,0.5-0.2,0.8-0.2c0.3,0,0.6,0.1,0.8,0.2
		c0.2,0.1,0.4,0.3,0.5,0.5c0.1,0.2,0.2,0.4,0.2,0.7c0,0.2,0.1,0.5,0.1,0.7C136.1,136.2,136.1,136.4,136,136.7z"/>
	<path class="st0" d="M146.2,137.7c-0.1-0.1-0.1-0.2-0.1-0.3v-2.7c0-0.4-0.1-0.7-0.2-1c-0.1-0.3-0.3-0.5-0.5-0.7
		c-0.2-0.2-0.4-0.3-0.7-0.4c-0.3-0.1-0.6-0.1-0.9-0.1c-0.3,0-0.6,0-0.8,0.1c-0.2,0.1-0.4,0.2-0.6,0.3c-0.2,0.1-0.3,0.3-0.4,0.4
		c-0.1,0.1-0.2,0.3-0.2,0.4v-0.2c0-0.1,0-0.2-0.1-0.3c0-0.1-0.1-0.2-0.2-0.3c-0.1-0.1-0.2-0.2-0.2-0.2c-0.1-0.1-0.2-0.1-0.3-0.1
		h-1.6v1.5h0.4c0.1,0,0.2,0,0.2,0.1c0.1,0.1,0.1,0.2,0.1,0.3v2.9c0,0.1,0,0.2-0.1,0.2c-0.1,0.1-0.1,0.1-0.2,0.1h-0.4v1.5h1.4
		c0.1,0,0.3,0,0.4-0.1c0.1-0.1,0.3-0.2,0.4-0.3c0.1-0.1,0.2-0.3,0.3-0.4c0.1-0.1,0.1-0.3,0.1-0.4v-2.6c0-0.5,0.1-0.9,0.4-1.2
		c0.3-0.3,0.6-0.4,1-0.4c0.3,0,0.5,0,0.6,0.1c0.2,0.1,0.3,0.2,0.3,0.3c0.1,0.1,0.1,0.3,0.1,0.4c0,0.1,0,0.3,0,0.4v2.8
		c0,0.1,0,0.3,0.1,0.4c0.1,0.2,0.1,0.3,0.2,0.4c0.1,0.1,0.2,0.2,0.3,0.3c0.1,0.1,0.3,0.1,0.4,0.1h1.4v-1.5h-0.4
		C146.3,137.8,146.3,137.8,146.2,137.7z"/>
	<path class="st0" d="M153.1,133.4c-0.3-0.3-0.7-0.5-1.1-0.6c-0.4-0.1-0.8-0.2-1.3-0.2c-0.5,0-0.9,0.1-1.3,0.2
		c-0.4,0.1-0.8,0.4-1.1,0.6c-0.3,0.3-0.6,0.7-0.8,1.1c-0.2,0.4-0.3,1-0.3,1.6c0,0.6,0.1,1.1,0.3,1.6c0.2,0.4,0.4,0.8,0.8,1.1
		c0.3,0.3,0.7,0.5,1.1,0.6c0.4,0.1,0.8,0.2,1.3,0.2c0.5,0,0.9-0.1,1.3-0.2c0.4-0.1,0.8-0.4,1.1-0.6c0.3-0.3,0.6-0.7,0.8-1.1
		c0.2-0.4,0.3-1,0.3-1.6c0-0.6-0.1-1.1-0.3-1.6C153.7,134,153.4,133.6,153.1,133.4z M152.3,136.7c0,0.2-0.1,0.5-0.2,0.7
		s-0.3,0.4-0.5,0.5c-0.2,0.1-0.5,0.2-0.8,0.2c-0.3,0-0.6-0.1-0.8-0.2c-0.2-0.1-0.4-0.3-0.5-0.5s-0.2-0.4-0.2-0.7
		c0-0.2-0.1-0.5-0.1-0.7c0-0.2,0-0.4,0.1-0.7c0-0.2,0.1-0.5,0.2-0.7c0.1-0.2,0.3-0.4,0.5-0.5c0.2-0.1,0.5-0.2,0.8-0.2
		c0.3,0,0.6,0.1,0.8,0.2c0.2,0.1,0.4,0.3,0.5,0.5c0.1,0.2,0.2,0.4,0.2,0.7c0,0.2,0.1,0.5,0.1,0.7
		C152.3,136.2,152.3,136.4,152.3,136.7z"/>
	<rect x="154.7" y="135" class="st0" width="3.5" height="1.6"/>
	<path class="st0" d="M167.5,137.7c-0.1-0.1-0.2-0.2-0.3-0.3l-2.5-7h-2.3l-2.4,7.1c0,0.1-0.1,0.2-0.2,0.3c-0.1,0.1-0.3,0.1-0.4,0.1
		h-0.7v1.5h1.5c0.4,0,0.7-0.1,0.9-0.3c0.3-0.2,0.4-0.5,0.5-0.8l0.2-0.7h3.3l0.2,0.7c0.1,0.3,0.3,0.6,0.5,0.8
		c0.3,0.2,0.6,0.3,0.9,0.3h1.5v-1.5h-0.6C167.7,137.8,167.6,137.8,167.5,137.7z M162.5,135.9l1.2-3.6h0l1.1,3.6H162.5z"/>
	<path class="st0" d="M171.6,137.5c-0.1-0.1-0.1-0.2-0.1-0.3v-5.7c0-0.1,0-0.2-0.1-0.4c0-0.1-0.1-0.3-0.2-0.4
		c-0.1-0.1-0.2-0.2-0.4-0.3c-0.1-0.1-0.3-0.1-0.5-0.1h-1.5v1.5h0.6c0.1,0,0.2,0,0.2,0.1c0.1,0.1,0.1,0.2,0.1,0.2v5.6
		c0,0.2,0,0.4,0.1,0.6c0.1,0.2,0.2,0.4,0.3,0.5c0.1,0.1,0.3,0.3,0.4,0.3c0.2,0.1,0.3,0.1,0.5,0.1h1.7v-1.8h-0.9
		C171.7,137.6,171.6,137.5,171.6,137.5z"/>
	<path class="st0" d="M178.4,133.2c-0.3-0.3-0.6-0.5-1-0.6c-0.4-0.1-0.7-0.1-1-0.1c-0.5,0-0.9,0.1-1.2,0.2c-0.3,0.1-0.6,0.3-0.9,0.5
		c-0.2,0.2-0.4,0.4-0.6,0.7c-0.1,0.3-0.3,0.5-0.3,0.8c-0.1,0.3-0.1,0.5-0.1,0.7c0,0.2,0,0.4,0,0.5c0,0.7,0.1,1.3,0.3,1.7
		c0.2,0.5,0.4,0.8,0.7,1.1c0.3,0.3,0.6,0.5,1.1,0.6s0.8,0.2,1.3,0.2c0.3,0,0.6,0,0.9-0.1c0.3-0.1,0.6-0.2,0.8-0.4
		c0.3-0.2,0.5-0.4,0.7-0.7c0.2-0.3,0.4-0.6,0.5-1h-1.8c-0.1,0.2-0.2,0.4-0.4,0.5c-0.2,0.1-0.5,0.2-0.7,0.2c-0.4,0-0.6-0.1-0.8-0.2
		c-0.2-0.1-0.4-0.3-0.5-0.4c-0.1-0.2-0.2-0.4-0.2-0.5c0-0.2-0.1-0.3-0.1-0.5h4.6v-0.3c0-0.8-0.1-1.4-0.3-1.9
		C178.9,133.8,178.7,133.5,178.4,133.2z M174.9,135.3c0-0.4,0.2-0.8,0.4-1c0.2-0.2,0.5-0.4,1-0.4c0.1,0,0.3,0,0.4,0.1
		c0.1,0,0.3,0.1,0.4,0.2c0.1,0.1,0.2,0.3,0.3,0.4c0.1,0.2,0.1,0.4,0.2,0.7H174.9z"/>
	<path class="st0" d="M190.4,137.7c-0.1-0.1-0.1-0.1-0.1-0.2v-2.8c0-0.4-0.1-0.7-0.2-1c-0.1-0.3-0.3-0.5-0.5-0.7
		c-0.2-0.2-0.4-0.3-0.7-0.4c-0.3-0.1-0.6-0.1-0.9-0.1c-0.3,0-0.5,0-0.7,0.1c-0.2,0.1-0.4,0.2-0.5,0.3c-0.1,0.1-0.3,0.2-0.4,0.4
		c-0.1,0.1-0.2,0.2-0.2,0.3c-0.1-0.2-0.2-0.3-0.3-0.5c-0.1-0.1-0.2-0.2-0.4-0.3c-0.1-0.1-0.3-0.2-0.5-0.2c-0.2,0-0.4-0.1-0.6-0.1
		c-0.3,0-0.5,0-0.8,0.1c-0.2,0.1-0.4,0.2-0.6,0.3c-0.2,0.1-0.3,0.3-0.4,0.4c-0.1,0.2-0.2,0.3-0.2,0.4v-0.3c0-0.1,0-0.2-0.1-0.3
		c-0.1-0.1-0.1-0.2-0.2-0.3c-0.1-0.1-0.2-0.1-0.3-0.2c-0.1,0-0.2-0.1-0.3-0.1H180v1.5h0.4c0.1,0,0.2,0,0.2,0.1
		c0.1,0.1,0.1,0.2,0.1,0.2v3c0,0.1,0,0.1-0.1,0.2c-0.1,0.1-0.1,0.1-0.2,0.1H180v1.5h1.2c0.1,0,0.3,0,0.4-0.1
		c0.2-0.1,0.3-0.2,0.4-0.3c0.1-0.1,0.2-0.2,0.3-0.4c0.1-0.1,0.1-0.3,0.1-0.4v-2.9c0-0.2,0-0.4,0.1-0.5c0-0.2,0.1-0.3,0.2-0.4
		s0.2-0.2,0.3-0.3c0.1-0.1,0.3-0.1,0.5-0.1c0.3,0,0.5,0,0.6,0.1c0.1,0.1,0.2,0.2,0.3,0.3c0.1,0.1,0.1,0.3,0.1,0.4c0,0.2,0,0.3,0,0.5
		v4h1.8v-4c0-0.4,0.1-0.7,0.3-1c0.2-0.3,0.5-0.4,0.9-0.4c0.3,0,0.5,0.1,0.7,0.3s0.3,0.5,0.3,1v2.8c0,0.1,0,0.3,0.1,0.4
		s0.2,0.3,0.3,0.4c0.1,0.1,0.2,0.2,0.4,0.3s0.3,0.1,0.4,0.1h1.3v-1.5h-0.5C190.5,137.8,190.5,137.8,190.4,137.7z"/>
	<path class="st0" d="M198.5,137.7c-0.1-0.1-0.1-0.1-0.1-0.2v-4.8h-1.6v0.6c-0.1-0.1-0.2-0.2-0.4-0.3c-0.1-0.1-0.3-0.2-0.5-0.3
		c-0.2-0.1-0.3-0.1-0.5-0.2c-0.2,0-0.4-0.1-0.5-0.1c-0.5,0-0.9,0.1-1.3,0.2c-0.4,0.1-0.8,0.4-1.1,0.6s-0.6,0.7-0.8,1.1
		c-0.2,0.4-0.3,1-0.3,1.6c0,0.6,0.1,1.1,0.2,1.6c0.2,0.4,0.4,0.8,0.7,1.1c0.3,0.3,0.6,0.5,1,0.6c0.4,0.1,0.8,0.2,1.3,0.2
		c0.4,0,0.9-0.1,1.2-0.3c0.4-0.2,0.7-0.5,0.9-0.9v0.2c0,0.1,0,0.2,0.1,0.3c0.1,0.1,0.1,0.2,0.2,0.3c0.1,0.1,0.2,0.1,0.3,0.2
		c0.1,0,0.2,0.1,0.3,0.1h1.5v-1.5h-0.5C198.7,137.8,198.6,137.8,198.5,137.7z M196.5,136.7c0,0.2-0.1,0.5-0.2,0.7
		c-0.1,0.2-0.3,0.4-0.5,0.5c-0.2,0.1-0.5,0.2-0.8,0.2c-0.3,0-0.6-0.1-0.8-0.2c-0.2-0.1-0.4-0.3-0.5-0.5c-0.1-0.2-0.2-0.4-0.2-0.7
		c0-0.2-0.1-0.5-0.1-0.7c0-0.2,0-0.4,0.1-0.7c0-0.2,0.1-0.5,0.2-0.7c0.1-0.2,0.3-0.4,0.5-0.5c0.2-0.1,0.5-0.2,0.8-0.2
		c0.3,0,0.6,0.1,0.8,0.2c0.2,0.1,0.4,0.3,0.5,0.5c0.1,0.2,0.2,0.4,0.2,0.7c0,0.2,0.1,0.5,0.1,0.7
		C196.6,136.2,196.5,136.4,196.5,136.7z"/>
	<polygon class="st0" points="194.1,131.8 195.3,131.8 197.2,129.9 195.3,129.9 	"/>
	<path class="st0" d="M206.6,137.7c-0.1-0.1-0.1-0.2-0.1-0.3v-2.7c0-0.4-0.1-0.7-0.2-1c-0.1-0.3-0.3-0.5-0.5-0.7
		c-0.2-0.2-0.4-0.3-0.7-0.4c-0.3-0.1-0.6-0.1-0.9-0.1c-0.3,0-0.6,0-0.8,0.1c-0.2,0.1-0.4,0.2-0.6,0.3c-0.2,0.1-0.3,0.3-0.4,0.4
		c-0.1,0.1-0.2,0.3-0.2,0.4v-0.2c0-0.1,0-0.2-0.1-0.3c0-0.1-0.1-0.2-0.2-0.3c-0.1-0.1-0.2-0.2-0.3-0.2c-0.1-0.1-0.2-0.1-0.3-0.1
		h-1.6v1.5h0.4c0.1,0,0.2,0,0.2,0.1c0.1,0.1,0.1,0.2,0.1,0.3v2.9c0,0.1,0,0.2-0.1,0.2c-0.1,0.1-0.1,0.1-0.2,0.1h-0.4v1.5h1.4
		c0.1,0,0.3,0,0.4-0.1s0.3-0.2,0.4-0.3c0.1-0.1,0.2-0.3,0.2-0.4c0.1-0.1,0.1-0.3,0.1-0.4v-2.6c0-0.5,0.1-0.9,0.4-1.2
		c0.3-0.3,0.6-0.4,1-0.4c0.3,0,0.5,0,0.6,0.1c0.2,0.1,0.3,0.2,0.3,0.3c0.1,0.1,0.1,0.3,0.1,0.4c0,0.1,0,0.3,0,0.4v2.8
		c0,0.1,0,0.3,0.1,0.4c0.1,0.2,0.1,0.3,0.2,0.4c0.1,0.1,0.2,0.2,0.3,0.3s0.3,0.1,0.4,0.1h1.4v-1.5h-0.4
		C206.7,137.8,206.6,137.8,206.6,137.7z"/>
	<path class="st0" d="M130.5,86.9c0,0,28.6-12.8,28.6-28.6v-3.5V22.6h-20.4H122h-20.1v32.1v3.5C101.9,74.1,130.5,86.9,130.5,86.9z
		 M106.8,54.8V29.9v-2.3h2.3H152h2.3v2.3v24.9v2.6c0,13.2-21.9,23.1-22.8,23.5l-0.9,0.4l-0.9-0.4c-0.9-0.4-22.8-10.4-22.8-23.5V54.8
		z"/>
	<polygon class="st0" points="120,8 102,8 102,12.9 120,12.9 	"/>
	<polygon class="st0" points="120,15.3 102,15.3 102,20.2 120,20.2 	"/>
	<polygon class="st0" points="139.6,15.3 121.5,15.3 121.5,20.2 139.6,20.2 	"/>
	<polygon class="st0" points="159.1,8 141.1,8 141.1,12.9 159.1,12.9 	"/>
	<polygon class="st0" points="159.1,15.3 141.1,15.3 141.1,20.2 159.1,20.2 	"/>
	<path class="st0" d="M130.5,78.9c0,0,21.4-9.6,21.4-21.4v-2.6V29.9h-42.9v24.9v2.6C109.1,69.3,130.5,78.9,130.5,78.9z M113,46.1
		c0.5-2-0.9-5.4,3.1-5.2c2.5,0.1,5.2,1.7,7.2,3.6c0.7-1.2,1.6-2.1,2.8-2.5c-1.1-2.3-1.8-5-1.3-7.3c0.8-3.9,3.7-1.7,5.8-1.7
		c2.1,0,5-2.2,5.8,1.7c0.4,2.2-0.2,4.8-1.3,7.1c1.2,0.4,2.3,1.2,3,2.4c1.9-1.7,4.5-3.2,6.9-3.3c4-0.2,2.5,3.1,3.1,5.2
		c0.5,2,3.4,4.3-0.2,6c-2.5,1.2-6.1,1-8.9,0.1c-0.2,1-0.5,1.9-0.9,2.8c2.8,1.1,5.9,3.3,7.1,6c1.6,3.6-2,3.5-3.7,4.7
		c-1.7,1.2-2.8,4.7-5.7,2c-2.2-2.1-3.3-6-3.3-9.1h-0.2H130h-1.3c0,3-1.1,6.9-3.3,9.1c-2.9,2.7-4-0.8-5.7-2c-1.7-1.2-5.4-1.1-3.7-4.7
		c1.3-2.8,4.7-5.1,7.5-6.2c-0.4-0.9-0.7-1.8-0.9-2.8c-2.8,1-6.7,1.4-9.4,0.1C109.6,50.4,112.5,48.1,113,46.1z"/>
	<path class="st0" d="M124.9,55.4c0.2,0.3,0,1.1-0.2,1.6c-0.1,0.3,0.1,0.5,0.5,0.5h3c-0.6-1.1-2.2-6-2.2-8.5c0-3.2,1.2-4,2.5-4
		c1.3,0,1.6,1.1,1.6,2.3c0,1.7-0.7,6.2-0.7,10.1h2.8c0-4.5-0.7-8.4-0.7-10.1c0-1.2,0.3-2.3,1.6-2.3c1.3,0,2.5,0.8,2.5,4
		c0,2.4-1.6,7.4-2.2,8.5h3c0.4,0,0.6-0.3,0.5-0.5c-0.2-0.5-0.4-1.3-0.2-1.6c0,0,0,0,0,0c1-1.8,1.6-4.3,1.6-6.3
		c0-3.7-1.9-6.5-4.8-6.5c-0.2-0.9-1.3-1.6-2.7-1.6c-1.5,0-2.7,0.8-2.8,1.7c-3.1,0-4.8,2.7-4.8,6.4C123.3,51.1,123.9,53.6,124.9,55.4
		L124.9,55.4z"/>
	<polygon class="st0" points="130.3,40.4 131.3,40.4 131.3,38.1 132.9,38.1 132.9,37.1 131.3,37.1 131.3,35.8 130.3,35.8 
		130.3,37.1 128.7,37.1 128.7,38.1 130.3,38.1 	"/>
</g>
</svg>
