<?xml version="1.0" encoding="utf-8"?>
<!-- Generator: Adobe Illustrator 19.2.1, SVG Export Plug-In . SVG Version: 6.00 Build 0)  -->
<svg version="1.1" id="Capa_1" xmlns="http://www.w3.org/2000/svg" xmlns:xlink="http://www.w3.org/1999/xlink" x="0px" y="0px"
	 viewBox="0 0 284.5 179" style="enable-background:new 0 0 284.5 179;" xml:space="preserve">
<style type="text/css">
	.st0{fill:#222220;}
	.st1{fill:#E9B620;}
	.st2{fill:#C52D34;}
</style>
<g>
	<g>
		<path class="st0" d="M31.2,128.4H34v3.9h-2.7c-0.5,0-1-0.1-1.4-0.3c-0.5-0.2-0.9-0.4-1.3-0.7c-0.4-0.3-0.8-0.6-1.1-0.9
			c-0.3-0.3-0.6-0.7-0.8-1l-4.5-6.3h-2.5v5.5c0,0.4-0.1,0.9-0.3,1.3c-0.2,0.4-0.5,0.8-0.8,1.2c-0.3,0.3-0.7,0.6-1.1,0.8
			c-0.4,0.2-0.8,0.3-1.3,0.3H12v-3.9h1.8c0.3,0,0.5-0.1,0.8-0.3c0.3-0.2,0.4-0.5,0.4-0.7v-12.7c0-0.4-0.2-0.7-0.5-1.1
			c-0.3-0.4-0.7-0.6-1-0.6H12v-4h12.4c1.6,0,2.8,0.2,3.8,0.7c1,0.5,1.7,1.1,2.2,1.8c0.5,0.7,0.9,1.4,1.1,2.2s0.3,1.4,0.3,1.9
			c0,0.6-0.1,1.3-0.2,2c-0.1,0.7-0.3,1.4-0.7,2c-0.3,0.7-0.8,1.2-1.4,1.7c-0.6,0.5-1.5,0.9-2.5,1.2L31.2,128.4z M23.2,119.3
			c1.3,0,2.2-0.2,2.8-0.7c0.6-0.5,0.9-1.3,0.9-2.5c0-0.3,0-0.6-0.1-1c-0.1-0.4-0.3-0.7-0.5-1c-0.2-0.3-0.6-0.6-1-0.8
			c-0.4-0.2-1-0.3-1.7-0.3h-3.8v6.2H23.2z"/>
		<path class="st0" d="M51.2,127.2c-0.3,1-0.7,1.9-1.3,2.6s-1.2,1.3-1.9,1.7c-0.7,0.4-1.4,0.7-2.2,0.9c-0.8,0.2-1.5,0.3-2.3,0.3
			c-1.2,0-2.3-0.2-3.4-0.5c-1.1-0.3-2-0.8-2.7-1.6c-0.8-0.7-1.4-1.7-1.8-2.9c-0.4-1.2-0.7-2.7-0.7-4.5c0-0.3,0-0.8,0.1-1.4
			c0.1-0.6,0.2-1.2,0.4-1.8c0.2-0.6,0.5-1.3,0.8-2c0.4-0.7,0.9-1.3,1.5-1.8c0.6-0.5,1.4-1,2.3-1.3c0.9-0.3,2-0.5,3.2-0.5
			c0.8,0,1.7,0.1,2.7,0.4c1,0.2,1.8,0.7,2.6,1.4c0.8,0.7,1.5,1.7,2,2.9c0.5,1.2,0.8,2.8,0.8,4.8v0.8H39.6c0,0.3,0.1,0.7,0.2,1.2
			c0.1,0.5,0.3,0.9,0.5,1.4c0.3,0.5,0.7,0.8,1.2,1.2c0.5,0.3,1.3,0.5,2.2,0.5c0.6,0,1.2-0.2,1.8-0.5c0.6-0.3,0.9-0.8,1.1-1.4H51.2z
			 M46.8,122c-0.1-0.7-0.2-1.3-0.5-1.7c-0.2-0.5-0.5-0.8-0.8-1.1c-0.3-0.3-0.7-0.5-1.1-0.6c-0.4-0.1-0.8-0.2-1.1-0.2
			c-1.1,0-1.9,0.3-2.5,1c-0.6,0.6-0.9,1.5-1.1,2.7H46.8z"/>
		<path class="st0" d="M54.1,119.8c0-0.2-0.1-0.4-0.3-0.6c-0.2-0.2-0.4-0.3-0.6-0.3h-1.1V115h3.7c0.5,0,0.9,0.1,1.2,0.2
			c0.3,0.2,0.6,0.4,0.9,0.6c0.2,0.3,0.4,0.6,0.5,0.9c0.1,0.3,0.2,0.7,0.2,1v9.2c0,0.2,0.1,0.4,0.3,0.5c0.2,0.2,0.4,0.3,0.5,0.3h1.1
			v4.5h-3.7c-0.3,0-0.7-0.1-1-0.3c-0.3-0.2-0.6-0.5-0.9-0.8c-0.3-0.3-0.5-0.7-0.6-1.1c-0.2-0.4-0.2-0.8-0.2-1.2V119.8z M52.7,110.3
			c0-0.8,0.3-1.4,0.8-2c0.5-0.5,1.2-0.8,1.9-0.8c0.8,0,1.4,0.3,2,0.8c0.5,0.5,0.8,1.2,0.8,2c0,0.8-0.3,1.4-0.8,1.9
			c-0.5,0.5-1.2,0.8-2,0.8c-0.8,0-1.4-0.3-1.9-0.8C53,111.7,52.7,111,52.7,110.3z"/>
		<path class="st0" d="M63.6,119.9c0-0.2-0.1-0.4-0.3-0.7c-0.2-0.2-0.4-0.3-0.6-0.3h-1.1V115h4.3c0.3,0,0.5,0.1,0.7,0.2
			c0.2,0.1,0.5,0.3,0.6,0.5c0.2,0.2,0.4,0.5,0.5,0.7c0.1,0.3,0.2,0.5,0.2,0.8v0.6c0.1-0.3,0.3-0.6,0.6-1c0.3-0.4,0.6-0.7,1-1.1
			c0.4-0.3,0.9-0.6,1.5-0.9c0.6-0.2,1.3-0.4,2.1-0.4c0.8,0,1.6,0.1,2.4,0.4c0.7,0.2,1.4,0.6,1.9,1.1c0.5,0.5,1,1.1,1.3,1.8
			c0.3,0.7,0.5,1.5,0.5,2.5v7.1c0,0.2,0.1,0.4,0.3,0.6c0.2,0.2,0.4,0.3,0.6,0.3h1.1v3.9h-3.7c-0.4,0-0.7-0.1-1.1-0.3
			c-0.3-0.2-0.6-0.5-0.9-0.8c-0.3-0.3-0.5-0.7-0.6-1.1c-0.2-0.4-0.2-0.8-0.2-1.1v-7.2c0-0.3,0-0.7,0-1.1c0-0.4-0.1-0.8-0.3-1.1
			c-0.2-0.3-0.5-0.6-0.9-0.9c-0.4-0.2-1-0.4-1.7-0.4c-1,0-1.9,0.3-2.6,1c-0.7,0.7-1,1.7-1,3v6.7c0,0.4-0.1,0.7-0.2,1.1
			c-0.2,0.4-0.4,0.7-0.6,1c-0.3,0.3-0.6,0.6-0.9,0.8c-0.3,0.2-0.7,0.3-1,0.3h-3.6v-3.9h1.1c0.2,0,0.4-0.1,0.6-0.3
			c0.2-0.2,0.3-0.4,0.3-0.6V119.9z"/>
		<path class="st0" d="M100,127.6c0,0.2,0.1,0.4,0.2,0.6c0.2,0.2,0.3,0.3,0.5,0.3h1.2v3.9h-3.9c-0.2,0-0.5-0.1-0.7-0.2
			c-0.3-0.1-0.5-0.3-0.7-0.5c-0.2-0.2-0.4-0.4-0.6-0.7c-0.2-0.3-0.2-0.6-0.2-0.9v-0.5c-0.5,1-1.3,1.7-2.2,2.3c-1,0.6-2,0.8-3.2,0.8
			c-1.2,0-2.3-0.2-3.2-0.5c-1-0.4-1.9-0.9-2.6-1.7c-0.7-0.7-1.3-1.7-1.8-2.8c-0.4-1.1-0.6-2.5-0.6-4.1c0-1.6,0.2-2.9,0.7-4
			c0.5-1.1,1.1-2.1,1.9-2.8c0.8-0.7,1.7-1.3,2.8-1.7c1.1-0.4,2.2-0.6,3.3-0.6c0.4,0,0.9,0.1,1.4,0.2c0.5,0.1,0.9,0.3,1.4,0.5
			c0.4,0.2,0.8,0.4,1.2,0.7c0.4,0.3,0.7,0.6,0.9,0.9v-1.6h4.2V127.6z M95.2,123.7c0-0.5-0.1-1.1-0.2-1.7c-0.1-0.6-0.3-1.2-0.6-1.7
			c-0.3-0.5-0.7-1-1.3-1.3c-0.6-0.3-1.3-0.5-2.1-0.5c-0.9,0-1.6,0.2-2.1,0.5c-0.5,0.3-1,0.8-1.3,1.3c-0.3,0.5-0.5,1.1-0.6,1.7
			c-0.1,0.6-0.2,1.2-0.2,1.7c0,0.6,0.1,1.2,0.2,1.8c0.1,0.6,0.3,1.2,0.6,1.7c0.3,0.5,0.7,0.9,1.3,1.3c0.5,0.3,1.3,0.5,2.1,0.5
			c0.9,0,1.6-0.2,2.1-0.5c0.6-0.3,1-0.8,1.3-1.3c0.3-0.5,0.5-1.1,0.6-1.7C95.1,124.8,95.2,124.2,95.2,123.7z"/>
		<path class="st0" d="M127.1,128.2c0,0.2,0.1,0.4,0.3,0.6c0.2,0.2,0.4,0.3,0.6,0.3h1v3.9h-3.6c-0.8,0-1.4-0.2-1.9-0.6
			c-0.5-0.4-0.8-0.9-0.8-1.5v-1.2h-0.1c-0.2,0.3-0.4,0.6-0.6,0.9c-0.2,0.3-0.5,0.7-0.9,1c-0.4,0.3-0.8,0.6-1.4,0.8
			c-0.5,0.2-1.2,0.3-1.9,0.3c-1.3,0-2.5-0.3-3.4-0.8c-1-0.5-1.7-1.2-2.4-2.1c-0.6-0.9-1.1-1.9-1.3-3c-0.3-1.1-0.4-2.3-0.4-3.5
			c0-0.9,0.1-1.9,0.4-2.9c0.2-1,0.7-2,1.2-2.8c0.6-0.9,1.3-1.6,2.3-2.1c0.9-0.6,2.1-0.8,3.4-0.8c1.1,0,2.1,0.2,3,0.6
			c0.8,0.4,1.5,1.1,1.9,2h0.1v-5.7c0-0.5,0.1-0.9,0.2-1.3c0.2-0.4,0.4-0.7,0.6-1c0.2-0.3,0.5-0.5,0.8-0.6c0.3-0.1,0.6-0.2,0.9-0.2
			h3.9v3.9h-1c-0.2,0-0.5,0.1-0.6,0.3c-0.2,0.2-0.3,0.4-0.3,0.6V128.2z M115,123.3c0,1.1,0.1,2,0.3,2.7c0.2,0.7,0.5,1.3,0.9,1.7
			c0.4,0.4,0.8,0.7,1.2,0.9c0.5,0.2,0.9,0.2,1.3,0.2c0.2,0,0.6,0,1-0.1c0.4-0.1,0.9-0.3,1.3-0.7c0.4-0.4,0.8-0.9,1.1-1.6
			c0.3-0.7,0.5-1.7,0.5-2.8c0-1.8-0.4-3.1-1.1-3.9c-0.7-0.8-1.6-1.3-2.7-1.3c-1.4,0-2.4,0.4-3,1.3C115.3,120.6,115,121.8,115,123.3z
			"/>
		<path class="st0" d="M146.5,127.2c-0.3,1-0.7,1.9-1.3,2.6c-0.6,0.7-1.2,1.3-1.9,1.7c-0.7,0.4-1.4,0.7-2.2,0.9
			c-0.8,0.2-1.5,0.3-2.3,0.3c-1.2,0-2.3-0.2-3.4-0.5c-1.1-0.3-2-0.8-2.7-1.6c-0.8-0.7-1.4-1.7-1.8-2.9c-0.4-1.2-0.7-2.7-0.7-4.5
			c0-0.3,0-0.8,0.1-1.4c0.1-0.6,0.2-1.2,0.4-1.8c0.2-0.6,0.5-1.3,0.8-2c0.4-0.7,0.9-1.3,1.5-1.8c0.6-0.5,1.4-1,2.3-1.3
			c0.9-0.3,2-0.5,3.2-0.5c0.8,0,1.7,0.1,2.7,0.4c1,0.2,1.8,0.7,2.6,1.4c0.8,0.7,1.5,1.7,2,2.9c0.5,1.2,0.8,2.8,0.8,4.8v0.8h-11.9
			c0,0.3,0.1,0.7,0.2,1.2c0.1,0.5,0.3,0.9,0.5,1.4c0.3,0.5,0.7,0.8,1.2,1.2c0.5,0.3,1.3,0.5,2.2,0.5c0.6,0,1.2-0.2,1.8-0.5
			c0.6-0.3,0.9-0.8,1.1-1.4H146.5z M142.1,122c-0.1-0.7-0.2-1.3-0.5-1.7c-0.2-0.5-0.5-0.8-0.8-1.1c-0.3-0.3-0.7-0.5-1.1-0.6
			c-0.4-0.1-0.8-0.2-1.1-0.2c-1.1,0-1.9,0.3-2.5,1c-0.6,0.6-0.9,1.5-1.1,2.7H142.1z"/>
		<path class="st0" d="M154.3,126.8c0,0.2,0.1,0.5,0.3,0.7c0.2,0.2,0.4,0.3,0.7,0.3h2.3v4.5h-4.3c-0.4,0-0.8-0.1-1.2-0.3
			c-0.4-0.2-0.8-0.5-1.1-0.9c-0.3-0.4-0.6-0.8-0.8-1.3c-0.2-0.5-0.3-1-0.3-1.6v-14.4c0-0.2-0.1-0.4-0.3-0.6
			c-0.2-0.2-0.4-0.3-0.6-0.3h-1.4V109h3.9c0.5,0,0.9,0.1,1.2,0.3c0.4,0.2,0.7,0.4,0.9,0.7c0.2,0.3,0.4,0.6,0.6,1
			c0.1,0.3,0.2,0.7,0.2,1V126.8z"/>
		<path class="st0" d="M191.5,127.3c0,0.3,0.1,0.5,0.4,0.8c0.3,0.2,0.6,0.3,0.8,0.3h1.7v3.9h-3.6c-0.5,0-0.9-0.1-1.4-0.4
			c-0.5-0.2-0.9-0.5-1.3-0.9c-0.4-0.4-0.7-0.8-0.9-1.3c-0.2-0.5-0.3-0.9-0.3-1.4v-13.9h-0.1l-4.4,17.9h-4.8l-4.3-17.9h-0.1v13.9
			c0,0.5-0.1,0.9-0.3,1.4c-0.2,0.5-0.5,0.9-0.9,1.3c-0.4,0.4-0.8,0.7-1.3,0.9c-0.5,0.2-0.9,0.4-1.4,0.4H166v-3.9h1.7
			c0.3,0,0.6-0.1,0.8-0.3c0.3-0.2,0.4-0.5,0.4-0.8V109h7.1l4.2,16.1h0.1l4.2-16.1h7.1V127.3z"/>
		<path class="st0" d="M213.1,127.5c0,0.2,0.1,0.5,0.3,0.7c0.2,0.2,0.4,0.3,0.6,0.3h1v3.9h-3.8c-0.2,0-0.4,0-0.7-0.1
			c-0.3-0.1-0.6-0.2-0.8-0.4c-0.3-0.2-0.5-0.4-0.7-0.7c-0.2-0.3-0.3-0.6-0.3-1.1v-0.7c-0.4,1.1-1.1,1.9-2.1,2.5
			c-1,0.6-2.1,0.9-3.3,0.9c-0.8,0-1.6-0.1-2.4-0.4c-0.7-0.2-1.3-0.6-1.9-1.2c-0.5-0.5-0.9-1.2-1.2-2c-0.3-0.8-0.4-1.8-0.4-2.9v-6.6
			c0-0.2-0.1-0.4-0.3-0.6c-0.2-0.2-0.4-0.3-0.6-0.3h-1.1V115h4c0.4,0,0.8,0.2,1.1,0.3c0.3,0.2,0.6,0.4,0.8,0.7
			c0.2,0.3,0.4,0.6,0.5,0.9c0.1,0.3,0.1,0.6,0.1,1v7.8c0,0.7,0.1,1.2,0.3,1.6c0.2,0.4,0.4,0.7,0.7,1c0.3,0.2,0.6,0.4,1,0.5
			c0.4,0.1,0.7,0.1,1.1,0.1c0.4,0,0.8-0.1,1.2-0.2c0.4-0.1,0.8-0.3,1.1-0.6c0.3-0.3,0.6-0.7,0.9-1.2c0.2-0.5,0.3-1.1,0.3-1.9v-5.2
			c0-0.2-0.1-0.4-0.3-0.6c-0.2-0.2-0.4-0.3-0.6-0.3h-1.1V115h3.9c0.7,0,1.3,0.3,1.8,0.8c0.5,0.5,0.8,1.3,0.8,2.2V127.5z"/>
		<path class="st0" d="M218.2,119.9c0-0.2-0.1-0.4-0.3-0.7c-0.2-0.2-0.4-0.3-0.6-0.3h-1.1V115h4.3c0.3,0,0.5,0.1,0.7,0.2
			c0.2,0.1,0.5,0.3,0.6,0.5c0.2,0.2,0.4,0.5,0.5,0.7c0.1,0.3,0.2,0.5,0.2,0.8v0.6c0.1-0.3,0.3-0.6,0.6-1c0.3-0.4,0.6-0.7,1-1.1
			c0.4-0.3,0.9-0.6,1.5-0.9c0.6-0.2,1.3-0.4,2.1-0.4c0.8,0,1.6,0.1,2.4,0.4c0.7,0.2,1.4,0.6,1.9,1.1c0.5,0.5,1,1.1,1.3,1.8
			c0.3,0.7,0.5,1.5,0.5,2.5v7.1c0,0.2,0.1,0.4,0.3,0.6c0.2,0.2,0.4,0.3,0.6,0.3h1.1v3.9h-3.7c-0.4,0-0.7-0.1-1.1-0.3
			c-0.3-0.2-0.6-0.5-0.9-0.8c-0.3-0.3-0.5-0.7-0.6-1.1c-0.2-0.4-0.2-0.8-0.2-1.1v-7.2c0-0.3,0-0.7,0-1.1c0-0.4-0.1-0.8-0.3-1.1
			c-0.2-0.3-0.5-0.6-0.9-0.9c-0.4-0.2-1-0.4-1.7-0.4c-1,0-1.9,0.3-2.6,1c-0.7,0.7-1,1.7-1,3v6.7c0,0.4-0.1,0.7-0.2,1.1
			c-0.2,0.4-0.4,0.7-0.6,1c-0.3,0.3-0.6,0.6-0.9,0.8c-0.3,0.2-0.7,0.3-1,0.3h-3.6v-3.9h1.1c0.2,0,0.4-0.1,0.6-0.3
			c0.2-0.2,0.3-0.4,0.3-0.6V119.9z"/>
		<path class="st0" d="M253.2,128.2c0,0.2,0.1,0.4,0.3,0.6c0.2,0.2,0.4,0.3,0.7,0.3h1v3.9h-3.6c-0.8,0-1.4-0.2-1.9-0.6
			c-0.5-0.4-0.8-0.9-0.8-1.5v-1.2h-0.1c-0.2,0.3-0.4,0.6-0.6,0.9c-0.2,0.3-0.5,0.7-0.9,1c-0.4,0.3-0.8,0.6-1.4,0.8
			c-0.5,0.2-1.2,0.3-1.9,0.3c-1.3,0-2.5-0.3-3.4-0.8c-1-0.5-1.7-1.2-2.4-2.1c-0.6-0.9-1.1-1.9-1.3-3c-0.3-1.1-0.4-2.3-0.4-3.5
			c0-0.9,0.1-1.9,0.4-2.9c0.2-1,0.7-2,1.2-2.8c0.6-0.9,1.3-1.6,2.3-2.1c0.9-0.6,2.1-0.8,3.4-0.8c1.1,0,2.1,0.2,3,0.6
			c0.8,0.4,1.5,1.1,1.9,2h0.1v-5.7c0-0.5,0.1-0.9,0.2-1.3c0.2-0.4,0.4-0.7,0.6-1c0.2-0.3,0.5-0.5,0.8-0.6c0.3-0.1,0.6-0.2,0.9-0.2
			h3.9v3.9h-1c-0.2,0-0.5,0.1-0.6,0.3c-0.2,0.2-0.3,0.4-0.3,0.6V128.2z M241.1,123.3c0,1.1,0.1,2,0.3,2.7c0.2,0.7,0.5,1.3,0.9,1.7
			c0.4,0.4,0.8,0.7,1.2,0.9c0.5,0.2,0.9,0.2,1.3,0.2c0.2,0,0.6,0,1-0.1c0.4-0.1,0.9-0.3,1.3-0.7c0.4-0.4,0.8-0.9,1.1-1.6
			c0.3-0.7,0.5-1.7,0.5-2.8c0-1.8-0.4-3.1-1.1-3.9c-0.7-0.8-1.6-1.3-2.7-1.3c-1.4,0-2.4,0.4-3,1.3
			C241.4,120.6,241.1,121.8,241.1,123.3z"/>
		<path class="st0" d="M274.1,123.7c0,1.6-0.2,2.9-0.7,4.1c-0.5,1.1-1.1,2.1-1.9,2.8s-1.7,1.3-2.8,1.7c-1.1,0.4-2.2,0.5-3.3,0.5
			c-1.2,0-2.3-0.2-3.3-0.5c-1.1-0.4-2-0.9-2.8-1.7c-0.8-0.7-1.5-1.7-1.9-2.8c-0.5-1.1-0.7-2.5-0.7-4.1c0-1.6,0.2-2.9,0.7-4
			c0.5-1.1,1.1-2.1,1.9-2.8c0.8-0.7,1.7-1.3,2.8-1.7c1.1-0.4,2.2-0.6,3.3-0.6c1.2,0,2.3,0.2,3.3,0.6c1.1,0.4,2,0.9,2.8,1.7
			s1.5,1.7,1.9,2.8C273.9,120.8,274.1,122.1,274.1,123.7z M269.4,123.7c0-0.5-0.1-1.1-0.2-1.7c-0.1-0.6-0.3-1.2-0.6-1.7
			c-0.3-0.5-0.7-1-1.3-1.3c-0.6-0.3-1.3-0.5-2.1-0.5c-0.9,0-1.6,0.2-2.1,0.5c-0.5,0.3-1,0.8-1.3,1.3c-0.3,0.5-0.5,1.1-0.6,1.7
			c-0.1,0.6-0.2,1.2-0.2,1.7c0,0.6,0.1,1.2,0.2,1.8c0.1,0.6,0.3,1.2,0.6,1.7c0.3,0.5,0.7,0.9,1.3,1.3c0.5,0.3,1.3,0.5,2.1,0.5
			c0.9,0,1.6-0.2,2.1-0.5c0.6-0.3,1-0.8,1.3-1.3c0.3-0.5,0.5-1.1,0.6-1.7C269.4,124.8,269.4,124.2,269.4,123.7z"/>
	</g>
	<g>
		<g>
			<path class="st0" d="M64.8,151.9v-1.1c0-0.3-0.2-0.5-0.5-0.7c-0.4-0.2-0.8-0.2-1.3-0.2c-0.2,0-0.5,0-0.8,0.1
				c-0.3,0.1-0.6,0.3-0.8,0.5c-0.2,0.3-0.5,0.6-0.6,1.1c-0.2,0.5-0.2,1-0.2,1.7c0,0.4,0,0.9,0.1,1.3c0.1,0.4,0.2,0.8,0.4,1.1
				c0.2,0.3,0.5,0.6,0.8,0.8s0.7,0.3,1.1,0.3c0.2,0,0.4,0,0.6,0c0.2,0,0.4-0.1,0.6-0.2c0.2-0.1,0.3-0.2,0.5-0.3
				c0.1-0.1,0.2-0.3,0.2-0.5v-1H67v1.1c0,0.4-0.1,0.8-0.3,1.2c-0.2,0.3-0.5,0.6-0.9,0.9c-0.4,0.2-0.8,0.4-1.3,0.5
				c-0.5,0.1-1,0.2-1.5,0.2c-0.7,0-1.3-0.1-1.8-0.3c-0.6-0.2-1-0.6-1.4-1c-0.4-0.4-0.7-1-0.9-1.6c-0.2-0.7-0.3-1.4-0.3-2.3
				c0-0.9,0.1-1.6,0.4-2.3c0.2-0.7,0.6-1.2,1-1.6c0.4-0.4,0.9-0.8,1.5-1c0.6-0.2,1.2-0.3,1.8-0.3c0.6,0,1.2,0.1,1.7,0.2
				c0.5,0.2,0.9,0.4,1.3,0.6c0.4,0.3,0.6,0.5,0.8,0.9c0.2,0.3,0.3,0.7,0.3,1v1.1H64.8z"/>
			<path class="st0" d="M75.2,154.7c0,0.7-0.1,1.2-0.3,1.7c-0.2,0.5-0.5,0.9-0.8,1.2c-0.3,0.3-0.7,0.6-1.2,0.7
				c-0.5,0.2-0.9,0.2-1.4,0.2c-0.5,0-1-0.1-1.4-0.2c-0.5-0.2-0.9-0.4-1.2-0.7c-0.3-0.3-0.6-0.7-0.8-1.2c-0.2-0.5-0.3-1.1-0.3-1.7
				c0-0.7,0.1-1.2,0.3-1.7s0.5-0.9,0.8-1.2c0.3-0.3,0.7-0.6,1.2-0.7c0.5-0.2,0.9-0.2,1.4-0.2c0.5,0,1,0.1,1.4,0.2
				c0.5,0.2,0.9,0.4,1.2,0.7c0.3,0.3,0.6,0.7,0.8,1.2C75,153.4,75.2,154,75.2,154.7z M73.2,154.7c0-0.2,0-0.5-0.1-0.7
				c0-0.3-0.1-0.5-0.3-0.7c-0.1-0.2-0.3-0.4-0.5-0.6c-0.2-0.1-0.5-0.2-0.9-0.2c-0.4,0-0.7,0.1-0.9,0.2c-0.2,0.1-0.4,0.3-0.5,0.6
				c-0.1,0.2-0.2,0.5-0.3,0.7c0,0.3-0.1,0.5-0.1,0.7c0,0.2,0,0.5,0.1,0.8c0,0.3,0.1,0.5,0.3,0.7c0.1,0.2,0.3,0.4,0.5,0.5
				c0.2,0.1,0.5,0.2,0.9,0.2c0.4,0,0.7-0.1,0.9-0.2c0.2-0.1,0.4-0.3,0.5-0.5c0.1-0.2,0.2-0.5,0.3-0.7
				C73.1,155.1,73.2,154.9,73.2,154.7z"/>
			<path class="st0" d="M78.6,156c0,0.1,0,0.2,0.1,0.3c0.1,0.1,0.2,0.1,0.3,0.1h1v1.9h-1.8c-0.2,0-0.4,0-0.5-0.1
				c-0.2-0.1-0.3-0.2-0.5-0.4c-0.1-0.2-0.3-0.3-0.4-0.6c-0.1-0.2-0.1-0.4-0.1-0.7v-6.2c0-0.1,0-0.2-0.1-0.3
				c-0.1-0.1-0.2-0.1-0.3-0.1h-0.6v-1.7h1.7c0.2,0,0.4,0,0.5,0.1c0.2,0.1,0.3,0.2,0.4,0.3c0.1,0.1,0.2,0.3,0.2,0.4
				c0.1,0.1,0.1,0.3,0.1,0.4V156z"/>
			<path class="st0" d="M87.3,156.2c-0.1,0.4-0.3,0.8-0.5,1.1c-0.2,0.3-0.5,0.5-0.8,0.7c-0.3,0.2-0.6,0.3-0.9,0.4
				c-0.3,0.1-0.7,0.1-1,0.1c-0.5,0-1-0.1-1.5-0.2c-0.4-0.1-0.8-0.4-1.2-0.7c-0.3-0.3-0.6-0.7-0.8-1.2c-0.2-0.5-0.3-1.2-0.3-1.9
				c0-0.1,0-0.3,0-0.6c0-0.2,0.1-0.5,0.2-0.8c0.1-0.3,0.2-0.6,0.4-0.8c0.2-0.3,0.4-0.5,0.6-0.8c0.3-0.2,0.6-0.4,1-0.6
				c0.4-0.1,0.8-0.2,1.4-0.2c0.4,0,0.7,0.1,1.2,0.2c0.4,0.1,0.8,0.3,1.1,0.6c0.3,0.3,0.6,0.7,0.9,1.2c0.2,0.5,0.3,1.2,0.3,2.1v0.3
				h-5.1c0,0.1,0,0.3,0.1,0.5c0,0.2,0.1,0.4,0.2,0.6c0.1,0.2,0.3,0.4,0.5,0.5c0.2,0.1,0.5,0.2,0.9,0.2c0.3,0,0.5-0.1,0.8-0.2
				c0.2-0.1,0.4-0.3,0.5-0.6H87.3z M85.4,153.9c0-0.3-0.1-0.5-0.2-0.7c-0.1-0.2-0.2-0.4-0.4-0.5c-0.1-0.1-0.3-0.2-0.5-0.3
				c-0.2-0.1-0.3-0.1-0.5-0.1c-0.5,0-0.8,0.1-1.1,0.4c-0.2,0.3-0.4,0.7-0.5,1.1H85.4z"/>
			<path class="st0" d="M95.5,152.6c-0.1,0-0.2,0-0.3,0.1c-0.1,0.1-0.1,0.1-0.1,0.2v5c0,0.2,0,0.4,0,0.7c0,0.2-0.1,0.5-0.1,0.8
				c-0.1,0.3-0.2,0.5-0.3,0.7c-0.2,0.2-0.4,0.4-0.6,0.6c-0.3,0.2-0.6,0.3-1,0.4c-0.4,0.1-0.9,0.2-1.5,0.2c-0.4,0-0.8,0-1.1-0.1
				c-0.4-0.1-0.7-0.2-1-0.4c-0.3-0.2-0.6-0.4-0.8-0.7c-0.2-0.3-0.3-0.6-0.3-1h2.1c0,0.1,0,0.2,0.1,0.3c0,0.1,0.1,0.2,0.2,0.2
				c0.1,0.1,0.2,0.1,0.4,0.2c0.2,0,0.4,0.1,0.7,0.1c0.5,0,0.9-0.1,1.2-0.4c0.2-0.3,0.4-0.7,0.4-1.3v-0.9l0,0
				c-0.1,0.1-0.2,0.3-0.3,0.4c-0.1,0.1-0.2,0.3-0.4,0.4c-0.2,0.1-0.3,0.2-0.5,0.2c-0.2,0.1-0.5,0.1-0.8,0.1c-0.4,0-0.9-0.1-1.2-0.2
				c-0.4-0.2-0.7-0.4-1-0.7c-0.3-0.3-0.5-0.7-0.7-1.2c-0.2-0.5-0.2-1-0.2-1.7c0-0.6,0.1-1.2,0.2-1.7c0.2-0.5,0.4-0.9,0.7-1.2
				c0.3-0.3,0.6-0.6,1-0.7c0.4-0.2,0.8-0.2,1.2-0.2c0.3,0,0.6,0,0.9,0.1c0.3,0.1,0.5,0.2,0.7,0.4c0.2,0.2,0.3,0.3,0.4,0.5
				c0.1,0.2,0.2,0.4,0.2,0.5v-0.4c0-0.2,0-0.3,0.1-0.4c0.1-0.1,0.2-0.2,0.3-0.3c0.1-0.1,0.2-0.1,0.4-0.2c0.1,0,0.3-0.1,0.4-0.1H96
				v1.7H95.5z M90,154.7c0,0.2,0,0.5,0.1,0.7c0.1,0.2,0.1,0.5,0.3,0.7c0.1,0.2,0.3,0.4,0.5,0.5c0.2,0.1,0.4,0.2,0.7,0.2
				c0.3,0,0.6-0.1,0.8-0.2c0.2-0.1,0.4-0.3,0.5-0.5c0.1-0.2,0.2-0.4,0.3-0.7c0-0.3,0.1-0.5,0.1-0.8c0-0.3,0-0.6-0.1-0.8
				c-0.1-0.3-0.2-0.5-0.3-0.7c-0.1-0.2-0.3-0.3-0.5-0.5c-0.2-0.1-0.4-0.2-0.7-0.2c-0.2,0-0.4,0-0.5,0.1c-0.2,0.1-0.3,0.2-0.5,0.4
				c-0.1,0.2-0.3,0.4-0.4,0.7C90,153.9,90,154.3,90,154.7z"/>
			<path class="st0" d="M97.2,153c0-0.1,0-0.2-0.1-0.3c-0.1-0.1-0.2-0.1-0.2-0.1h-0.5V151H98c0.2,0,0.4,0,0.5,0.1
				c0.1,0.1,0.3,0.2,0.4,0.3c0.1,0.1,0.2,0.2,0.2,0.4c0,0.1,0.1,0.3,0.1,0.4v3.9c0,0.1,0,0.2,0.1,0.2c0.1,0.1,0.2,0.1,0.2,0.1h0.5
				v1.9h-1.6c-0.1,0-0.3,0-0.4-0.1c-0.1-0.1-0.3-0.2-0.4-0.4c-0.1-0.1-0.2-0.3-0.3-0.5c-0.1-0.2-0.1-0.4-0.1-0.5V153z M96.6,148.9
				c0-0.3,0.1-0.6,0.3-0.8c0.2-0.2,0.5-0.3,0.8-0.3c0.3,0,0.6,0.1,0.8,0.3c0.2,0.2,0.3,0.5,0.3,0.8c0,0.3-0.1,0.6-0.3,0.8
				c-0.2,0.2-0.5,0.3-0.8,0.3c-0.3,0-0.6-0.1-0.8-0.3C96.7,149.5,96.6,149.2,96.6,148.9z"/>
			<path class="st0" d="M108.1,154.7c0,0.7-0.1,1.2-0.3,1.7c-0.2,0.5-0.5,0.9-0.8,1.2c-0.3,0.3-0.7,0.6-1.2,0.7
				c-0.5,0.2-0.9,0.2-1.4,0.2c-0.5,0-1-0.1-1.4-0.2c-0.5-0.2-0.9-0.4-1.2-0.7c-0.3-0.3-0.6-0.7-0.8-1.2c-0.2-0.5-0.3-1.1-0.3-1.7
				c0-0.7,0.1-1.2,0.3-1.7c0.2-0.5,0.5-0.9,0.8-1.2c0.3-0.3,0.7-0.6,1.2-0.7c0.5-0.2,0.9-0.2,1.4-0.2c0.5,0,1,0.1,1.4,0.2
				c0.5,0.2,0.9,0.4,1.2,0.7c0.3,0.3,0.6,0.7,0.8,1.2C108,153.4,108.1,154,108.1,154.7z M106.1,154.7c0-0.2,0-0.5-0.1-0.7
				c0-0.3-0.1-0.5-0.3-0.7c-0.1-0.2-0.3-0.4-0.5-0.6c-0.2-0.1-0.5-0.2-0.9-0.2c-0.4,0-0.7,0.1-0.9,0.2c-0.2,0.1-0.4,0.3-0.5,0.6
				c-0.1,0.2-0.2,0.5-0.3,0.7c0,0.3-0.1,0.5-0.1,0.7c0,0.2,0,0.5,0.1,0.8c0,0.3,0.1,0.5,0.3,0.7c0.1,0.2,0.3,0.4,0.5,0.5
				c0.2,0.1,0.5,0.2,0.9,0.2c0.4,0,0.7-0.1,0.9-0.2c0.2-0.1,0.4-0.3,0.5-0.5c0.1-0.2,0.2-0.5,0.3-0.7
				C106,155.1,106.1,154.9,106.1,154.7z"/>
			<path class="st0" d="M113.4,150.7c0-0.1-0.1-0.3-0.2-0.4c-0.1-0.1-0.3-0.2-0.4-0.2h-0.7v-1.7h5.5c0.5,0,0.9,0.1,1.3,0.2
				c0.4,0.1,0.7,0.4,1,0.6s0.5,0.6,0.6,1c0.1,0.4,0.2,0.8,0.2,1.3c0,0.2,0,0.5-0.1,0.9c-0.1,0.4-0.2,0.7-0.5,1.1
				c-0.2,0.3-0.6,0.6-1,0.9c-0.4,0.2-1,0.4-1.6,0.4h-2.1v1.6c0,0.2-0.1,0.5-0.2,0.7c-0.1,0.2-0.3,0.4-0.4,0.6
				c-0.2,0.2-0.4,0.3-0.6,0.5c-0.2,0.1-0.5,0.2-0.7,0.2h-1.5v-1.7h0.7c0.1,0,0.2-0.1,0.4-0.2c0.1-0.1,0.2-0.3,0.2-0.4V150.7z
				 M117.1,153c0.4,0,0.7-0.1,0.9-0.2c0.2-0.1,0.4-0.3,0.5-0.4c0.1-0.2,0.2-0.3,0.2-0.5c0-0.2,0-0.3,0-0.4c0-0.5-0.1-0.8-0.4-1.1
				c-0.3-0.2-0.8-0.3-1.4-0.3h-1.4v2.9H117.1z"/>
			<path class="st0" d="M128.1,156.2c-0.1,0.4-0.3,0.8-0.5,1.1c-0.2,0.3-0.5,0.5-0.8,0.7c-0.3,0.2-0.6,0.3-0.9,0.4
				c-0.3,0.1-0.7,0.1-1,0.1c-0.5,0-1-0.1-1.5-0.2c-0.4-0.1-0.8-0.4-1.2-0.7c-0.3-0.3-0.6-0.7-0.8-1.2c-0.2-0.5-0.3-1.2-0.3-1.9
				c0-0.1,0-0.3,0-0.6c0-0.2,0.1-0.5,0.2-0.8c0.1-0.3,0.2-0.6,0.4-0.8c0.2-0.3,0.4-0.5,0.6-0.8c0.3-0.2,0.6-0.4,1-0.6
				c0.4-0.1,0.8-0.2,1.4-0.2c0.4,0,0.7,0.1,1.2,0.2c0.4,0.1,0.8,0.3,1.1,0.6c0.3,0.3,0.6,0.7,0.9,1.2c0.2,0.5,0.3,1.2,0.3,2.1v0.3
				h-5.1c0,0.1,0,0.3,0.1,0.5c0,0.2,0.1,0.4,0.2,0.6c0.1,0.2,0.3,0.4,0.5,0.5c0.2,0.1,0.5,0.2,0.9,0.2c0.3,0,0.5-0.1,0.8-0.2
				c0.2-0.1,0.4-0.3,0.5-0.6H128.1z M126.1,153.9c0-0.3-0.1-0.5-0.2-0.7c-0.1-0.2-0.2-0.4-0.4-0.5c-0.1-0.1-0.3-0.2-0.5-0.3
				c-0.2-0.1-0.3-0.1-0.5-0.1c-0.5,0-0.8,0.1-1.1,0.4c-0.2,0.3-0.4,0.7-0.5,1.1H126.1z"/>
			<path class="st0" d="M129.5,153c0-0.1,0-0.2-0.1-0.3c-0.1-0.1-0.2-0.1-0.2-0.1h-0.5V151h1.5c0.1,0,0.3,0,0.4,0.1
				c0.1,0.1,0.3,0.1,0.4,0.2c0.1,0.1,0.2,0.2,0.3,0.3c0.1,0.1,0.1,0.3,0.1,0.4v0.2h0c0.1-0.2,0.2-0.4,0.3-0.5
				c0.1-0.2,0.2-0.3,0.4-0.5c0.2-0.1,0.3-0.2,0.5-0.3c0.2-0.1,0.5-0.1,0.8-0.1c0.1,0,0.1,0,0.2,0c0.1,0,0.1,0,0.2,0v2
				c-0.1,0-0.2,0-0.3,0s-0.2,0-0.3,0c-0.4,0-0.7,0.1-0.9,0.2c-0.2,0.1-0.4,0.2-0.5,0.4c-0.1,0.2-0.2,0.4-0.3,0.6
				c0,0.2-0.1,0.4-0.1,0.6v3.8h-1.9V153z"/>
			<path class="st0" d="M141.7,156.3c0,0.1,0,0.2,0.1,0.3c0.1,0.1,0.2,0.1,0.3,0.1h0.4v1.7h-1.6c-0.1,0-0.2,0-0.3-0.1
				c-0.1,0-0.2-0.1-0.3-0.2c-0.1-0.1-0.2-0.2-0.3-0.3c-0.1-0.1-0.1-0.3-0.1-0.5v-0.3c-0.2,0.5-0.5,0.8-0.9,1.1
				c-0.4,0.3-0.9,0.4-1.4,0.4c-0.4,0-0.7-0.1-1-0.2c-0.3-0.1-0.6-0.3-0.8-0.5c-0.2-0.2-0.4-0.5-0.5-0.8c-0.1-0.3-0.2-0.8-0.2-1.2
				V153c0-0.1,0-0.2-0.1-0.2c-0.1-0.1-0.2-0.1-0.2-0.1h-0.5V151h1.7c0.2,0,0.3,0.1,0.5,0.1c0.1,0.1,0.2,0.2,0.3,0.3
				c0.1,0.1,0.2,0.2,0.2,0.4c0,0.1,0.1,0.3,0.1,0.4v3.3c0,0.3,0,0.5,0.1,0.7c0.1,0.2,0.2,0.3,0.3,0.4c0.1,0.1,0.3,0.2,0.4,0.2
				c0.2,0,0.3,0.1,0.5,0.1c0.2,0,0.3,0,0.5-0.1c0.2-0.1,0.3-0.1,0.5-0.3c0.1-0.1,0.3-0.3,0.4-0.5c0.1-0.2,0.1-0.5,0.1-0.8V153
				c0-0.1,0-0.2-0.1-0.3c-0.1-0.1-0.2-0.1-0.2-0.1h-0.5V151h1.7c0.3,0,0.6,0.1,0.8,0.3c0.2,0.2,0.3,0.5,0.3,0.9V156.3z"/>
			<path class="st0" d="M150.7,156.3c0,0.1,0,0.2,0.1,0.2c0.1,0.1,0.1,0.1,0.2,0.1h0.5v1.7h-1.7c-0.1,0-0.2,0-0.3-0.1
				c-0.1,0-0.2-0.1-0.3-0.2c-0.1-0.1-0.2-0.2-0.2-0.3c-0.1-0.1-0.1-0.2-0.1-0.4v-0.2c-0.2,0.4-0.5,0.7-1,1c-0.4,0.2-0.9,0.4-1.4,0.4
				c-0.5,0-1-0.1-1.4-0.2c-0.4-0.2-0.8-0.4-1.1-0.7c-0.3-0.3-0.6-0.7-0.7-1.2c-0.2-0.5-0.3-1.1-0.3-1.7c0-0.7,0.1-1.2,0.3-1.7
				s0.5-0.9,0.8-1.2c0.3-0.3,0.7-0.6,1.2-0.7c0.5-0.2,0.9-0.2,1.4-0.2c0.2,0,0.4,0,0.6,0.1c0.2,0,0.4,0.1,0.6,0.2
				c0.2,0.1,0.4,0.2,0.5,0.3c0.2,0.1,0.3,0.2,0.4,0.4V151h1.8V156.3z M148.7,154.7c0-0.2,0-0.5-0.1-0.7c0-0.3-0.1-0.5-0.3-0.7
				c-0.1-0.2-0.3-0.4-0.5-0.6c-0.2-0.1-0.5-0.2-0.9-0.2c-0.4,0-0.7,0.1-0.9,0.2c-0.2,0.1-0.4,0.3-0.5,0.6c-0.1,0.2-0.2,0.5-0.3,0.7
				c0,0.3-0.1,0.5-0.1,0.7c0,0.2,0,0.5,0.1,0.8c0,0.3,0.1,0.5,0.3,0.7c0.1,0.2,0.3,0.4,0.5,0.5c0.2,0.1,0.5,0.2,0.9,0.2
				c0.4,0,0.7-0.1,0.9-0.2c0.2-0.1,0.4-0.3,0.5-0.5c0.1-0.2,0.2-0.5,0.3-0.7C148.6,155.1,148.7,154.9,148.7,154.7z"/>
			<path class="st0" d="M153.1,153c0-0.1,0-0.2-0.1-0.3c-0.1-0.1-0.2-0.1-0.3-0.1h-0.5V151h1.8c0.1,0,0.2,0,0.3,0.1
				c0.1,0.1,0.2,0.1,0.3,0.2c0.1,0.1,0.2,0.2,0.2,0.3c0.1,0.1,0.1,0.2,0.1,0.3v0.2c0.1-0.1,0.1-0.2,0.3-0.4c0.1-0.2,0.3-0.3,0.4-0.5
				c0.2-0.1,0.4-0.3,0.7-0.4c0.3-0.1,0.6-0.2,0.9-0.2c0.4,0,0.7,0.1,1,0.2c0.3,0.1,0.6,0.3,0.8,0.5c0.2,0.2,0.4,0.5,0.5,0.8
				c0.1,0.3,0.2,0.7,0.2,1.1v3c0,0.1,0,0.2,0.1,0.3c0.1,0.1,0.2,0.1,0.2,0.1h0.5v1.7H159c-0.2,0-0.3,0-0.5-0.1
				c-0.1-0.1-0.3-0.2-0.4-0.3c-0.1-0.1-0.2-0.3-0.3-0.5c-0.1-0.2-0.1-0.3-0.1-0.5v-3.1c0-0.1,0-0.3,0-0.5c0-0.2-0.1-0.3-0.1-0.5
				c-0.1-0.1-0.2-0.3-0.4-0.4c-0.2-0.1-0.4-0.2-0.7-0.2c-0.4,0-0.8,0.1-1.1,0.4c-0.3,0.3-0.4,0.7-0.4,1.3v2.8c0,0.2,0,0.3-0.1,0.5
				c-0.1,0.2-0.2,0.3-0.3,0.4c-0.1,0.1-0.2,0.2-0.4,0.3c-0.1,0.1-0.3,0.1-0.4,0.1h-1.6v-1.7h0.5c0.1,0,0.2,0,0.3-0.1
				c0.1-0.1,0.1-0.2,0.1-0.3V153z"/>
			<path class="st0" d="M168.7,154.7c0,0.7-0.1,1.2-0.3,1.7c-0.2,0.5-0.5,0.9-0.8,1.2c-0.3,0.3-0.7,0.6-1.2,0.7
				c-0.5,0.2-0.9,0.2-1.4,0.2c-0.5,0-1-0.1-1.4-0.2c-0.5-0.2-0.9-0.4-1.2-0.7c-0.3-0.3-0.6-0.7-0.8-1.2c-0.2-0.5-0.3-1.1-0.3-1.7
				c0-0.7,0.1-1.2,0.3-1.7c0.2-0.5,0.5-0.9,0.8-1.2c0.3-0.3,0.7-0.6,1.2-0.7c0.5-0.2,0.9-0.2,1.4-0.2c0.5,0,1,0.1,1.4,0.2
				c0.5,0.2,0.9,0.4,1.2,0.7c0.3,0.3,0.6,0.7,0.8,1.2C168.6,153.4,168.7,154,168.7,154.7z M166.7,154.7c0-0.2,0-0.5-0.1-0.7
				c0-0.3-0.1-0.5-0.3-0.7c-0.1-0.2-0.3-0.4-0.5-0.6c-0.2-0.1-0.5-0.2-0.9-0.2c-0.4,0-0.7,0.1-0.9,0.2c-0.2,0.1-0.4,0.3-0.5,0.6
				c-0.1,0.2-0.2,0.5-0.3,0.7c0,0.3-0.1,0.5-0.1,0.7c0,0.2,0,0.5,0.1,0.8c0,0.3,0.1,0.5,0.3,0.7c0.1,0.2,0.3,0.4,0.5,0.5
				c0.2,0.1,0.5,0.2,0.9,0.2c0.4,0,0.7-0.1,0.9-0.2c0.2-0.1,0.4-0.3,0.5-0.5c0.1-0.2,0.2-0.5,0.3-0.7
				C166.7,155.1,166.7,154.9,166.7,154.7z"/>
			<path class="st0" d="M173.2,155.4h-3.9v-1.8h3.9V155.4z"/>
			<path class="st0" d="M183.1,156.2c0,0.1,0.1,0.3,0.3,0.3c0.1,0.1,0.3,0.1,0.4,0.1h0.7v1.7h-1.7c-0.4,0-0.7-0.1-1-0.4
				c-0.3-0.3-0.5-0.6-0.6-0.9l-0.2-0.8h-3.7l-0.2,0.8c-0.1,0.4-0.3,0.7-0.6,0.9c-0.3,0.2-0.6,0.4-1,0.4h-1.7v-1.7h0.7
				c0.1,0,0.3,0,0.4-0.1c0.1-0.1,0.2-0.2,0.3-0.3l2.7-7.8h2.5L183.1,156.2z M177.9,154.6h2.5l-1.2-3.9h0L177.9,154.6z"/>
			<path class="st0" d="M187.9,156c0,0.1,0,0.2,0.1,0.3s0.2,0.1,0.3,0.1h1v1.9h-1.8c-0.2,0-0.4,0-0.5-0.1c-0.2-0.1-0.3-0.2-0.5-0.4
				c-0.1-0.2-0.3-0.3-0.4-0.6c-0.1-0.2-0.1-0.4-0.1-0.7v-6.2c0-0.1,0-0.2-0.1-0.3c-0.1-0.1-0.2-0.1-0.2-0.1H185v-1.7h1.7
				c0.2,0,0.4,0,0.5,0.1c0.2,0.1,0.3,0.2,0.4,0.3c0.1,0.1,0.2,0.3,0.2,0.4c0.1,0.1,0.1,0.3,0.1,0.4V156z"/>
			<path class="st0" d="M196.7,156.2c-0.1,0.4-0.3,0.8-0.5,1.1s-0.5,0.5-0.8,0.7c-0.3,0.2-0.6,0.3-0.9,0.4c-0.3,0.1-0.7,0.1-1,0.1
				c-0.5,0-1-0.1-1.5-0.2c-0.4-0.1-0.8-0.4-1.2-0.7c-0.3-0.3-0.6-0.7-0.8-1.2c-0.2-0.5-0.3-1.2-0.3-1.9c0-0.1,0-0.3,0-0.6
				c0-0.2,0.1-0.5,0.2-0.8c0.1-0.3,0.2-0.6,0.4-0.8c0.2-0.3,0.4-0.5,0.6-0.8c0.3-0.2,0.6-0.4,1-0.6c0.4-0.1,0.8-0.2,1.4-0.2
				c0.4,0,0.7,0.1,1.2,0.2c0.4,0.1,0.8,0.3,1.1,0.6s0.6,0.7,0.9,1.2c0.2,0.5,0.3,1.2,0.3,2.1v0.3h-5.1c0,0.1,0,0.3,0.1,0.5
				c0,0.2,0.1,0.4,0.2,0.6c0.1,0.2,0.3,0.4,0.5,0.5c0.2,0.1,0.5,0.2,0.9,0.2c0.3,0,0.5-0.1,0.8-0.2c0.2-0.1,0.4-0.3,0.5-0.6H196.7z
				 M194.7,153.9c0-0.3-0.1-0.5-0.2-0.7c-0.1-0.2-0.2-0.4-0.4-0.5c-0.1-0.1-0.3-0.2-0.5-0.3c-0.2-0.1-0.3-0.1-0.5-0.1
				c-0.5,0-0.8,0.1-1.1,0.4c-0.2,0.3-0.4,0.7-0.5,1.1H194.7z"/>
			<path class="st0" d="M198.2,153c0-0.1,0-0.2-0.1-0.3c-0.1-0.1-0.2-0.1-0.3-0.1h-0.4V151h1.7c0.1,0,0.2,0,0.3,0.1
				c0.1,0.1,0.2,0.1,0.3,0.2c0.1,0.1,0.2,0.2,0.2,0.3c0.1,0.1,0.1,0.2,0.1,0.3v0.3c0.1-0.1,0.2-0.3,0.3-0.4c0.1-0.2,0.2-0.3,0.4-0.5
				s0.4-0.3,0.6-0.4c0.2-0.1,0.5-0.2,0.8-0.2c0.3,0,0.5,0,0.7,0.1c0.2,0.1,0.4,0.1,0.5,0.2c0.2,0.1,0.3,0.2,0.4,0.4
				c0.1,0.1,0.3,0.3,0.4,0.5c0.1-0.1,0.1-0.2,0.2-0.3c0.1-0.1,0.2-0.3,0.4-0.4c0.2-0.1,0.3-0.2,0.6-0.3c0.2-0.1,0.5-0.1,0.8-0.1
				c0.4,0,0.7,0.1,1,0.2c0.3,0.1,0.6,0.3,0.8,0.5c0.2,0.2,0.4,0.5,0.5,0.8c0.1,0.3,0.2,0.7,0.2,1.1v3.1c0,0.1,0,0.2,0.1,0.2
				c0.1,0.1,0.1,0.1,0.2,0.1h0.5v1.7h-1.5c-0.2,0-0.3,0-0.5-0.1c-0.2-0.1-0.3-0.2-0.4-0.3c-0.1-0.1-0.2-0.3-0.3-0.5
				c-0.1-0.2-0.1-0.3-0.1-0.5v-3.1c0-0.5-0.1-0.9-0.3-1.1c-0.2-0.2-0.5-0.3-0.7-0.3c-0.5,0-0.8,0.1-1,0.4c-0.2,0.3-0.3,0.6-0.3,1.1
				v4.4h-1.9v-4.4c0-0.2,0-0.3,0-0.5c0-0.2-0.1-0.3-0.1-0.5c-0.1-0.1-0.2-0.3-0.3-0.4c-0.2-0.1-0.4-0.1-0.7-0.1
				c-0.2,0-0.4,0-0.6,0.1c-0.2,0.1-0.3,0.2-0.4,0.3c-0.1,0.1-0.2,0.3-0.2,0.5c0,0.2-0.1,0.4-0.1,0.6v3.2c0,0.2,0,0.3-0.1,0.5
				c-0.1,0.2-0.2,0.3-0.3,0.4c-0.1,0.1-0.3,0.2-0.5,0.3c-0.2,0.1-0.3,0.1-0.5,0.1h-1.3v-1.7h0.5c0.1,0,0.2,0,0.2-0.1
				c0.1-0.1,0.1-0.2,0.1-0.2V153z"/>
			<path class="st0" d="M217.8,156.3c0,0.1,0,0.2,0.1,0.2c0.1,0.1,0.1,0.1,0.2,0.1h0.5v1.7H217c-0.1,0-0.2,0-0.3-0.1
				c-0.1,0-0.2-0.1-0.3-0.2c-0.1-0.1-0.2-0.2-0.2-0.3c-0.1-0.1-0.1-0.2-0.1-0.4v-0.2c-0.2,0.4-0.5,0.7-1,1c-0.4,0.2-0.9,0.4-1.4,0.4
				c-0.5,0-1-0.1-1.4-0.2c-0.4-0.2-0.8-0.4-1.1-0.7c-0.3-0.3-0.6-0.7-0.7-1.2c-0.2-0.5-0.3-1.1-0.3-1.7c0-0.7,0.1-1.2,0.3-1.7
				c0.2-0.5,0.5-0.9,0.8-1.2c0.3-0.3,0.7-0.6,1.2-0.7c0.5-0.2,0.9-0.2,1.4-0.2c0.2,0,0.4,0,0.6,0.1c0.2,0,0.4,0.1,0.6,0.2
				c0.2,0.1,0.4,0.2,0.5,0.3c0.2,0.1,0.3,0.2,0.4,0.4V151h1.8V156.3z M215.7,154.7c0-0.2,0-0.5-0.1-0.7c0-0.3-0.1-0.5-0.3-0.7
				c-0.1-0.2-0.3-0.4-0.5-0.6c-0.2-0.1-0.5-0.2-0.9-0.2c-0.4,0-0.7,0.1-0.9,0.2c-0.2,0.1-0.4,0.3-0.5,0.6c-0.1,0.2-0.2,0.5-0.3,0.7
				c0,0.3-0.1,0.5-0.1,0.7c0,0.2,0,0.5,0.1,0.8c0,0.3,0.1,0.5,0.3,0.7c0.1,0.2,0.3,0.4,0.5,0.5c0.2,0.1,0.5,0.2,0.9,0.2
				c0.4,0,0.7-0.1,0.9-0.2c0.2-0.1,0.4-0.3,0.5-0.5c0.1-0.2,0.2-0.5,0.3-0.7C215.7,155.1,215.7,154.9,215.7,154.7z M214.4,150H213
				l1.3-2h2.1L214.4,150z"/>
			<path class="st0" d="M220,153c0-0.1,0-0.2-0.1-0.3c-0.1-0.1-0.2-0.1-0.3-0.1h-0.5V151h1.8c0.1,0,0.2,0,0.3,0.1
				c0.1,0.1,0.2,0.1,0.3,0.2c0.1,0.1,0.2,0.2,0.2,0.3c0.1,0.1,0.1,0.2,0.1,0.3v0.2c0.1-0.1,0.1-0.2,0.2-0.4c0.1-0.2,0.3-0.3,0.4-0.5
				c0.2-0.1,0.4-0.3,0.7-0.4c0.3-0.1,0.6-0.2,0.9-0.2c0.4,0,0.7,0.1,1,0.2c0.3,0.1,0.6,0.3,0.8,0.5c0.2,0.2,0.4,0.5,0.5,0.8
				c0.1,0.3,0.2,0.7,0.2,1.1v3c0,0.1,0,0.2,0.1,0.3c0.1,0.1,0.2,0.1,0.2,0.1h0.5v1.7H226c-0.2,0-0.3,0-0.5-0.1
				c-0.1-0.1-0.3-0.2-0.4-0.3c-0.1-0.1-0.2-0.3-0.3-0.5c-0.1-0.2-0.1-0.3-0.1-0.5v-3.1c0-0.1,0-0.3,0-0.5c0-0.2-0.1-0.3-0.1-0.5
				c-0.1-0.1-0.2-0.3-0.4-0.4c-0.2-0.1-0.4-0.2-0.7-0.2c-0.4,0-0.8,0.1-1.1,0.4c-0.3,0.3-0.4,0.7-0.4,1.3v2.8c0,0.2,0,0.3-0.1,0.5
				c-0.1,0.2-0.2,0.3-0.3,0.4c-0.1,0.1-0.2,0.2-0.4,0.3c-0.1,0.1-0.3,0.1-0.4,0.1h-1.6v-1.7h0.5c0.1,0,0.2,0,0.3-0.1
				c0.1-0.1,0.1-0.2,0.1-0.3V153z"/>
		</g>
	</g>
	<g>
		<g>
			<path class="st0" d="M118.7,67.5c0,13.1,23.8,23.8,23.8,23.8s23.8-10.6,23.8-23.8v-2.9V36.9h-47.6v27.6V67.5z"/>
			<path class="st1" d="M151.6,28.9h-18.5h-22.3v35.6v3.9c0,17.5,31.7,31.7,31.7,31.7s31.7-14.2,31.7-31.7v-3.9V28.9H151.6z
				 M168.8,36.9v27.6v2.9c0,14.6-24.2,25.6-25.3,26.1l-1,0.5l-1-0.5c-1-0.5-25.3-11.5-25.3-26.1v-2.9V36.9v-2.5h2.5h47.6h2.5V36.9z"
				/>
			<g>
				<g>
					<path class="st2" d="M147.3,58.7c-0.7-2.6,5.6-9.2,11.2-9.5c4.4-0.2,2.8,3.5,3.4,5.7c0.6,2.2,3.8,4.7-0.2,6.7
						C156.7,64,148,61.3,147.3,58.7z"/>
					<path class="st2" d="M137.6,58.7c0.7-2.6-5.6-9.2-11.2-9.5c-4.4-0.2-2.8,3.5-3.4,5.7s-3.8,4.7,0.2,6.7
						C128.2,64,136.9,61.3,137.6,58.7z"/>
					<path class="st2" d="M139.1,64.4c-2.2-1.5-10.6,2-12.8,7.1c-1.8,4,2.3,3.9,4.2,5.2c1.9,1.3,3.1,5.2,6.3,2.2
						C140.8,75,141.3,65.9,139.1,64.4z"/>
					<path class="st2" d="M145.8,64.4c2.2-1.5,10.6,2,12.8,7.1c1.8,4-2.3,3.9-4.2,5.2c-1.9,1.3-3.1,5.2-6.3,2.2
						C144.2,75,143.7,65.9,145.8,64.4z"/>
					<path class="st2" d="M142.5,55.5c-2.7,0-7.5-7.8-6.4-13.2c0.9-4.3,4.1-1.9,6.4-1.9c2.3,0,5.5-2.5,6.4,1.9
						C150,47.8,145.2,55.5,142.5,55.5z"/>
				</g>
			</g>
		</g>
		<g>
			<polygon class="st2" points="130.8,18.1 110.8,18.1 110.8,12.7 130.8,12.7 			"/>
			<polygon class="st0" points="130.9,26.2 110.8,26.2 110.8,20.8 130.9,20.8 			"/>
		</g>
		<g>
			<polygon class="st2" points="152.5,26.2 132.5,26.2 132.5,20.8 152.5,20.8 			"/>
		</g>
		<g>
			<polygon class="st2" points="174.1,18.1 154.2,18.1 154.2,12.7 174.1,12.7 			"/>
			<polygon class="st1" points="174.2,26.2 154.2,26.2 154.2,20.8 174.2,20.8 			"/>
		</g>
	</g>
</g>
<g>
	<path class="st1" d="M136.6,68.6c-0.5,0-1-0.2-1.3-0.7c-0.2-0.4-0.3-0.8-0.1-1.2c0.2-0.4,0.3-0.9,0.2-1.1c-1.1-2.1-1.9-5-1.9-7.4
		c0-4.5,2.1-7.6,5.5-8c0.5-1.2,2-2,3.8-2c1.7,0,3.1,0.7,3.7,1.9c3.3,0.4,5.5,3.6,5.5,8.1c0,2.3-0.7,5.1-1.8,7.2v0.1l-0.1,0.1
		c0,0.2,0.1,0.6,0.3,1c0.2,0.4,0.1,0.9-0.1,1.2c-0.3,0.4-0.8,0.6-1.3,0.6H136.6z M140.3,54.8c-0.5,0-1.9,0-1.9,3.5
		c0,2.2,1.2,6.4,2,8.3c0.1-2.3,0.3-4.7,0.5-6.7c0.1-1.4,0.3-2.7,0.3-3.4C141.1,54.8,140.5,54.8,140.3,54.8z M145.3,54.8
		c-0.3,0-0.9,0-0.9,1.7c0,0.7,0.1,1.7,0.2,3c0.2,1.9,0.4,4.4,0.5,7.1c0.7-1.8,2-6.1,2-8.2C147.2,54.8,145.8,54.8,145.3,54.8z"/>
	<path class="st2" d="M142.8,49.2c1.6,0,2.9,0.8,3,1.8c3.2,0.1,5.3,3.2,5.3,7.2c0,2.2-0.7,5-1.8,7c0,0,0,0,0,0
		c-0.2,0.4,0,1.2,0.3,1.8c0.1,0.3-0.2,0.6-0.6,0.6h-3.3c0.7-1.2,2.4-6.7,2.4-9.4c0-3.5-1.4-4.4-2.8-4.4c-1.4,0-1.8,1.3-1.8,2.6
		c0,1.9,0.8,6.2,0.8,11.2h-3.1c0-4.3,0.8-9.4,0.8-11.2c0-1.3-0.4-2.6-1.8-2.6c-1.4,0-2.8,0.9-2.8,4.4c0,2.7,1.7,8.2,2.4,9.4h-3.4
		c-0.4,0-0.7-0.3-0.6-0.6c0.3-0.6,0.4-1.5,0.2-1.8l0,0c-1.1-2-1.8-4.8-1.8-7c0-4.1,1.9-7.1,5.3-7.1
		C139.8,50.1,141.1,49.2,142.8,49.2 M142.8,47.4c-1.9,0-3.5,0.8-4.3,2c-3.6,0.6-5.8,4-5.8,8.8c0,2.5,0.7,5.4,1.9,7.6
		c0,0.1-0.1,0.3-0.2,0.5c-0.3,0.7-0.2,1.4,0.2,2c0.4,0.7,1.2,1.1,2.1,1.1h3.4h3.1h1.3h1.8h2.9c0.8,0,1.6-0.4,2-1
		c0.4-0.6,0.5-1.3,0.2-2l0,0l0,0c0-0.1-0.1-0.2-0.1-0.3l0,0l0-0.3c1.1-2.2,1.8-5,1.8-7.5c0-4.7-2.4-8.2-5.9-8.9
		C146.2,48.2,144.6,47.4,142.8,47.4L142.8,47.4z M139.8,61.6c-0.3-1.2-0.5-2.4-0.5-3.3c0-1.1,0.1-2.5,0.8-2.6c0,0.1,0.1,0.4,0.1,0.8
		c0,0.7-0.1,1.9-0.3,3.3C139.9,60.3,139.8,60.9,139.8,61.6L139.8,61.6z M145.8,61.5c-0.1-0.8-0.1-1.5-0.2-2.1
		c-0.1-1.2-0.2-2.3-0.2-2.9c0-0.4,0-0.6,0.1-0.8c0.7,0.2,0.8,1.5,0.8,2.6C146.3,59.1,146.1,60.3,145.8,61.5L145.8,61.5z"/>
</g>
<rect x="142.2" y="43.5" class="st1" width="1.1" height="5.1"/>
<rect x="142.2" y="43.2" transform="matrix(-1.836970e-016 1 -1 -1.836970e-016 188.2939 -97.2586)" class="st1" width="1.1" height="4.6"/>
</svg>
