<?xml version="1.0" encoding="utf-8"?>
<!-- Generator: Adobe Illustrator 19.2.1, SVG Export Plug-In . SVG Version: 6.00 Build 0)  -->
<svg version="1.1" id="Capa_1" xmlns="http://www.w3.org/2000/svg" xmlns:xlink="http://www.w3.org/1999/xlink" x="0px" y="0px"
	 viewBox="0 0 2283 1377" style="enable-background:new 0 0 2283 1377;" xml:space="preserve">
<style type="text/css">
	.st0{opacity:0.83;}
	.st1{fill:#C83C41;}
	.st2{fill:#3F3939;}
	.st3{opacity:0.87;fill:#C83C41;stroke:#B13E40;stroke-width:3;stroke-miterlimit:10;enable-background:new    ;}
	.st4{opacity:0.85;fill:#C83C41;stroke:#BC3D41;stroke-width:3;stroke-miterlimit:10;enable-background:new    ;}
	.st5{fill:#E6AC31;}
	.st6{fill:none;stroke:#E6AC31;stroke-width:5;stroke-miterlimit:10;}
	.st7{fill:none;stroke:#E6AC31;stroke-width:2;stroke-miterlimit:10;}
	.st8{fill:none;stroke:#E6AC31;stroke-miterlimit:10;}
</style>
<g id="Capa_26">
	<g class="st0">
		<path class="st1" d="M38.5,904c17.3,210.7,623.2,546.4,1019.1,426.7c314.3-95.1,111-335,96-518.1s146.5-452.9-179.1-495.5
			C564.4,263.4,21.2,693.4,38.5,904z"/>
	</g>
</g>
<g id="Capa_30">
	<path class="st2" d="M1338,551l-21,8v24l-224-16l-56,35l-73,52l36,5v8h-19l-34,20l-12-15l-12,15v8l-28,19c0,0-8,12,9,16s-11,8-11,8
		h69h46l16,6l2,17l27,18h55l159,27l108,19l12-292L1338,551z"/>
</g>
<g id="Capa_29">
	<path class="st3" d="M975,775c0,0,733,262,1308,236v-6C2283,1005,1700,1021,975,775z"/>
	<path class="st4" d="M875.4,757c0,0,384.9,277.9,508.1,350.2l0,0c1.3,0.1,1.8-1.5,0.7-2.1C1365,1093.6,1266.4,1032,875.4,757z"/>
	<g>
		
			<image style="overflow:visible;opacity:0.2;enable-background:new    ;" width="1646" height="538" xlink:href="F8D6DB5.png"  transform="matrix(0.2393 0 0 0.2393 1127.0952 881.708)">
		</image>
		<g>
			<ellipse class="st5" cx="1317" cy="939" rx="182" ry="49"/>
		</g>
	</g>
	<g>
		
			<image style="overflow:visible;opacity:0.43;enable-background:new    ;" width="992" height="258" xlink:href="F8D6DBB.png"  transform="matrix(0.2389 0 0 0.2389 993.4571 826.0997)">
		</image>
		<g>
			<ellipse class="st6" cx="1105" cy="850" rx="104" ry="16"/>
		</g>
	</g>
	<g>
		
			<image style="overflow:visible;opacity:0.43;enable-background:new    ;" width="717" height="171" xlink:href="F8D6DBD.png"  transform="matrix(0.238 0 0 0.238 948.4084 799.3737)">
		</image>
		<g>
			<ellipse class="st7" cx="1026.8" cy="812.8" rx="72.3" ry="6.8"/>
		</g>
	</g>
	<g>
		
			<image style="overflow:visible;opacity:0.43;enable-background:new    ;" width="550" height="138" xlink:href="F8D6DBF.png"  transform="matrix(0.2375 0 0 0.2375 921.957 784.2499)">
		</image>
		<g>
			<ellipse class="st8" cx="980.3" cy="793.6" rx="52.8" ry="3.4"/>
		</g>
	</g>
</g>
</svg>
