<?xml version="1.0" encoding="utf-8"?>
<!-- Generator: Adobe Illustrator 19.2.1, SVG Export Plug-In . SVG Version: 6.00 Build 0)  -->
<svg version="1.1" id="Capa_1" xmlns="http://www.w3.org/2000/svg" xmlns:xlink="http://www.w3.org/1999/xlink" x="0px" y="0px"
	 viewBox="0 0 1162 431.6" style="enable-background:new 0 0 1162 431.6;" xml:space="preserve">
<style type="text/css">
	.st0{fill:#F7931E;}
</style>
<path class="st0" d="M0,0.6h1162c0,0,0,302.2,0,303.6c0,15.2-31-51.1-37.1-113.2c-1.9-19.4-23.3,57.1-25.7,66.9
	c-6.2,26.1-38.5,85-70.1,49.3c-21.2-23.9-23.5-148.7-29.7-178.5c-3.7-17.7-16.5-97.8-37.7-102c-26.4-5.2-43.6,83.4-49.7,101.7
	c-9.8,29.5-13,250-98.1,241c-38.9-4.1-65.9-87.2-77.6-124.5c-10.9-34.8-14.9-86.3-44.6-111.6c-32-27.2-43.1,46.1-45.1,63.9
	c-3,26.8-3.9,108.6-31.5,122.6c-34.2,17.3-52.3-86.7-57.4-104.5c-9.6-33.1-37.6-20.4-44.8,6.6c-9,33.6-9.8,67-15.1,101.1
	c-2.5,16.1-15.7,43.7-35.2,44.1c-55.6,1.3-25.8-246.4-61.8-259.4c-50.1-10.8-61.2,175.1-69.5,216.3c-5.8,28.7-29.2,103.1-71.9,63.5
	c-21.5-20,6.4-239.4-68.6-222.8c-33.3,7.4-37.4,188-74,201.2C18.9,401.2,2.3,333.7,2.1,278.7C2.1,278.7,0,0.6,0,0.6z"/>
</svg>
