<?xml version="1.0" encoding="utf-8"?>
<!-- Generator: Adobe Illustrator 19.2.1, SVG Export Plug-In . SVG Version: 6.00 Build 0)  -->
<svg version="1.1" id="Capa_1" xmlns="http://www.w3.org/2000/svg" xmlns:xlink="http://www.w3.org/1999/xlink" x="0px" y="0px"
	 viewBox="0 0 1162 779.6" style="enable-background:new 0 0 1162 779.6;" xml:space="preserve">
<path d="M0,1.6h1162c0,0,0.4,544,0.4,545.4c0,15.2-31.4,3.9-37.5-58.1c-1.9-19.4-23.3,57.2-25.7,66.9c-6.2,26.1-38.5,85.1-70.1,49.4
	c-21.2-23.9-23.5-148.6-29.7-178.5c-3.7-17.7-13.1-63.2-34.3-67.4c-26.4-5.2-47.1,48.8-53.1,67.1c-9.8,29.5-13,250-98.1,241
	c-38.9-4.1-65.9-87.2-77.6-124.5c-10.9-34.8-14.9-86.3-44.6-111.5c-32-27.2-43.1,46.1-45.1,63.9c-3,26.8-3.9,108.6-31.5,122.6
	c-34.2,17.3-52.3-86.7-57.4-104.5c-9.6-33.1-37.6-20.4-44.8,6.6c-9,33.6-9.8,67-15.1,101.1c-2.5,16.1-15.7,43.7-35.2,44.1
	C407,666.4,431,505.4,395,492.4c-50.1-10.8-55.5,88.4-63.8,129.5c-5.8,28.7-29.2,103.1-71.9,63.5c-21.5-20,3.7-129.7-71.4-113
	c-33.3,7.4-34.7,78.3-71.2,91.5C18.9,699.2,2.3,519,2.1,463.9C2.1,463.9,0,1.6,0,1.6z"/>
</svg>
