<?xml version="1.0" encoding="utf-8"?>
<!-- Generator: Adobe Illustrator 19.2.1, SVG Export Plug-In . SVG Version: 6.00 Build 0)  -->
<svg version="1.1" id="Capa_1" xmlns="http://www.w3.org/2000/svg" xmlns:xlink="http://www.w3.org/1999/xlink" x="0px" y="0px"
	 viewBox="0 0 1162 779.6" style="enable-background:new 0 0 1162 779.6;" xml:space="preserve">
<path d="M0,3.6h1162c0,0,0.4,544.7,0.4,546.1c0,15.2-31.4,4.3-37.5-57.8c-1.9-19.4-23.3,57.3-25.7,67.1
	c-6.2,26.1-38.5,85.2-70.1,49.5c-21.2-23.9-23.5-148.6-29.7-178.5c-3.7-17.7-13.1-63.2-34.3-67.4c-26.4-5.2-47.1,48.8-53.1,67.1
	c-9.8,29.5-13,250-98.1,241c-38.9-4.1-65.9-87.2-77.6-124.5c-10.9-34.8-14.9-86.3-44.6-111.5c-32-27.2-43.1,46.1-45.1,63.9
	c-3,26.8-3.9,108.6-31.5,122.6c-34.2,17.3-52.3-86.7-57.4-104.5c-9.6-33.1-37.6-20.4-44.8,6.6c-9,33.6-9.8,67-15.1,101.1
	c-2.5,16.1-15.7,43.7-35.2,44.1C407,669.7,431,508.7,395,495.7c-50.1-10.8-55.5,88.4-63.8,129.5c-5.8,28.7-29.2,103.1-71.9,63.5
	c-21.5-20,3.7-129.7-71.4-113c-33.3,7.4-34.7,78.3-71.2,91.5C18.9,702.5,2.3,521.6,2.1,466.6C2.1,466.6,0,3.6,0,3.6z"/>
<path d="M1296,923.6l1162-3v1.5l-47.5-1.5H2366h-43.5l-35.5,2l-42.5-2h-51h-88H2072h-27h-31h-39h-39h-61h-51h-22.3c0,0-3.2,0-64.7,0
	c-52,2-83,0-83,0l-72.8,3h-60l-126,1.5l-64.5,1.5L1296,923.6z"/>
<path d="M1256-9.4h1162v778h-123h-77h-94h-71h-84h-19l-61-0.4h-33h-24.5H1800h-29h-5h-5h-12h-11.5c0,0,15,0.9-33.5,0
	c-17.5-1.1-48,0-48,0l-51,0.4h-101h-92.3H1254L1256-9.4z"/>
</svg>
