<?xml version="1.0" encoding="utf-8"?>
<!-- Generator: Adobe Illustrator 19.2.1, SVG Export Plug-In . SVG Version: 6.00 Build 0)  -->
<svg version="1.1" xmlns="http://www.w3.org/2000/svg" xmlns:xlink="http://www.w3.org/1999/xlink" x="0px" y="0px"
	 viewBox="0 0 1281.1 1185.1" style="enable-background:new 0 0 1281.1 1185.1;" xml:space="preserve">
<style type="text/css">
	.st0Corte{clip-path:url(#SVGID_2_);fill:#564748;}
</style>
<g id="Capa_1">
</g>
<g id="Capa_2">
	<g>
		<defs>
			<path id="SVGID_1_" d="M1063,529.2l-27-18.1l-2-16.9l-16-5.9h-46h-69c0,0,28-4.1,11-8.1s-8.9-16.1-8.9-16.1l28.1-19.1v-8l11.9-15
				l11.9,15.1l33.9-19.9h19.3V409l-36.1-5l72.9-52l56-35l84.6,6c12.4-122-6.9-230.3-203.2-256C574.4,13.4,31.2,443.4,48.5,654
				c17.3,210.7,623.2,546.4,1019.1,426.7c314.3-95.1,111-335,96-518.1c-0.7-8.5-1-17.1-1-25.9l-44.5-7.4H1063z"/>
		</defs>
		<clipPath id="SVGID_2_">
			<use xlink:href="#SVGID_1_"  style="overflow:visible;"/>
		</clipPath>
		<circle class="st0Corte" cx="657.1" cy="552.1" r="813.1"/>
	</g>
</g>
</svg>
