<?xml version="1.0" encoding="utf-8"?>
<!-- Generator: Adobe Illustrator 19.2.1, SVG Export Plug-In . SVG Version: 6.00 Build 0)  -->
<svg version="1.1" id="Capa_23" xmlns="http://www.w3.org/2000/svg" xmlns:xlink="http://www.w3.org/1999/xlink" x="0px" y="0px"
	 viewBox="0 0 1974 1191.1" style="enable-background:new 0 0 1974 1191.1;" xml:space="preserve">
<style type="text/css">
	.a{opacity:0.5;}
	.b{fill:#BF2621;}
	.c{fill:none;stroke:#2E366A;stroke-width:17;stroke-miterlimit:10;}
	.d{opacity:0.6;}
	.e{fill:#4F6E35;}
	.f{fill:#EBCA68;}
</style>
<g class="a">
	<path class="b" d="M156.1,924.4L156.1,924.4c-2.2-2.2-2.2-5.9,0-8.1l713.6-713.6c2.2-2.2,5.9-2.2,8.1,0l0,0
		c2.2,2.2,2.2,5.9,0,8.1L164.2,924.4C162,926.6,158.3,926.6,156.1,924.4z"/>
	<path class="b" d="M194.1,962.4L194.1,962.4c-2.2-2.2-2.2-5.9,0-8.1l713.6-713.6c2.2-2.2,5.9-2.2,8.1,0l0,0
		c2.2,2.2,2.2,5.9,0,8.1L202.2,962.4C200,964.6,196.3,964.6,194.1,962.4z"/>
	<path class="b" d="M232.1,1000.4L232.1,1000.4c-2.2-2.2-2.2-5.9,0-8.1l713.6-713.6c2.2-2.2,5.9-2.2,8.1,0l0,0
		c2.2,2.2,2.2,5.9,0,8.1l-713.6,713.6C237.9,1002.6,234.3,1002.6,232.1,1000.4z"/>
	<path class="b" d="M270,1038.3L270,1038.3c-2.2-2.2-2.2-5.9,0-8.1l713.6-713.6c2.2-2.2,5.9-2.2,8.1,0h0c2.2,2.2,2.2,5.9,0,8.1
		l-713.6,713.6C275.9,1040.6,272.3,1040.6,270,1038.3z"/>
	<path class="b" d="M308,1076.3L308,1076.3c-2.2-2.2-2.2-5.9,0-8.1l713.6-713.6c2.2-2.2,5.9-2.2,8.1,0v0c2.2,2.2,2.2,5.9,0,8.1
		l-713.6,713.6C313.9,1078.6,310.3,1078.6,308,1076.3z"/>
	<path class="b" d="M346,1114.3L346,1114.3c-2.2-2.2-2.2-5.9,0-8.1l713.6-713.6c2.2-2.2,5.9-2.2,8.1,0l0,0c2.2,2.2,2.2,5.9,0,8.1
		l-713.6,713.6C351.9,1116.6,348.3,1116.6,346,1114.3z"/>
	<path class="b" d="M384,1152.3L384,1152.3c-2.2-2.2-2.2-5.9,0-8.1l713.6-713.6c2.2-2.2,5.9-2.2,8.1,0l0,0c2.2,2.2,2.2,5.9,0,8.1
		l-713.6,713.6C389.9,1154.5,386.2,1154.5,384,1152.3z"/>
</g>
<g>
	
	<g>
		<g>
			<path class="c" d="M189.8,27C110.7,27,46.6,91.1,46.6,170.2s64.1,143.2,143.2,143.2S333,249.3,333,170.2S268.9,27,189.8,27z"/>
		</g>
	</g>
</g>
<g class="d">
	
		<image style="overflow:visible;opacity:0.75;" width="1454" height="1454" xlink:href="CB6C23C9.png"  transform="matrix(0.24 0 0 0.24 641.0988 594.3504)">
	</image>
	<g>
		<g>
			<path class="e" d="M682.4,674.9c-49.2,73-29.9,172,43.1,221.2c73,49.2,172,29.9,221.2-43.1c49.2-73,29.9-172-43.1-221.2
				C830.6,582.5,731.6,601.9,682.4,674.9z"/>
		</g>
	</g>
</g>
<g>
	
		<image style="overflow:visible;opacity:0.75;" width="1663" height="1663" xlink:href="CB6C23CF.png"  transform="matrix(0.24 0 0 0.24 1321.1355 73.3086)">
	</image>
	<g>
		<rect x="1335.3" y="83.5" class="f" width="368.8" height="368.8"/>
	</g>
</g>
<g>
	
		<image style="overflow:visible;opacity:0.75;" width="1905" height="1905" xlink:href="CB6C23C8.png"  transform="matrix(0.24 0 0 0.24 1505.04 183.5309)">
	</image>
	<g>
		<rect x="1527.7" y="202.1" class="c" width="410" height="410"/>
	</g>
</g>
</svg>
