<?xml version="1.0" encoding="utf-8"?>
<!-- Generator: Adobe Illustrator 19.2.1, SVG Export Plug-In . SVG Version: 6.00 Build 0)  -->
<svg version="1.1" id="Capa_1" xmlns="http://www.w3.org/2000/svg" xmlns:xlink="http://www.w3.org/1999/xlink" x="0px" y="0px"
	 viewBox="0 0 51.1 51.1" style="enable-background:new 0 0 51.1 51.1;" xml:space="preserve">
<style type="text/css">
	.st0{fill:#FFFFFF;}
</style>
<g>
	<path class="st0" d="M112.5-3c12.7,0,23.6,10.1,23.6,23.6c0,13.2-10.5,23.6-23.6,23.6c-13.5,0-23.6-10.9-23.6-23.7
		C88.9,7.6,99.5-3,112.5-3z M126.5,20.6c0-2.8,0-5.6,0-8.4c0-3.2-2.3-5.5-5.4-5.6c-5.7,0-11.4,0-17.1,0c-3.1,0-5.4,2.3-5.4,5.4
		c0,5.7,0,11.4,0,17.1c0,3.2,2.4,5.4,5.6,5.4c5.6,0,11.2,0,16.8,0c3.2,0,5.6-2.3,5.6-5.6C126.5,26.2,126.5,23.4,126.5,20.6z"/>
	<path class="st0" d="M119.7,17.8c1.4,0,2.7,0,4.1,0c0,0.2,0,0.3,0,0.5c0,3.6,0,7.2,0,10.8c0,1.7-1.1,2.8-2.8,2.8
		c-5.6,0-11.2,0-16.8,0c-1.7,0-2.8-1.1-2.8-2.8c0-3.6,0-7.1,0-10.7c0-0.2,0-0.3,0-0.5c1.4,0,2.7,0,4.1,0c-1.1,4-0.2,7.2,3.4,9.4
		c2.6,1.6,6,1.3,8.5-0.6C119.4,25,121,21.8,119.7,17.8z"/>
	<path class="st0" d="M107.6,20.6c0-2.7,2.2-4.9,4.9-4.9c2.7,0,4.9,2.2,4.9,5c0,2.7-2.2,4.9-5,4.9C109.8,25.5,107.6,23.3,107.6,20.6
		z"/>
	<path class="st0" d="M123.2,9.9c0,1.6,0,3.1,0,4.7c-1.6,0-3.1,0-4.7,0c0-1.5,0-3.1,0-4.7C120.1,9.9,121.7,9.9,123.2,9.9z"/>
</g>
<g>
	<path class="st0" d="M25.7,2c12.9,0,23.4,10.6,23.3,23.7c0,13-10.7,23.4-23.8,23.3C12.4,49,2,38.3,2,25.4C2.1,12.4,12.7,2,25.7,2z
		 M21.7,32.7c0,1.9,0.1,3.8,0,5.8c-0.1,1.2,0.4,1.5,1.5,1.4c1-0.1,2.1-0.1,3.1,0c1.2,0.1,1.7-0.3,1.6-1.5c-0.1-3.2-0.1-6.4,0-9.6
		c0-0.9-0.2-2.1,0.3-2.7c0.4-0.5,1.7-0.3,2.5-0.3c0.8,0,1.1-0.3,1.1-1.1c0.1-1.1,0.3-2.2,0.3-3.3c0-0.3-0.5-0.8-0.8-0.8
		c-0.9-0.1-1.8,0-2.7-0.1c-0.3,0-0.8-0.5-0.8-0.7c-0.1-2.8-0.1-3.4,2.9-3.3c0.2,0,0.3,0,0.5,0c0.7,0.1,1.1-0.2,1-1c0-1,0-2,0-3.1
		c0-0.8-0.4-1.1-1.1-1.1c-1.4,0-2.8,0-4.2,0.1c-2.9,0.1-4.9,2-5.2,4.9c-0.1,0.8-0.1,1.6-0.1,2.3c0,1.8,0,1.9-1.8,1.9
		c-0.8,0-1.2,0.3-1.1,1.1c0.1,0.8,0,1.6,0,2.3c0,1.7,0,1.8,1.8,1.7c1,0,1.2,0.4,1.1,1.2C21.7,28.8,21.7,30.8,21.7,32.7z"/>
</g>
<g>
	<path class="st0" d="M150.3-15.9c-13.1,0.2-23.6-10.4-23.8-23.2c-0.2-13.2,10.4-23.7,23.2-23.9c13.1-0.2,23.7,10.4,23.8,23.2
		C173.7-26,162.5-15.8,150.3-15.9z M151.7-42.2c0-0.3,0-0.6,0-0.8c0-0.7-0.1-0.7-0.7-0.7c-1.3,0-2.5,0-3.8,0c-0.4,0-0.6,0.2-0.6,0.6
		c0,4.6,0,9.2,0,13.8c0,0.5,0.2,0.7,0.7,0.6c1.2,0,2.4,0,3.6,0c0.8,0,0.8,0,0.8-0.9c0-2.7,0-5.3,0-8c0-1.3,0.8-2.3,2.1-2.4
		c1.4-0.1,2.3,0.4,2.4,1.8c0,0.4,0.1,0.7,0.1,1.1c0,2.6,0,5.1,0,7.7c0,0.5,0.2,0.7,0.6,0.6c1.2,0,2.4,0,3.6,0c0.7,0,0.8-0.1,0.8-0.8
		c0-3.3,0-6.7,0-10c0-0.3,0-0.6-0.1-0.8c-0.6-2.1-2.6-3.5-4.8-3.6C154.6-43.9,153-43.4,151.7-42.2z M143.9-36.1c0-2.3,0-4.6,0-6.9
		c0-0.4-0.1-0.6-0.6-0.6c-1.3,0-2.6,0-3.9,0c-0.5,0-0.7,0.2-0.7,0.7c0,0.9,0,1.7,0,2.6c0,3.7,0,7.4,0,11.1c0,0.7,0.1,0.8,0.8,0.8
		c1.2,0,2.4,0,3.6,0c0.7,0,0.7,0,0.7-0.7C143.9-31.6,143.9-33.9,143.9-36.1z M143.9-47.6c0-1.4-1.1-2.6-2.5-2.6
		c-1.4,0-2.6,1.2-2.6,2.6c0,1.3,1.2,2.5,2.6,2.5C142.8-45.1,143.9-46.3,143.9-47.6z"/>
</g>
</svg>
