<?xml version="1.0" encoding="utf-8"?>
<!-- Generator: Adobe Illustrator 19.2.1, SVG Export Plug-In . SVG Version: 6.00 Build 0)  -->
<svg version="1.1" id="Capa_1" xmlns="http://www.w3.org/2000/svg" xmlns:xlink="http://www.w3.org/1999/xlink" x="0px" y="0px"
	 viewBox="0 0 51 51" style="enable-background:new 0 0 51 51;" xml:space="preserve">
<style type="text/css">
	.st0{fill:#FFFFFF;}
</style>
<g>
	<path class="st0" d="M-12,61.9c12.7,0,23.6,10.1,23.6,23.6c0,13.2-10.5,23.6-23.6,23.6c-13.5,0-23.6-10.9-23.6-23.7
		C-35.6,72.5-25,61.9-12,61.9z M2,85.6c0-2.8,0-5.6,0-8.4c0-3.2-2.3-5.5-5.4-5.6c-5.7,0-11.4,0-17.1,0c-3.1,0-5.4,2.3-5.4,5.4
		c0,5.7,0,11.4,0,17.1c0,3.2,2.4,5.4,5.6,5.4c5.6,0,11.2,0,16.8,0c3.2,0,5.6-2.3,5.6-5.6C2,91.2,2,88.4,2,85.6z"/>
	<path class="st0" d="M-4.9,82.7c1.4,0,2.7,0,4.1,0c0,0.2,0,0.3,0,0.5c0,3.6,0,7.2,0,10.8c0,1.7-1.1,2.8-2.8,2.8
		c-5.6,0-11.2,0-16.8,0c-1.7,0-2.8-1.1-2.8-2.8c0-3.6,0-7.1,0-10.7c0-0.2,0-0.3,0-0.5c1.4,0,2.7,0,4.1,0c-1.1,4-0.2,7.2,3.4,9.4
		c2.6,1.6,6,1.3,8.5-0.6C-5.2,89.9-3.5,86.7-4.9,82.7z"/>
	<path class="st0" d="M-16.9,85.5c0-2.7,2.2-4.9,4.9-4.9c2.7,0,4.9,2.2,4.9,5c0,2.7-2.2,4.9-5,4.9C-14.7,90.4-16.9,88.2-16.9,85.5z"
		/>
	<path class="st0" d="M-1.3,74.8c0,1.6,0,3.1,0,4.7c-1.6,0-3.1,0-4.7,0c0-1.5,0-3.1,0-4.7C-4.4,74.8-2.9,74.8-1.3,74.8z"/>
</g>
<g>
	<path class="st0" d="M-98.8,66.9c12.9,0,23.4,10.6,23.3,23.7c0,13-10.7,23.4-23.8,23.3c-12.8,0-23.3-10.7-23.2-23.7
		C-122.5,77.3-111.9,66.9-98.8,66.9z M-102.8,97.6c0,1.9,0.1,3.8,0,5.8c-0.1,1.2,0.4,1.5,1.5,1.4c1-0.1,2.1-0.1,3.1,0
		c1.2,0.1,1.7-0.3,1.6-1.5c-0.1-3.2-0.1-6.4,0-9.6c0-0.9-0.2-2.1,0.3-2.7c0.4-0.5,1.7-0.3,2.5-0.3c0.8,0,1.1-0.3,1.1-1.1
		c0.1-1.1,0.3-2.2,0.3-3.3c0-0.3-0.5-0.8-0.8-0.8c-0.9-0.1-1.8,0-2.7-0.1c-0.3,0-0.8-0.5-0.8-0.7c-0.1-2.8-0.1-3.4,2.9-3.3
		c0.2,0,0.3,0,0.5,0c0.7,0.1,1.1-0.2,1-1c0-1,0-2,0-3.1c0-0.8-0.4-1.1-1.1-1.1c-1.4,0-2.8,0-4.2,0.1c-2.9,0.1-4.9,2-5.2,4.9
		c-0.1,0.8-0.1,1.6-0.1,2.3c0,1.8,0,1.9-1.8,1.9c-0.8,0-1.2,0.3-1.1,1.1c0.1,0.8,0,1.6,0,2.3c0,1.7,0,1.8,1.8,1.7
		c1,0,1.2,0.4,1.1,1.2C-102.8,93.8-102.8,95.7-102.8,97.6z"/>
</g>
<g>
	<path class="st0" d="M25.8,49C12.7,49.2,2.2,38.6,2,25.8C1.8,12.7,12.4,2.2,25.2,2C38.3,1.8,48.8,12.4,49,25.1
		C49.2,38.9,38,49.1,25.8,49z M27.1,22.7c0-0.3,0-0.6,0-0.8c0-0.7-0.1-0.7-0.7-0.7c-1.3,0-2.5,0-3.8,0c-0.4,0-0.6,0.2-0.6,0.6
		c0,4.6,0,9.2,0,13.8c0,0.5,0.2,0.7,0.7,0.6c1.2,0,2.4,0,3.6,0c0.8,0,0.8,0,0.8-0.9c0-2.7,0-5.3,0-8c0-1.3,0.8-2.3,2.1-2.4
		c1.4-0.1,2.3,0.4,2.4,1.8c0,0.4,0.1,0.7,0.1,1.1c0,2.6,0,5.1,0,7.7c0,0.5,0.2,0.7,0.6,0.6c1.2,0,2.4,0,3.6,0c0.7,0,0.8-0.1,0.8-0.8
		c0-3.3,0-6.7,0-10c0-0.3,0-0.6-0.1-0.8c-0.6-2.1-2.6-3.5-4.8-3.6C30,21,28.5,21.5,27.1,22.7z M19.4,28.8c0-2.3,0-4.6,0-6.9
		c0-0.4-0.1-0.6-0.6-0.6c-1.3,0-2.6,0-3.9,0c-0.5,0-0.7,0.2-0.7,0.7c0,0.9,0,1.7,0,2.6c0,3.7,0,7.4,0,11.1c0,0.7,0.1,0.8,0.8,0.8
		c1.2,0,2.4,0,3.6,0c0.7,0,0.7,0,0.7-0.7C19.4,33.3,19.4,31.1,19.4,28.8z M19.4,17.3c0-1.4-1.1-2.6-2.5-2.6c-1.4,0-2.6,1.2-2.6,2.6
		c0,1.3,1.2,2.5,2.6,2.5C18.3,19.8,19.4,18.7,19.4,17.3z"/>
</g>
</svg>
